%
M48
M72
T01C0.0236
T02C0.0276
T03C0.0315
T04C0.1102
%
T01
X3700Y6813
X2500Y9550
X2500Y11500
X2500Y13500
X2500Y14500
X2900Y16100
X3900Y16100
X7700Y16950
X8900Y15750
X8350Y15250
X7700Y15150
X9400Y13100
X9400Y12300
X7200Y10350
X10150Y7850
X9250Y6813
X9000Y5450
X9850Y4250
X12250Y1750
X14750Y4750
X15300Y3250
X11750Y9150
T02
X3350Y16700
T03
X7200Y11250
X9850Y11250
X11124Y11517
X11124Y12305
X11124Y13092
X11124Y13880
X11124Y14667
X11124Y15454
X11124Y16242
X11124Y17029
X11124Y17817
X11124Y18604
X19785Y18604
X19785Y17817
X19785Y17029
X19785Y16242
X19785Y15454
X19785Y14667
X19785Y13880
X19785Y13092
X19785Y12305
X19785Y11517
T04
X17817Y4824
X5612Y18604
M30
