G75*
G70*
%OFA0B0*%
%FSLAX24Y24*%
%IPPOS*%
%LPD*%
%AMOC8*
5,1,8,0,0,1.08239X$1,22.5*
%
%ADD10C,0.0660*%
%ADD11R,0.0847X0.0355*%
%ADD12R,0.0847X0.0158*%
%ADD13C,0.1162*%
%ADD14C,0.0456*%
%ADD15C,0.0496*%
%ADD16C,0.0535*%
D10*
X011124Y011517D03*
X011124Y012305D03*
X011124Y013092D03*
X011124Y013880D03*
X011124Y014667D03*
X011124Y015454D03*
X011124Y016242D03*
X011124Y017029D03*
X011124Y017817D03*
X011124Y018604D03*
X019785Y018604D03*
X019785Y017817D03*
X019785Y017029D03*
X019785Y016242D03*
X019785Y015454D03*
X019785Y014667D03*
X019785Y013880D03*
X019785Y013092D03*
X019785Y012305D03*
X019785Y011517D03*
D11*
X006399Y014076D03*
X004824Y014076D03*
X004824Y016045D03*
X006399Y016045D03*
D12*
X006399Y015750D03*
X006399Y015553D03*
X006399Y015356D03*
X006399Y015159D03*
X006399Y014962D03*
X006399Y014765D03*
X006399Y014569D03*
X006399Y014372D03*
X004824Y014372D03*
X004824Y014569D03*
X004824Y014765D03*
X004824Y014962D03*
X004824Y015159D03*
X004824Y015356D03*
X004824Y015553D03*
X004824Y015750D03*
D13*
X005612Y018604D03*
X017817Y004824D03*
D14*
X003700Y006813D03*
X002500Y009550D03*
X002500Y011500D03*
X002500Y013500D03*
X002500Y014500D03*
X002900Y016100D03*
X003900Y016100D03*
X007700Y016950D03*
X008900Y015750D03*
X008350Y015250D03*
X007700Y015150D03*
X009400Y013100D03*
X009400Y012300D03*
X007200Y010350D03*
X010150Y007850D03*
X009250Y006813D03*
X009000Y005450D03*
X009850Y004250D03*
X012250Y001750D03*
X014750Y004750D03*
X015300Y003250D03*
X011750Y009150D03*
D15*
X003350Y016700D03*
D16*
X007200Y011250D03*
X009850Y011250D03*
M02*
