G75*
G70*
%OFA0B0*%
%FSLAX24Y24*%
%IPPOS*%
%LPD*%
%AMOC8*
5,1,8,0,0,1.08239X$1,22.5*
%
%ADD10C,0.0600*%
%ADD11R,0.0787X0.0295*%
%ADD12R,0.0787X0.0098*%
%ADD13C,0.0120*%
%ADD14C,0.0396*%
%ADD15C,0.0160*%
%ADD16C,0.0436*%
%ADD17C,0.0475*%
%ADD18C,0.0100*%
D10*
X011124Y011517D03*
X011124Y012305D03*
X011124Y013092D03*
X011124Y013880D03*
X011124Y014667D03*
X011124Y015454D03*
X011124Y016242D03*
X011124Y017029D03*
X011124Y017817D03*
X011124Y018604D03*
X019785Y018604D03*
X019785Y017817D03*
X019785Y017029D03*
X019785Y016242D03*
X019785Y015454D03*
X019785Y014667D03*
X019785Y013880D03*
X019785Y013092D03*
X019785Y012305D03*
X019785Y011517D03*
D11*
X006399Y014076D03*
X004824Y014076D03*
X004824Y016045D03*
X006399Y016045D03*
D12*
X006399Y015750D03*
X006399Y015553D03*
X006399Y015356D03*
X006399Y015159D03*
X006399Y014962D03*
X006399Y014765D03*
X006399Y014569D03*
X006399Y014372D03*
X004824Y014372D03*
X004824Y014569D03*
X004824Y014765D03*
X004824Y014962D03*
X004824Y015159D03*
X004824Y015356D03*
X004824Y015553D03*
X004824Y015750D03*
D13*
X004881Y016413D02*
X004424Y016870D01*
X004339Y016954D01*
X004229Y017000D01*
X003669Y017000D01*
X003598Y017071D01*
X003437Y017138D01*
X003263Y017138D01*
X003102Y017071D01*
X002979Y016948D01*
X002912Y016787D01*
X002912Y016613D01*
X002951Y016518D01*
X002817Y016518D01*
X002663Y016454D01*
X002546Y016337D01*
X002482Y016183D01*
X002482Y016017D01*
X002546Y015863D01*
X002663Y015746D01*
X002817Y015682D01*
X002936Y015682D01*
X003418Y015200D01*
X002347Y014129D01*
X002271Y014053D01*
X002230Y013954D01*
X002230Y013821D01*
X002146Y013737D01*
X002082Y013583D01*
X002082Y013417D01*
X002146Y013263D01*
X002263Y013146D01*
X002417Y013082D01*
X002583Y013082D01*
X002737Y013146D01*
X002854Y013263D01*
X002918Y013417D01*
X002918Y013583D01*
X002854Y013737D01*
X002787Y013805D01*
X003461Y014480D01*
X003430Y014404D01*
X003430Y008368D01*
X002355Y008368D01*
X002237Y008640D01*
X001880Y009834D01*
X001664Y011061D01*
X001591Y012305D01*
X001664Y013548D01*
X001880Y014775D01*
X002237Y015969D01*
X002731Y017113D01*
X002910Y017423D01*
X004524Y017423D01*
X004802Y017201D01*
X005251Y017025D01*
X005251Y017025D01*
X005733Y016988D01*
X006204Y017096D01*
X006622Y017337D01*
X006622Y017337D01*
X006622Y017337D01*
X006701Y017423D01*
X010782Y017423D01*
X010782Y017423D01*
X010683Y017324D01*
X010604Y017133D01*
X010604Y016926D01*
X010683Y016735D01*
X010782Y016635D01*
X010683Y016536D01*
X010604Y016345D01*
X010604Y016138D01*
X010683Y015947D01*
X010782Y015848D01*
X010683Y015749D01*
X010604Y015558D01*
X010604Y015351D01*
X010683Y015160D01*
X010782Y015061D01*
X010683Y014961D01*
X010604Y014770D01*
X010604Y014563D01*
X010683Y014372D01*
X010782Y014273D01*
X010683Y014174D01*
X010604Y013983D01*
X010604Y013776D01*
X010683Y013585D01*
X010782Y013486D01*
X010683Y013387D01*
X010607Y013203D01*
X008892Y014918D01*
X008816Y014994D01*
X008717Y015035D01*
X008714Y015035D01*
X008768Y015167D01*
X008768Y015333D01*
X008759Y015356D01*
X008817Y015332D01*
X008983Y015332D01*
X009137Y015396D01*
X009254Y015513D01*
X009318Y015667D01*
X009318Y015833D01*
X009254Y015987D01*
X009137Y016104D01*
X008983Y016168D01*
X008817Y016168D01*
X008663Y016104D01*
X008578Y016020D01*
X007013Y016020D01*
X007013Y016284D01*
X006884Y016413D01*
X005914Y016413D01*
X005786Y016284D01*
X005786Y013838D01*
X005914Y013709D01*
X006884Y013709D01*
X007013Y013838D01*
X007013Y014102D01*
X008167Y014102D01*
X008680Y013588D01*
X008680Y012696D01*
X008721Y012597D01*
X008982Y012336D01*
X008982Y012217D01*
X009046Y012063D01*
X009163Y011946D01*
X009317Y011882D01*
X009483Y011882D01*
X009637Y011946D01*
X009754Y012063D01*
X009818Y012217D01*
X009818Y012383D01*
X009754Y012537D01*
X009637Y012654D01*
X009527Y012700D01*
X009637Y012746D01*
X009754Y012863D01*
X009818Y013017D01*
X009818Y013183D01*
X009786Y013260D01*
X010614Y012433D01*
X010604Y012408D01*
X010604Y012201D01*
X010683Y012010D01*
X010824Y011869D01*
X010824Y011868D01*
X010773Y011817D01*
X010730Y011758D01*
X010697Y011694D01*
X010675Y011625D01*
X010664Y011554D01*
X010664Y011536D01*
X011105Y011536D01*
X011105Y011785D01*
X011142Y011785D01*
X011142Y011536D01*
X011105Y011536D01*
X011105Y011499D01*
X010664Y011499D01*
X010664Y011481D01*
X010675Y011410D01*
X010697Y011341D01*
X010730Y011276D01*
X010773Y011218D01*
X010824Y011166D01*
X010883Y011124D01*
X010947Y011091D01*
X011016Y011069D01*
X011087Y011057D01*
X011105Y011057D01*
X011105Y011499D01*
X011142Y011499D01*
X011142Y011536D01*
X011584Y011536D01*
X011584Y011554D01*
X011572Y011625D01*
X011550Y011694D01*
X011517Y011758D01*
X011474Y011817D01*
X011423Y011868D01*
X011423Y011869D01*
X011564Y012010D01*
X011644Y012201D01*
X011644Y012408D01*
X011564Y012599D01*
X011465Y012698D01*
X011564Y012798D01*
X011644Y012989D01*
X011644Y013196D01*
X011564Y013387D01*
X011465Y013486D01*
X011564Y013585D01*
X011644Y013776D01*
X011644Y013983D01*
X011564Y014174D01*
X011465Y014273D01*
X011564Y014372D01*
X011644Y014563D01*
X011644Y014770D01*
X011564Y014961D01*
X011465Y015061D01*
X011564Y015160D01*
X011644Y015351D01*
X011644Y015558D01*
X011564Y015749D01*
X011465Y015848D01*
X011564Y015947D01*
X011644Y016138D01*
X011644Y016345D01*
X011564Y016536D01*
X011465Y016635D01*
X011564Y016735D01*
X011644Y016926D01*
X011644Y017133D01*
X011564Y017324D01*
X011465Y017423D01*
X019443Y017423D01*
X019344Y017324D01*
X019265Y017133D01*
X019265Y016926D01*
X019344Y016735D01*
X019443Y016635D01*
X019344Y016536D01*
X019265Y016345D01*
X019265Y016138D01*
X019344Y015947D01*
X019443Y015848D01*
X019344Y015749D01*
X019265Y015558D01*
X019265Y015351D01*
X019344Y015160D01*
X019443Y015061D01*
X019344Y014961D01*
X019265Y014770D01*
X019265Y014563D01*
X019344Y014372D01*
X019486Y014231D01*
X019485Y014230D01*
X019434Y014179D01*
X019392Y014121D01*
X019359Y014056D01*
X019336Y013987D01*
X019325Y013916D01*
X019325Y013898D01*
X019766Y013898D01*
X019766Y013861D01*
X019325Y013861D01*
X019325Y013843D01*
X019336Y013772D01*
X019359Y013703D01*
X019392Y013638D01*
X019434Y013580D01*
X019485Y013529D01*
X019486Y013528D01*
X019344Y013387D01*
X019265Y013196D01*
X019265Y012989D01*
X019271Y012974D01*
X016927Y010630D01*
X007511Y010630D01*
X007437Y010704D01*
X007283Y010768D01*
X007117Y010768D01*
X006963Y010704D01*
X006846Y010587D01*
X006782Y010433D01*
X006782Y010267D01*
X006846Y010113D01*
X006963Y009996D01*
X007117Y009932D01*
X007283Y009932D01*
X007437Y009996D01*
X007511Y010070D01*
X016987Y010070D01*
X017099Y010070D01*
X017202Y010113D01*
X019272Y012184D01*
X019344Y012010D01*
X019443Y011911D01*
X019344Y011812D01*
X019265Y011621D01*
X019265Y011414D01*
X019344Y011223D01*
X019490Y011076D01*
X019682Y010997D01*
X019888Y010997D01*
X020080Y011076D01*
X020226Y011223D01*
X020305Y011414D01*
X020305Y011621D01*
X020226Y011812D01*
X020127Y011911D01*
X020226Y012010D01*
X020305Y012201D01*
X020305Y012408D01*
X020226Y012599D01*
X020127Y012698D01*
X020226Y012798D01*
X020305Y012989D01*
X020305Y013196D01*
X020226Y013387D01*
X020084Y013528D01*
X020085Y013529D01*
X020136Y013580D01*
X020178Y013638D01*
X020211Y013703D01*
X020234Y013772D01*
X020245Y013843D01*
X020245Y013861D01*
X019804Y013861D01*
X019804Y013898D01*
X020245Y013898D01*
X020245Y013916D01*
X020234Y013987D01*
X020211Y014056D01*
X020178Y014121D01*
X020136Y014179D01*
X020085Y014230D01*
X020084Y014231D01*
X020226Y014372D01*
X020305Y014563D01*
X020305Y014770D01*
X020226Y014961D01*
X020127Y015061D01*
X020226Y015160D01*
X020305Y015351D01*
X020305Y015558D01*
X020226Y015749D01*
X020127Y015848D01*
X020226Y015947D01*
X020305Y016138D01*
X020305Y016345D01*
X020226Y016536D01*
X020127Y016635D01*
X020226Y016735D01*
X020305Y016926D01*
X020305Y017133D01*
X020226Y017324D01*
X020127Y017423D01*
X021700Y017423D01*
X021879Y017113D01*
X022372Y015969D01*
X022730Y014775D01*
X022946Y013549D01*
X023018Y012305D01*
X022946Y011061D01*
X022730Y009834D01*
X022372Y008640D01*
X022255Y008368D01*
X009514Y008368D01*
X009479Y008453D01*
X009403Y008529D01*
X008953Y008979D01*
X008854Y009020D01*
X004712Y009020D01*
X004170Y009562D01*
X004170Y014138D01*
X004237Y014205D01*
X004271Y014171D01*
X004271Y014090D01*
X004811Y014090D01*
X004811Y014102D01*
X004838Y014102D01*
X004838Y014090D01*
X004811Y014090D01*
X004811Y014063D01*
X004838Y014063D01*
X004838Y014090D01*
X005378Y014090D01*
X005378Y014171D01*
X005438Y014231D01*
X005438Y016284D01*
X005309Y016413D01*
X004881Y016413D01*
X004841Y016453D02*
X010648Y016453D01*
X010604Y016335D02*
X006962Y016335D01*
X007013Y016216D02*
X010604Y016216D01*
X010621Y016098D02*
X009144Y016098D01*
X009258Y015979D02*
X010670Y015979D01*
X010769Y015861D02*
X009307Y015861D01*
X009318Y015742D02*
X010680Y015742D01*
X010631Y015624D02*
X009300Y015624D01*
X009246Y015505D02*
X010604Y015505D01*
X010604Y015387D02*
X009115Y015387D01*
X008768Y015268D02*
X010638Y015268D01*
X010693Y015150D02*
X008761Y015150D01*
X008727Y015031D02*
X010752Y015031D01*
X010663Y014913D02*
X008898Y014913D01*
X009016Y014794D02*
X010613Y014794D01*
X010604Y014676D02*
X009135Y014676D01*
X009253Y014557D02*
X010606Y014557D01*
X010655Y014439D02*
X009372Y014439D01*
X009490Y014320D02*
X010735Y014320D01*
X010710Y014202D02*
X009609Y014202D01*
X009727Y014083D02*
X010645Y014083D01*
X010604Y013965D02*
X009846Y013965D01*
X009964Y013846D02*
X010604Y013846D01*
X010624Y013728D02*
X010083Y013728D01*
X010201Y013609D02*
X010673Y013609D01*
X010777Y013491D02*
X010320Y013491D01*
X010438Y013372D02*
X010677Y013372D01*
X010628Y013254D02*
X010557Y013254D01*
X010148Y012898D02*
X009769Y012898D01*
X009818Y013017D02*
X010030Y013017D01*
X009911Y013135D02*
X009818Y013135D01*
X009793Y013254D02*
X009789Y013254D01*
X009671Y012780D02*
X010267Y012780D01*
X010385Y012661D02*
X009621Y012661D01*
X009749Y012543D02*
X010504Y012543D01*
X010610Y012424D02*
X009801Y012424D01*
X009818Y012306D02*
X010604Y012306D01*
X010610Y012187D02*
X009806Y012187D01*
X009757Y012069D02*
X010659Y012069D01*
X010743Y011950D02*
X009641Y011950D01*
X009759Y011707D02*
X009591Y011638D01*
X009503Y011550D01*
X007547Y011550D01*
X007459Y011638D01*
X007291Y011707D01*
X007109Y011707D01*
X006941Y011638D01*
X006812Y011509D01*
X006743Y011341D01*
X006743Y011159D01*
X006812Y010991D01*
X006941Y010862D01*
X007109Y010793D01*
X007291Y010793D01*
X007459Y010862D01*
X007547Y010950D01*
X009503Y010950D01*
X009591Y010862D01*
X009759Y010793D01*
X009941Y010793D01*
X010109Y010862D01*
X010238Y010991D01*
X010307Y011159D01*
X010307Y011341D01*
X010238Y011509D01*
X010109Y011638D01*
X009941Y011707D01*
X009759Y011707D01*
X009548Y011595D02*
X007502Y011595D01*
X006898Y011595D02*
X004170Y011595D01*
X004170Y011713D02*
X010707Y011713D01*
X010670Y011595D02*
X010152Y011595D01*
X010252Y011476D02*
X010664Y011476D01*
X010692Y011358D02*
X010301Y011358D01*
X010307Y011239D02*
X010757Y011239D01*
X010889Y011121D02*
X010292Y011121D01*
X010242Y011002D02*
X017299Y011002D01*
X017417Y011121D02*
X011358Y011121D01*
X011365Y011124D02*
X011423Y011166D01*
X011474Y011218D01*
X011517Y011276D01*
X011550Y011341D01*
X011572Y011410D01*
X011584Y011481D01*
X011584Y011499D01*
X011142Y011499D01*
X011142Y011057D01*
X011160Y011057D01*
X011231Y011069D01*
X011300Y011091D01*
X011365Y011124D01*
X011490Y011239D02*
X017536Y011239D01*
X017654Y011358D02*
X011555Y011358D01*
X011583Y011476D02*
X017773Y011476D01*
X017891Y011595D02*
X011577Y011595D01*
X011540Y011713D02*
X018010Y011713D01*
X018128Y011832D02*
X011460Y011832D01*
X011504Y011950D02*
X018247Y011950D01*
X018365Y012069D02*
X011589Y012069D01*
X011638Y012187D02*
X018484Y012187D01*
X018602Y012306D02*
X011644Y012306D01*
X011637Y012424D02*
X018721Y012424D01*
X018839Y012543D02*
X011588Y012543D01*
X011503Y012661D02*
X018958Y012661D01*
X019076Y012780D02*
X011546Y012780D01*
X011606Y012898D02*
X019195Y012898D01*
X019265Y013017D02*
X011644Y013017D01*
X011644Y013135D02*
X019265Y013135D01*
X019289Y013254D02*
X011620Y013254D01*
X011571Y013372D02*
X019338Y013372D01*
X019448Y013491D02*
X011470Y013491D01*
X011574Y013609D02*
X019413Y013609D01*
X019351Y013728D02*
X011624Y013728D01*
X011644Y013846D02*
X019325Y013846D01*
X019333Y013965D02*
X011644Y013965D01*
X011602Y014083D02*
X019372Y014083D01*
X019457Y014202D02*
X011537Y014202D01*
X011512Y014320D02*
X019397Y014320D01*
X019317Y014439D02*
X011592Y014439D01*
X011641Y014557D02*
X019268Y014557D01*
X019265Y014676D02*
X011644Y014676D01*
X011634Y014794D02*
X019275Y014794D01*
X019324Y014913D02*
X011585Y014913D01*
X011495Y015031D02*
X019414Y015031D01*
X019354Y015150D02*
X011554Y015150D01*
X011609Y015268D02*
X019299Y015268D01*
X019265Y015387D02*
X011644Y015387D01*
X011644Y015505D02*
X019265Y015505D01*
X019292Y015624D02*
X011616Y015624D01*
X011567Y015742D02*
X019341Y015742D01*
X019431Y015861D02*
X011478Y015861D01*
X011578Y015979D02*
X019331Y015979D01*
X019282Y016098D02*
X011627Y016098D01*
X011644Y016216D02*
X019265Y016216D01*
X019265Y016335D02*
X011644Y016335D01*
X011599Y016453D02*
X019310Y016453D01*
X019379Y016572D02*
X011529Y016572D01*
X011520Y016690D02*
X019389Y016690D01*
X019314Y016809D02*
X011595Y016809D01*
X011644Y016927D02*
X019265Y016927D01*
X019265Y017046D02*
X011644Y017046D01*
X011631Y017164D02*
X019278Y017164D01*
X019327Y017283D02*
X011582Y017283D01*
X011487Y017401D02*
X019422Y017401D01*
X019443Y017423D02*
X019443Y017423D01*
X020127Y017423D02*
X020127Y017423D01*
X020149Y017401D02*
X021712Y017401D01*
X021781Y017283D02*
X020243Y017283D01*
X020292Y017164D02*
X021849Y017164D01*
X021908Y017046D02*
X020305Y017046D01*
X020305Y016927D02*
X021959Y016927D01*
X022010Y016809D02*
X020257Y016809D01*
X020181Y016690D02*
X022061Y016690D01*
X022112Y016572D02*
X020191Y016572D01*
X020260Y016453D02*
X022163Y016453D01*
X022215Y016335D02*
X020305Y016335D01*
X020305Y016216D02*
X022266Y016216D01*
X022317Y016098D02*
X020288Y016098D01*
X020239Y015979D02*
X022368Y015979D01*
X022405Y015861D02*
X020139Y015861D01*
X020229Y015742D02*
X022440Y015742D01*
X022476Y015624D02*
X020278Y015624D01*
X020305Y015505D02*
X022511Y015505D01*
X022547Y015387D02*
X020305Y015387D01*
X020271Y015268D02*
X022582Y015268D01*
X022618Y015150D02*
X020216Y015150D01*
X020156Y015031D02*
X022653Y015031D01*
X022689Y014913D02*
X020246Y014913D01*
X020295Y014794D02*
X022724Y014794D01*
X022747Y014676D02*
X020305Y014676D01*
X020302Y014557D02*
X022768Y014557D01*
X022789Y014439D02*
X020253Y014439D01*
X020174Y014320D02*
X022810Y014320D01*
X022831Y014202D02*
X020114Y014202D01*
X020198Y014083D02*
X022852Y014083D01*
X022873Y013965D02*
X020237Y013965D01*
X020245Y013846D02*
X022893Y013846D01*
X022914Y013728D02*
X020219Y013728D01*
X020157Y013609D02*
X022935Y013609D01*
X022949Y013491D02*
X020122Y013491D01*
X020232Y013372D02*
X022956Y013372D01*
X022963Y013254D02*
X020281Y013254D01*
X020305Y013135D02*
X022970Y013135D01*
X022977Y013017D02*
X020305Y013017D01*
X020267Y012898D02*
X022984Y012898D01*
X022991Y012780D02*
X020208Y012780D01*
X020164Y012661D02*
X022998Y012661D01*
X023004Y012543D02*
X020249Y012543D01*
X020298Y012424D02*
X023011Y012424D01*
X023018Y012306D02*
X020305Y012306D01*
X020299Y012187D02*
X023011Y012187D01*
X023005Y012069D02*
X020250Y012069D01*
X020166Y011950D02*
X022998Y011950D01*
X022991Y011832D02*
X020206Y011832D01*
X020267Y011713D02*
X022984Y011713D01*
X022977Y011595D02*
X020305Y011595D01*
X020305Y011476D02*
X022970Y011476D01*
X022963Y011358D02*
X020282Y011358D01*
X020233Y011239D02*
X022956Y011239D01*
X022949Y011121D02*
X020124Y011121D01*
X019900Y011002D02*
X022936Y011002D01*
X022915Y010884D02*
X017972Y010884D01*
X018091Y011002D02*
X019670Y011002D01*
X019446Y011121D02*
X018209Y011121D01*
X018328Y011239D02*
X019337Y011239D01*
X019288Y011358D02*
X018446Y011358D01*
X018565Y011476D02*
X019265Y011476D01*
X019265Y011595D02*
X018683Y011595D01*
X018802Y011713D02*
X019303Y011713D01*
X019364Y011832D02*
X018920Y011832D01*
X019039Y011950D02*
X019404Y011950D01*
X019320Y012069D02*
X019157Y012069D01*
X019785Y013092D02*
X017043Y010350D01*
X007200Y010350D01*
X007495Y010647D02*
X016943Y010647D01*
X017062Y010765D02*
X007291Y010765D01*
X007109Y010765D02*
X004170Y010765D01*
X004170Y010647D02*
X006905Y010647D01*
X006821Y010528D02*
X004170Y010528D01*
X004170Y010410D02*
X006782Y010410D01*
X006782Y010291D02*
X004170Y010291D01*
X004170Y010173D02*
X006821Y010173D01*
X006905Y010054D02*
X004170Y010054D01*
X004170Y009936D02*
X007108Y009936D01*
X007292Y009936D02*
X022747Y009936D01*
X022768Y010054D02*
X007495Y010054D01*
X007480Y010884D02*
X009570Y010884D01*
X010130Y010884D02*
X017180Y010884D01*
X017617Y010528D02*
X022852Y010528D01*
X022831Y010410D02*
X017498Y010410D01*
X017380Y010291D02*
X022810Y010291D01*
X022789Y010173D02*
X017261Y010173D01*
X017735Y010647D02*
X022873Y010647D01*
X022894Y010765D02*
X017854Y010765D01*
X019766Y013612D02*
X019766Y013861D01*
X019804Y013861D01*
X019804Y013612D01*
X019766Y013612D01*
X019766Y013728D02*
X019804Y013728D01*
X019804Y013846D02*
X019766Y013846D01*
X019766Y013898D02*
X019766Y014147D01*
X019804Y014147D01*
X019804Y013898D01*
X019766Y013898D01*
X019766Y013965D02*
X019804Y013965D01*
X019804Y014083D02*
X019766Y014083D01*
X022724Y009817D02*
X004170Y009817D01*
X004170Y009699D02*
X022689Y009699D01*
X022654Y009580D02*
X004170Y009580D01*
X004270Y009462D02*
X022618Y009462D01*
X022583Y009343D02*
X004389Y009343D01*
X004507Y009225D02*
X022547Y009225D01*
X022512Y009106D02*
X004626Y009106D01*
X004218Y008751D02*
X003970Y008751D01*
X003970Y008869D02*
X004099Y008869D01*
X003981Y008988D02*
X003970Y008988D01*
X003970Y008998D02*
X004371Y008597D01*
X004447Y008521D01*
X004546Y008480D01*
X008688Y008480D01*
X008800Y008368D01*
X003970Y008368D01*
X003970Y008998D01*
X003970Y008632D02*
X004336Y008632D01*
X004371Y008597D02*
X004371Y008597D01*
X004465Y008514D02*
X003970Y008514D01*
X003970Y008395D02*
X008773Y008395D01*
X009181Y008751D02*
X022405Y008751D01*
X022441Y008869D02*
X009063Y008869D01*
X008932Y008988D02*
X022476Y008988D01*
X022369Y008632D02*
X009300Y008632D01*
X009418Y008514D02*
X022317Y008514D01*
X022266Y008395D02*
X009503Y008395D01*
X011750Y009150D02*
X014750Y006150D01*
X014750Y004750D01*
X015300Y004200D01*
X015300Y003250D01*
X012250Y001750D02*
X012250Y008650D01*
X011750Y009150D01*
X011750Y006150D01*
X009850Y004250D01*
X006920Y010884D02*
X004170Y010884D01*
X004170Y011002D02*
X006808Y011002D01*
X006758Y011121D02*
X004170Y011121D01*
X004170Y011239D02*
X006743Y011239D01*
X006749Y011358D02*
X004170Y011358D01*
X004170Y011476D02*
X006798Y011476D01*
X008695Y012661D02*
X004170Y012661D01*
X004170Y012543D02*
X008776Y012543D01*
X008894Y012424D02*
X004170Y012424D01*
X004170Y012306D02*
X008982Y012306D01*
X008994Y012187D02*
X004170Y012187D01*
X004170Y012069D02*
X009043Y012069D01*
X009159Y011950D02*
X004170Y011950D01*
X004170Y011832D02*
X010787Y011832D01*
X011105Y011713D02*
X011142Y011713D01*
X011142Y011595D02*
X011105Y011595D01*
X011105Y011476D02*
X011142Y011476D01*
X011142Y011358D02*
X011105Y011358D01*
X011105Y011239D02*
X011142Y011239D01*
X011142Y011121D02*
X011105Y011121D01*
X008680Y012780D02*
X004170Y012780D01*
X004170Y012898D02*
X008680Y012898D01*
X008680Y013017D02*
X004170Y013017D01*
X004170Y013135D02*
X008680Y013135D01*
X008680Y013254D02*
X004170Y013254D01*
X004170Y013372D02*
X008680Y013372D01*
X008680Y013491D02*
X004170Y013491D01*
X004170Y013609D02*
X008659Y013609D01*
X008541Y013728D02*
X006903Y013728D01*
X007013Y013846D02*
X008422Y013846D01*
X008304Y013965D02*
X007013Y013965D01*
X007013Y014083D02*
X008185Y014083D01*
X007295Y015035D02*
X007013Y015035D01*
X007013Y015086D01*
X007282Y015086D01*
X007282Y015067D01*
X007295Y015035D01*
X007013Y016098D02*
X008656Y016098D01*
X010718Y016572D02*
X004722Y016572D01*
X004604Y016690D02*
X010727Y016690D01*
X010652Y016809D02*
X004485Y016809D01*
X004367Y016927D02*
X010604Y016927D01*
X010604Y017046D02*
X005983Y017046D01*
X006204Y017096D02*
X006204Y017096D01*
X006322Y017164D02*
X010617Y017164D01*
X010666Y017283D02*
X006527Y017283D01*
X006681Y017401D02*
X010760Y017401D01*
X011465Y017423D02*
X011465Y017423D01*
X005836Y016335D02*
X005387Y016335D01*
X005438Y016216D02*
X005786Y016216D01*
X005786Y016098D02*
X005438Y016098D01*
X005438Y015979D02*
X005786Y015979D01*
X005786Y015861D02*
X005438Y015861D01*
X005438Y015742D02*
X005786Y015742D01*
X005786Y015624D02*
X005438Y015624D01*
X005438Y015505D02*
X005786Y015505D01*
X005786Y015387D02*
X005438Y015387D01*
X005438Y015268D02*
X005786Y015268D01*
X005786Y015150D02*
X005438Y015150D01*
X005438Y015031D02*
X005786Y015031D01*
X005786Y014913D02*
X005438Y014913D01*
X005438Y014794D02*
X005786Y014794D01*
X005786Y014676D02*
X005438Y014676D01*
X005438Y014557D02*
X005786Y014557D01*
X005786Y014439D02*
X005438Y014439D01*
X005438Y014320D02*
X005786Y014320D01*
X005786Y014202D02*
X005408Y014202D01*
X005378Y014063D02*
X004838Y014063D01*
X004838Y013769D01*
X005239Y013769D01*
X005280Y013780D01*
X005316Y013801D01*
X005346Y013830D01*
X005367Y013867D01*
X005378Y013908D01*
X005378Y014063D01*
X005378Y013965D02*
X005786Y013965D01*
X005786Y014083D02*
X004838Y014083D01*
X004811Y014083D02*
X004170Y014083D01*
X004271Y014063D02*
X004271Y013908D01*
X004282Y013867D01*
X004303Y013830D01*
X004332Y013801D01*
X004369Y013780D01*
X004410Y013769D01*
X004811Y013769D01*
X004811Y014063D01*
X004271Y014063D01*
X004271Y013965D02*
X004170Y013965D01*
X004170Y013846D02*
X004294Y013846D01*
X004170Y013728D02*
X005896Y013728D01*
X005786Y013846D02*
X005355Y013846D01*
X004838Y013846D02*
X004811Y013846D01*
X004811Y013965D02*
X004838Y013965D01*
X004240Y014202D02*
X004233Y014202D01*
X003430Y014202D02*
X003183Y014202D01*
X003302Y014320D02*
X003430Y014320D01*
X003420Y014439D02*
X003444Y014439D01*
X003430Y014083D02*
X003065Y014083D01*
X002946Y013965D02*
X003430Y013965D01*
X003430Y013846D02*
X002828Y013846D01*
X002858Y013728D02*
X003430Y013728D01*
X003430Y013609D02*
X002907Y013609D01*
X002918Y013491D02*
X003430Y013491D01*
X003430Y013372D02*
X002900Y013372D01*
X002845Y013254D02*
X003430Y013254D01*
X003430Y013135D02*
X002711Y013135D01*
X002289Y013135D02*
X001639Y013135D01*
X001633Y013017D02*
X003430Y013017D01*
X003430Y012898D02*
X001626Y012898D01*
X001619Y012780D02*
X003430Y012780D01*
X003430Y012661D02*
X001612Y012661D01*
X001605Y012543D02*
X003430Y012543D01*
X003430Y012424D02*
X001598Y012424D01*
X001591Y012306D02*
X003430Y012306D01*
X003430Y012187D02*
X001598Y012187D01*
X001605Y012069D02*
X003430Y012069D01*
X003430Y011950D02*
X001612Y011950D01*
X001619Y011832D02*
X003430Y011832D01*
X003430Y011713D02*
X001626Y011713D01*
X001632Y011595D02*
X003430Y011595D01*
X003430Y011476D02*
X001639Y011476D01*
X001646Y011358D02*
X003430Y011358D01*
X003430Y011239D02*
X001653Y011239D01*
X001660Y011121D02*
X003430Y011121D01*
X003430Y011002D02*
X001674Y011002D01*
X001695Y010884D02*
X003430Y010884D01*
X003430Y010765D02*
X001716Y010765D01*
X001737Y010647D02*
X003430Y010647D01*
X003430Y010528D02*
X001758Y010528D01*
X001778Y010410D02*
X003430Y010410D01*
X003430Y010291D02*
X001799Y010291D01*
X001820Y010173D02*
X003430Y010173D01*
X003430Y010054D02*
X001841Y010054D01*
X001862Y009936D02*
X003430Y009936D01*
X003430Y009817D02*
X001885Y009817D01*
X001920Y009699D02*
X003430Y009699D01*
X003430Y009580D02*
X001956Y009580D01*
X001991Y009462D02*
X003430Y009462D01*
X003430Y009343D02*
X002027Y009343D01*
X002062Y009225D02*
X003430Y009225D01*
X003430Y009106D02*
X002098Y009106D01*
X002133Y008988D02*
X003430Y008988D01*
X003430Y008869D02*
X002169Y008869D01*
X002204Y008751D02*
X003430Y008751D01*
X003430Y008632D02*
X002241Y008632D01*
X002292Y008514D02*
X003430Y008514D01*
X003430Y008395D02*
X002343Y008395D01*
X002155Y013254D02*
X001646Y013254D01*
X001653Y013372D02*
X002100Y013372D01*
X002082Y013491D02*
X001660Y013491D01*
X001674Y013609D02*
X002093Y013609D01*
X002142Y013728D02*
X001695Y013728D01*
X001716Y013846D02*
X002230Y013846D01*
X002234Y013965D02*
X001737Y013965D01*
X001758Y014083D02*
X002301Y014083D01*
X002420Y014202D02*
X001779Y014202D01*
X001800Y014320D02*
X002538Y014320D01*
X002657Y014439D02*
X001820Y014439D01*
X001841Y014557D02*
X002775Y014557D01*
X002894Y014676D02*
X001862Y014676D01*
X001885Y014794D02*
X003012Y014794D01*
X003131Y014913D02*
X001921Y014913D01*
X001956Y015031D02*
X003249Y015031D01*
X003368Y015150D02*
X001992Y015150D01*
X002027Y015268D02*
X003350Y015268D01*
X003232Y015387D02*
X002063Y015387D01*
X002098Y015505D02*
X003113Y015505D01*
X002995Y015624D02*
X002134Y015624D01*
X002169Y015742D02*
X002672Y015742D01*
X002548Y015861D02*
X002205Y015861D01*
X002242Y015979D02*
X002498Y015979D01*
X002482Y016098D02*
X002293Y016098D01*
X002344Y016216D02*
X002496Y016216D01*
X002545Y016335D02*
X002395Y016335D01*
X002446Y016453D02*
X002662Y016453D01*
X002497Y016572D02*
X002929Y016572D01*
X002912Y016690D02*
X002548Y016690D01*
X002599Y016809D02*
X002921Y016809D01*
X002970Y016927D02*
X002650Y016927D01*
X002702Y017046D02*
X003076Y017046D01*
X002760Y017164D02*
X004896Y017164D01*
X004802Y017201D02*
X004802Y017201D01*
X004700Y017283D02*
X002829Y017283D01*
X002897Y017401D02*
X004551Y017401D01*
X005198Y017046D02*
X003624Y017046D01*
X003531Y016301D02*
X003437Y016262D01*
X003285Y016262D01*
X003318Y016183D01*
X003318Y016064D01*
X003756Y015626D01*
X003992Y015626D01*
X003936Y015682D01*
X003817Y015682D01*
X003663Y015746D01*
X003546Y015863D01*
X003482Y016017D01*
X003482Y016183D01*
X003531Y016301D01*
X003496Y016216D02*
X003304Y016216D01*
X003318Y016098D02*
X003482Y016098D01*
X003498Y015979D02*
X003403Y015979D01*
X003521Y015861D02*
X003548Y015861D01*
X003640Y015742D02*
X003672Y015742D01*
X005733Y016988D02*
X005733Y016988D01*
D14*
X003700Y006813D03*
X002500Y009550D03*
X002500Y011500D03*
X002500Y013500D03*
X002500Y014500D03*
X002900Y016100D03*
X003900Y016100D03*
X007700Y016950D03*
X008900Y015750D03*
X008350Y015250D03*
X007700Y015150D03*
X009400Y013100D03*
X009400Y012300D03*
X007200Y010350D03*
X010150Y007850D03*
X009250Y006813D03*
X009000Y005450D03*
X009850Y004250D03*
X012250Y001750D03*
X014750Y004750D03*
X015300Y003250D03*
X011750Y009150D03*
D15*
X009850Y011250D02*
X007200Y011250D01*
X004824Y016045D02*
X004169Y016700D01*
X003350Y016700D01*
D16*
X003350Y016700D03*
D17*
X007200Y011250D03*
X009850Y011250D03*
D18*
X009400Y012300D02*
X008950Y012750D01*
X008950Y013700D01*
X008278Y014372D01*
X006399Y014372D01*
X006399Y014569D02*
X008531Y014569D01*
X009400Y013700D01*
X009400Y013100D01*
X008663Y014765D02*
X006399Y014765D01*
X006399Y015356D02*
X007494Y015356D01*
X007700Y015150D01*
X008047Y015553D02*
X008350Y015250D01*
X008047Y015553D02*
X006399Y015553D01*
X006399Y015750D02*
X008900Y015750D01*
X008900Y015750D01*
X008663Y014765D02*
X011124Y012305D01*
X008800Y008750D02*
X009250Y008300D01*
X009250Y006813D01*
X010150Y006600D02*
X010150Y007850D01*
X010150Y006600D02*
X009000Y005450D01*
X008800Y008750D02*
X004600Y008750D01*
X003900Y009450D01*
X003900Y014250D01*
X004219Y014569D01*
X004824Y014569D01*
X004824Y014765D02*
X004115Y014765D01*
X003700Y014350D01*
X003700Y006813D01*
X002500Y013500D02*
X002500Y013900D01*
X003759Y015159D01*
X004824Y015159D01*
X004824Y015356D02*
X003644Y015356D01*
X002900Y016100D01*
X003900Y016100D02*
X004447Y015553D01*
X004824Y015553D01*
M02*
