G75*
G70*
%OFA0B0*%
%FSLAX24Y24*%
%IPPOS*%
%LPD*%
%AMOC8*
5,1,8,0,0,1.08239X$1,22.5*
%
%ADD10R,0.0433X0.0394*%
%ADD11R,0.0197X0.0315*%
%ADD12R,0.0138X0.0138*%
%ADD13R,0.0394X0.0433*%
%ADD14R,0.0560X0.0280*%
%ADD15R,0.0280X0.0560*%
%ADD16R,0.0276X0.0591*%
%ADD17R,0.0591X0.0276*%
%ADD18R,0.0394X0.1496*%
%ADD19R,0.0295X0.0787*%
%ADD20C,0.0600*%
%ADD21C,0.0396*%
%ADD22C,0.0120*%
%ADD23C,0.0100*%
%ADD24C,0.0160*%
%ADD25C,0.0436*%
%ADD26C,0.0475*%
D10*
X013151Y007187D03*
X013820Y007187D03*
D11*
X003988Y009549D03*
X003299Y009549D03*
X003299Y011517D03*
X003988Y011517D03*
X003988Y013486D03*
X003299Y013486D03*
X003299Y015454D03*
X003988Y015454D03*
D12*
X003840Y015454D03*
X003446Y015454D03*
X003446Y013486D03*
X003840Y013486D03*
X003840Y011517D03*
X003446Y011517D03*
X003446Y009549D03*
X003840Y009549D03*
D13*
X005277Y009549D03*
X005946Y009549D03*
X005946Y011517D03*
X005277Y011517D03*
X005277Y013486D03*
X005946Y013486D03*
X005946Y015454D03*
X005277Y015454D03*
X009155Y018663D03*
X009155Y019332D03*
D14*
X010592Y006025D03*
X010592Y005631D03*
X010592Y005238D03*
X010592Y004844D03*
X010592Y004450D03*
X010592Y004057D03*
X010592Y003663D03*
X010592Y003269D03*
X010592Y002876D03*
X014057Y002876D03*
X014057Y003269D03*
X014057Y003663D03*
X014057Y004057D03*
X014057Y004450D03*
X014057Y004844D03*
X014057Y005238D03*
X014057Y005631D03*
X014057Y006025D03*
D15*
X013033Y006183D03*
X012639Y006183D03*
X012246Y006183D03*
X011852Y006183D03*
X011458Y006183D03*
X011458Y002718D03*
X011852Y002718D03*
X012246Y002718D03*
X012639Y002718D03*
X013033Y002718D03*
D16*
X013033Y002718D03*
X012639Y002718D03*
X012246Y002718D03*
X011852Y002718D03*
X011458Y002718D03*
X011458Y006183D03*
X011852Y006183D03*
X012246Y006183D03*
X012639Y006183D03*
X013033Y006183D03*
D17*
X014057Y006025D03*
X014057Y005631D03*
X014057Y005238D03*
X014057Y004844D03*
X014057Y004450D03*
X014057Y004057D03*
X014057Y003663D03*
X014057Y003269D03*
X014057Y002876D03*
X010592Y002876D03*
X010592Y003269D03*
X010592Y003663D03*
X010592Y004057D03*
X010592Y004450D03*
X010592Y004844D03*
X010592Y005238D03*
X010592Y005631D03*
X010592Y006025D03*
D18*
X008368Y006832D03*
X004667Y006832D03*
D19*
X016478Y007187D03*
X019155Y007187D03*
D20*
X019785Y011517D03*
X019785Y012305D03*
X019785Y013092D03*
X019785Y013880D03*
X019785Y014667D03*
X019785Y015454D03*
X019785Y016242D03*
X019785Y017029D03*
X019785Y017817D03*
X019785Y018604D03*
X011124Y018604D03*
X011124Y017817D03*
X011124Y017029D03*
X011124Y016242D03*
X011124Y015454D03*
X011124Y014667D03*
X011124Y013880D03*
X011124Y013092D03*
X011124Y012305D03*
X011124Y011517D03*
D21*
X003700Y006813D03*
X002500Y009550D03*
X002500Y011500D03*
X002500Y013500D03*
X002500Y014500D03*
X002900Y016100D03*
X003900Y016100D03*
X007700Y016950D03*
X008900Y015750D03*
X008350Y015250D03*
X007700Y015150D03*
X009400Y013100D03*
X009400Y012300D03*
X007200Y010350D03*
X010150Y007850D03*
X009250Y006813D03*
X009000Y005450D03*
X009850Y004250D03*
X012250Y001750D03*
X014750Y004750D03*
X015300Y003250D03*
X011750Y009150D03*
D22*
X013151Y007749D01*
X013151Y007187D01*
X013033Y007187D01*
X013033Y006183D01*
X014057Y005238D02*
X014562Y005238D01*
X014750Y005050D01*
X014750Y004750D01*
X014450Y004450D01*
X014057Y004450D01*
X014057Y004844D02*
X014656Y004844D01*
X014750Y004750D01*
X014657Y004057D02*
X014057Y004057D01*
X014057Y003663D02*
X014887Y003663D01*
X015300Y003250D01*
X014926Y002876D01*
X014057Y002876D01*
X014057Y003269D02*
X015281Y003269D01*
X015300Y003250D01*
X014657Y004057D02*
X015700Y005100D01*
X015700Y006409D01*
X016478Y007187D01*
X013850Y009200D02*
X013820Y009170D01*
X012928Y008368D02*
X012168Y009128D01*
X012168Y009233D01*
X012104Y009387D01*
X011987Y009504D01*
X011833Y009568D01*
X011667Y009568D01*
X011513Y009504D01*
X011396Y009387D01*
X011332Y009233D01*
X011332Y009128D01*
X011221Y009017D01*
X011178Y008914D01*
X011178Y008368D01*
X010862Y008368D01*
X010862Y008512D01*
X010821Y008611D01*
X010745Y008687D01*
X009170Y010262D01*
X009170Y011943D01*
X009317Y011882D01*
X009483Y011882D01*
X009637Y011946D01*
X009754Y012063D01*
X009818Y012217D01*
X009818Y012336D01*
X010003Y012521D01*
X010079Y012597D01*
X010120Y012696D01*
X010120Y015644D01*
X010607Y016131D01*
X010683Y015947D01*
X010782Y015848D01*
X010683Y015749D01*
X010604Y015558D01*
X010604Y015351D01*
X010683Y015160D01*
X010782Y015061D01*
X010683Y014961D01*
X010604Y014770D01*
X010604Y014563D01*
X010683Y014372D01*
X010782Y014273D01*
X010683Y014174D01*
X010604Y013983D01*
X010604Y013776D01*
X010683Y013585D01*
X010782Y013486D01*
X010683Y013387D01*
X010604Y013196D01*
X010604Y012989D01*
X010683Y012798D01*
X010782Y012698D01*
X010683Y012599D01*
X010604Y012408D01*
X010604Y012201D01*
X010683Y012010D01*
X010782Y011911D01*
X010683Y011812D01*
X010604Y011621D01*
X010604Y011414D01*
X010683Y011223D01*
X010829Y011076D01*
X011020Y010997D01*
X011227Y010997D01*
X011418Y011076D01*
X011564Y011223D01*
X011644Y011414D01*
X011644Y011621D01*
X011564Y011812D01*
X011465Y011911D01*
X011564Y012010D01*
X011644Y012201D01*
X011644Y012408D01*
X011564Y012599D01*
X011465Y012698D01*
X011564Y012798D01*
X011644Y012989D01*
X011644Y013196D01*
X011564Y013387D01*
X011465Y013486D01*
X011564Y013585D01*
X011644Y013776D01*
X011644Y013983D01*
X011564Y014174D01*
X011465Y014273D01*
X011564Y014372D01*
X011644Y014563D01*
X011644Y014770D01*
X011564Y014961D01*
X011465Y015061D01*
X011564Y015160D01*
X011644Y015351D01*
X011644Y015558D01*
X011564Y015749D01*
X011465Y015848D01*
X011564Y015947D01*
X011644Y016138D01*
X011644Y016345D01*
X011564Y016536D01*
X011465Y016635D01*
X011564Y016735D01*
X011644Y016926D01*
X011644Y017133D01*
X011564Y017324D01*
X011465Y017423D01*
X019443Y017423D01*
X019344Y017324D01*
X019265Y017133D01*
X019265Y016926D01*
X019344Y016735D01*
X019443Y016635D01*
X019344Y016536D01*
X019265Y016345D01*
X019265Y016138D01*
X019344Y015947D01*
X019443Y015848D01*
X019344Y015749D01*
X019265Y015558D01*
X019265Y015351D01*
X019344Y015160D01*
X019443Y015061D01*
X019344Y014961D01*
X019265Y014770D01*
X019265Y014563D01*
X019344Y014372D01*
X019443Y014273D01*
X019344Y014174D01*
X019265Y013983D01*
X019265Y013776D01*
X019344Y013585D01*
X019443Y013486D01*
X019344Y013387D01*
X019265Y013196D01*
X019265Y012989D01*
X019344Y012798D01*
X019443Y012698D01*
X019344Y012599D01*
X019265Y012408D01*
X019265Y012201D01*
X019344Y012010D01*
X019443Y011911D01*
X019344Y011812D01*
X019265Y011621D01*
X019265Y011414D01*
X019344Y011223D01*
X019490Y011076D01*
X019682Y010997D01*
X019888Y010997D01*
X020080Y011076D01*
X020226Y011223D01*
X020305Y011414D01*
X020305Y011621D01*
X020226Y011812D01*
X020127Y011911D01*
X020226Y012010D01*
X020305Y012201D01*
X020305Y012408D01*
X020226Y012599D01*
X020127Y012698D01*
X020226Y012798D01*
X020305Y012989D01*
X020305Y013196D01*
X020226Y013387D01*
X020127Y013486D01*
X020226Y013585D01*
X020305Y013776D01*
X020305Y013983D01*
X020226Y014174D01*
X020127Y014273D01*
X020226Y014372D01*
X020305Y014563D01*
X020305Y014770D01*
X020226Y014961D01*
X020127Y015061D01*
X020226Y015160D01*
X020305Y015351D01*
X020305Y015558D01*
X020226Y015749D01*
X020127Y015848D01*
X020226Y015947D01*
X020305Y016138D01*
X020305Y016345D01*
X020226Y016536D01*
X020127Y016635D01*
X020226Y016735D01*
X020305Y016926D01*
X020305Y017133D01*
X020226Y017324D01*
X020127Y017423D01*
X021700Y017423D01*
X021879Y017113D01*
X022372Y015969D01*
X022730Y014775D01*
X022946Y013549D01*
X023018Y012305D01*
X022946Y011061D01*
X022730Y009834D01*
X022372Y008640D01*
X022255Y008368D01*
X012928Y008368D01*
X012901Y008395D02*
X022266Y008395D01*
X022317Y008514D02*
X012782Y008514D01*
X012664Y008632D02*
X022369Y008632D01*
X022405Y008751D02*
X012545Y008751D01*
X012427Y008869D02*
X022441Y008869D01*
X022476Y008988D02*
X012308Y008988D01*
X012190Y009106D02*
X022512Y009106D01*
X022547Y009225D02*
X012168Y009225D01*
X012123Y009343D02*
X022583Y009343D01*
X022618Y009462D02*
X012030Y009462D01*
X011750Y009150D02*
X011458Y008858D01*
X011458Y006183D01*
X010592Y004450D02*
X010050Y004450D01*
X009850Y004250D01*
X010043Y004057D01*
X010592Y004057D01*
X011458Y002718D02*
X011458Y002042D01*
X011750Y001750D01*
X012250Y001750D01*
X012700Y001750D01*
X013033Y002083D01*
X013033Y002718D01*
X012136Y008368D02*
X011738Y008368D01*
X011738Y008732D01*
X011772Y008732D01*
X012136Y008368D01*
X012109Y008395D02*
X011738Y008395D01*
X011738Y008514D02*
X011991Y008514D01*
X011872Y008632D02*
X011738Y008632D01*
X011178Y008632D02*
X010800Y008632D01*
X010745Y008687D02*
X010745Y008687D01*
X010681Y008751D02*
X011178Y008751D01*
X011178Y008869D02*
X010563Y008869D01*
X010444Y008988D02*
X011209Y008988D01*
X011310Y009106D02*
X010326Y009106D01*
X010207Y009225D02*
X011332Y009225D01*
X011377Y009343D02*
X010089Y009343D01*
X009970Y009462D02*
X011470Y009462D01*
X011178Y008514D02*
X010861Y008514D01*
X010862Y008395D02*
X011178Y008395D01*
X009852Y009580D02*
X022654Y009580D01*
X022689Y009699D02*
X009733Y009699D01*
X009615Y009817D02*
X022724Y009817D01*
X022747Y009936D02*
X009496Y009936D01*
X009378Y010054D02*
X022768Y010054D01*
X022789Y010173D02*
X009259Y010173D01*
X009170Y010291D02*
X022810Y010291D01*
X022831Y010410D02*
X009170Y010410D01*
X009170Y010528D02*
X022852Y010528D01*
X022873Y010647D02*
X009170Y010647D01*
X009170Y010765D02*
X022894Y010765D01*
X022915Y010884D02*
X009170Y010884D01*
X009170Y011002D02*
X011009Y011002D01*
X011238Y011002D02*
X019670Y011002D01*
X019900Y011002D02*
X022936Y011002D01*
X022949Y011121D02*
X020124Y011121D01*
X020233Y011239D02*
X022956Y011239D01*
X022963Y011358D02*
X020282Y011358D01*
X020305Y011476D02*
X022970Y011476D01*
X022977Y011595D02*
X020305Y011595D01*
X020267Y011713D02*
X022984Y011713D01*
X022991Y011832D02*
X020206Y011832D01*
X020166Y011950D02*
X022998Y011950D01*
X023005Y012069D02*
X020250Y012069D01*
X020299Y012187D02*
X023011Y012187D01*
X023018Y012306D02*
X020305Y012306D01*
X020298Y012424D02*
X023011Y012424D01*
X023004Y012543D02*
X020249Y012543D01*
X020164Y012661D02*
X022998Y012661D01*
X022991Y012780D02*
X020208Y012780D01*
X020267Y012898D02*
X022984Y012898D01*
X022977Y013017D02*
X020305Y013017D01*
X020305Y013135D02*
X022970Y013135D01*
X022963Y013254D02*
X020281Y013254D01*
X020232Y013372D02*
X022956Y013372D01*
X022949Y013491D02*
X020131Y013491D01*
X020236Y013609D02*
X022935Y013609D01*
X022914Y013728D02*
X020285Y013728D01*
X020305Y013846D02*
X022893Y013846D01*
X022873Y013965D02*
X020305Y013965D01*
X020264Y014083D02*
X022852Y014083D01*
X022831Y014202D02*
X020198Y014202D01*
X020174Y014320D02*
X022810Y014320D01*
X022789Y014439D02*
X020253Y014439D01*
X020302Y014557D02*
X022768Y014557D01*
X022747Y014676D02*
X020305Y014676D01*
X020295Y014794D02*
X022724Y014794D01*
X022689Y014913D02*
X020246Y014913D01*
X020156Y015031D02*
X022653Y015031D01*
X022618Y015150D02*
X020216Y015150D01*
X020271Y015268D02*
X022582Y015268D01*
X022547Y015387D02*
X020305Y015387D01*
X020305Y015505D02*
X022511Y015505D01*
X022476Y015624D02*
X020278Y015624D01*
X020229Y015742D02*
X022440Y015742D01*
X022405Y015861D02*
X020139Y015861D01*
X020239Y015979D02*
X022368Y015979D01*
X022317Y016098D02*
X020288Y016098D01*
X020305Y016216D02*
X022266Y016216D01*
X022215Y016335D02*
X020305Y016335D01*
X020260Y016453D02*
X022163Y016453D01*
X022112Y016572D02*
X020191Y016572D01*
X020181Y016690D02*
X022061Y016690D01*
X022010Y016809D02*
X020257Y016809D01*
X020305Y016927D02*
X021959Y016927D01*
X021908Y017046D02*
X020305Y017046D01*
X020292Y017164D02*
X021849Y017164D01*
X021781Y017283D02*
X020243Y017283D01*
X020149Y017401D02*
X021712Y017401D01*
X020127Y017423D02*
X020127Y017423D01*
X019443Y017423D02*
X019443Y017423D01*
X019422Y017401D02*
X011487Y017401D01*
X011465Y017423D02*
X011465Y017423D01*
X011582Y017283D02*
X019327Y017283D01*
X019278Y017164D02*
X011631Y017164D01*
X011644Y017046D02*
X019265Y017046D01*
X019265Y016927D02*
X011644Y016927D01*
X011595Y016809D02*
X019314Y016809D01*
X019389Y016690D02*
X011520Y016690D01*
X011529Y016572D02*
X019379Y016572D01*
X019310Y016453D02*
X011599Y016453D01*
X011644Y016335D02*
X019265Y016335D01*
X019265Y016216D02*
X011644Y016216D01*
X011627Y016098D02*
X019282Y016098D01*
X019331Y015979D02*
X011578Y015979D01*
X011478Y015861D02*
X019431Y015861D01*
X019341Y015742D02*
X011567Y015742D01*
X011616Y015624D02*
X019292Y015624D01*
X019265Y015505D02*
X011644Y015505D01*
X011644Y015387D02*
X019265Y015387D01*
X019299Y015268D02*
X011609Y015268D01*
X011554Y015150D02*
X019354Y015150D01*
X019414Y015031D02*
X011495Y015031D01*
X011585Y014913D02*
X019324Y014913D01*
X019275Y014794D02*
X011634Y014794D01*
X011644Y014676D02*
X019265Y014676D01*
X019268Y014557D02*
X011641Y014557D01*
X011592Y014439D02*
X019317Y014439D01*
X019397Y014320D02*
X011512Y014320D01*
X011537Y014202D02*
X019372Y014202D01*
X019306Y014083D02*
X011602Y014083D01*
X011644Y013965D02*
X019265Y013965D01*
X019265Y013846D02*
X011644Y013846D01*
X011624Y013728D02*
X019285Y013728D01*
X019334Y013609D02*
X011574Y013609D01*
X011470Y013491D02*
X019439Y013491D01*
X019338Y013372D02*
X011571Y013372D01*
X011620Y013254D02*
X019289Y013254D01*
X019265Y013135D02*
X011644Y013135D01*
X011644Y013017D02*
X019265Y013017D01*
X019303Y012898D02*
X011606Y012898D01*
X011546Y012780D02*
X019362Y012780D01*
X019406Y012661D02*
X011503Y012661D01*
X011588Y012543D02*
X019321Y012543D01*
X019272Y012424D02*
X011637Y012424D01*
X011644Y012306D02*
X019265Y012306D01*
X019271Y012187D02*
X011638Y012187D01*
X011589Y012069D02*
X019320Y012069D01*
X019404Y011950D02*
X011504Y011950D01*
X011545Y011832D02*
X019364Y011832D01*
X019303Y011713D02*
X011605Y011713D01*
X011644Y011595D02*
X019265Y011595D01*
X019265Y011476D02*
X011644Y011476D01*
X011620Y011358D02*
X019288Y011358D01*
X019337Y011239D02*
X011571Y011239D01*
X011462Y011121D02*
X019446Y011121D01*
X010785Y011121D02*
X009170Y011121D01*
X009170Y011239D02*
X010676Y011239D01*
X010627Y011358D02*
X009170Y011358D01*
X009170Y011476D02*
X010604Y011476D01*
X010604Y011595D02*
X009170Y011595D01*
X009170Y011713D02*
X010642Y011713D01*
X010702Y011832D02*
X009170Y011832D01*
X009641Y011950D02*
X010743Y011950D01*
X010659Y012069D02*
X009757Y012069D01*
X009806Y012187D02*
X010610Y012187D01*
X010604Y012306D02*
X009818Y012306D01*
X009906Y012424D02*
X010610Y012424D01*
X010659Y012543D02*
X010024Y012543D01*
X010105Y012661D02*
X010745Y012661D01*
X010701Y012780D02*
X010120Y012780D01*
X010120Y012898D02*
X010641Y012898D01*
X010604Y013017D02*
X010120Y013017D01*
X010120Y013135D02*
X010604Y013135D01*
X010628Y013254D02*
X010120Y013254D01*
X010120Y013372D02*
X010677Y013372D01*
X010777Y013491D02*
X010120Y013491D01*
X010120Y013609D02*
X010673Y013609D01*
X010624Y013728D02*
X010120Y013728D01*
X010120Y013846D02*
X010604Y013846D01*
X010604Y013965D02*
X010120Y013965D01*
X010120Y014083D02*
X010645Y014083D01*
X010710Y014202D02*
X010120Y014202D01*
X010120Y014320D02*
X010735Y014320D01*
X010655Y014439D02*
X010120Y014439D01*
X010120Y014557D02*
X010606Y014557D01*
X010604Y014676D02*
X010120Y014676D01*
X010120Y014794D02*
X010613Y014794D01*
X010663Y014913D02*
X010120Y014913D01*
X010120Y015031D02*
X010752Y015031D01*
X010693Y015150D02*
X010120Y015150D01*
X010120Y015268D02*
X010638Y015268D01*
X010604Y015387D02*
X010120Y015387D01*
X010120Y015505D02*
X010604Y015505D01*
X010631Y015624D02*
X010120Y015624D01*
X010218Y015742D02*
X010680Y015742D01*
X010769Y015861D02*
X010337Y015861D01*
X010455Y015979D02*
X010670Y015979D01*
X010621Y016098D02*
X010574Y016098D01*
X010166Y016453D02*
X010142Y016453D01*
X010047Y016335D02*
X010023Y016335D01*
X009929Y016216D02*
X009905Y016216D01*
X009810Y016098D02*
X009786Y016098D01*
X009692Y015979D02*
X009670Y015979D01*
X009670Y015981D02*
X010607Y016918D01*
X010614Y016901D01*
X009670Y015957D01*
X009670Y015981D01*
X009260Y016335D02*
X006597Y016335D01*
X006479Y016453D02*
X009378Y016453D01*
X009497Y016572D02*
X007879Y016572D01*
X007937Y016596D02*
X008054Y016713D01*
X008118Y016867D01*
X008118Y017033D01*
X008054Y017187D01*
X007980Y017261D01*
X007980Y017423D01*
X010348Y017423D01*
X009171Y016246D01*
X009130Y016147D01*
X009130Y016107D01*
X008983Y016168D01*
X008817Y016168D01*
X008663Y016104D01*
X008579Y016020D01*
X007496Y016020D01*
X007397Y015979D01*
X007321Y015903D01*
X006970Y015552D01*
X006970Y015904D01*
X006929Y016003D01*
X006853Y016079D01*
X006253Y016679D01*
X006154Y016720D01*
X004196Y016720D01*
X004097Y016679D01*
X004021Y016603D01*
X003936Y016518D01*
X003817Y016518D01*
X003663Y016454D01*
X003546Y016337D01*
X003482Y016183D01*
X003482Y016020D01*
X003362Y016020D01*
X003318Y016064D01*
X003318Y016183D01*
X003254Y016337D01*
X003137Y016454D01*
X002983Y016518D01*
X002817Y016518D01*
X002663Y016454D01*
X002546Y016337D01*
X002482Y016183D01*
X002482Y016017D01*
X002546Y015863D01*
X002663Y015746D01*
X002817Y015682D01*
X002936Y015682D01*
X002980Y015638D01*
X002980Y015370D01*
X002528Y014918D01*
X002417Y014918D01*
X002263Y014854D01*
X002146Y014737D01*
X002082Y014583D01*
X002082Y014417D01*
X002146Y014263D01*
X002263Y014146D01*
X002417Y014082D01*
X002583Y014082D01*
X002737Y014146D01*
X002854Y014263D01*
X002918Y014417D01*
X002918Y014544D01*
X003451Y015077D01*
X003488Y015077D01*
X003577Y015165D01*
X003606Y015165D01*
X003643Y015202D01*
X003680Y015165D01*
X003710Y015165D01*
X003798Y015077D01*
X004177Y015077D01*
X004285Y015184D01*
X004860Y015184D01*
X004860Y015147D01*
X004989Y015018D01*
X005565Y015018D01*
X005612Y015064D01*
X005658Y015018D01*
X006234Y015018D01*
X006363Y015147D01*
X006363Y015762D01*
X006234Y015891D01*
X005892Y015891D01*
X005630Y016153D01*
X005603Y016180D01*
X005988Y016180D01*
X006430Y015738D01*
X006430Y014412D01*
X005941Y013922D01*
X005658Y013922D01*
X005612Y013876D01*
X005565Y013922D01*
X004989Y013922D01*
X004860Y013793D01*
X004860Y013756D01*
X004285Y013756D01*
X004177Y013863D01*
X003798Y013863D01*
X003710Y013775D01*
X003680Y013775D01*
X003643Y013738D01*
X003606Y013775D01*
X003577Y013775D01*
X003488Y013863D01*
X003109Y013863D01*
X003016Y013770D01*
X002821Y013770D01*
X002737Y013854D01*
X002583Y013918D01*
X002417Y013918D01*
X002263Y013854D01*
X002146Y013737D01*
X002082Y013583D01*
X002082Y013417D01*
X002146Y013263D01*
X002263Y013146D01*
X002417Y013082D01*
X002583Y013082D01*
X002737Y013146D01*
X002821Y013230D01*
X002988Y013230D01*
X003109Y013108D01*
X003488Y013108D01*
X003577Y013197D01*
X003606Y013197D01*
X003643Y013234D01*
X003680Y013197D01*
X003710Y013197D01*
X003798Y013108D01*
X004177Y013108D01*
X004285Y013216D01*
X004860Y013216D01*
X004860Y013178D01*
X004989Y013049D01*
X005565Y013049D01*
X005612Y013096D01*
X005658Y013049D01*
X006234Y013049D01*
X006363Y013178D01*
X006363Y013581D01*
X006830Y014048D01*
X006830Y012783D01*
X006001Y011954D01*
X005658Y011954D01*
X005612Y011907D01*
X005565Y011954D01*
X004989Y011954D01*
X004860Y011825D01*
X004860Y011787D01*
X004285Y011787D01*
X004177Y011895D01*
X003798Y011895D01*
X003710Y011806D01*
X003680Y011806D01*
X003643Y011769D01*
X003606Y011806D01*
X003577Y011806D01*
X003488Y011895D01*
X003109Y011895D01*
X002984Y011770D01*
X002821Y011770D01*
X002737Y011854D01*
X002583Y011918D01*
X002417Y011918D01*
X002263Y011854D01*
X002146Y011737D01*
X002082Y011583D01*
X002082Y011417D01*
X002146Y011263D01*
X002263Y011146D01*
X002417Y011082D01*
X002583Y011082D01*
X002737Y011146D01*
X002821Y011230D01*
X003019Y011230D01*
X003109Y011140D01*
X003488Y011140D01*
X003577Y011228D01*
X003606Y011228D01*
X003643Y011265D01*
X003680Y011228D01*
X003710Y011228D01*
X003798Y011140D01*
X004177Y011140D01*
X004285Y011247D01*
X004860Y011247D01*
X004860Y011210D01*
X004989Y011081D01*
X005565Y011081D01*
X005612Y011127D01*
X005658Y011081D01*
X006234Y011081D01*
X006363Y011210D01*
X006363Y011552D01*
X007253Y012442D01*
X007329Y012518D01*
X007370Y012617D01*
X007370Y014889D01*
X007463Y014796D01*
X007617Y014732D01*
X007736Y014732D01*
X008130Y014338D01*
X008130Y009796D01*
X008171Y009697D01*
X009430Y008438D01*
X009430Y008368D01*
X002355Y008368D01*
X002237Y008640D01*
X001880Y009834D01*
X001664Y011061D01*
X001591Y012305D01*
X001664Y013548D01*
X001880Y014775D01*
X002237Y015969D01*
X002731Y017113D01*
X002910Y017423D01*
X004524Y017423D01*
X004802Y017201D01*
X005251Y017025D01*
X005251Y017025D01*
X005733Y016988D01*
X006204Y017096D01*
X006622Y017337D01*
X006622Y017337D01*
X006701Y017423D01*
X007420Y017423D01*
X007420Y017261D01*
X007346Y017187D01*
X007282Y017033D01*
X007282Y016867D01*
X007346Y016713D01*
X007463Y016596D01*
X007617Y016532D01*
X007783Y016532D01*
X007937Y016596D01*
X008031Y016690D02*
X009615Y016690D01*
X009734Y016809D02*
X008094Y016809D01*
X008118Y016927D02*
X009852Y016927D01*
X009971Y017046D02*
X008113Y017046D01*
X008064Y017164D02*
X010089Y017164D01*
X010208Y017283D02*
X007980Y017283D01*
X007980Y017401D02*
X010326Y017401D01*
X010497Y016809D02*
X010521Y016809D01*
X010403Y016690D02*
X010379Y016690D01*
X010284Y016572D02*
X010260Y016572D01*
X009159Y016216D02*
X006716Y016216D01*
X006834Y016098D02*
X008656Y016098D01*
X008250Y016350D02*
X009155Y017255D01*
X009155Y018663D01*
X009155Y018655D01*
X009155Y019332D02*
X008182Y019332D01*
X007700Y018850D01*
X007700Y016950D01*
X007521Y016572D02*
X006360Y016572D01*
X006226Y016690D02*
X007369Y016690D01*
X007306Y016809D02*
X002599Y016809D01*
X002650Y016927D02*
X007282Y016927D01*
X007287Y017046D02*
X005983Y017046D01*
X005733Y016988D02*
X005733Y016988D01*
X005198Y017046D02*
X002702Y017046D01*
X002760Y017164D02*
X004896Y017164D01*
X004802Y017201D02*
X004802Y017201D01*
X004700Y017283D02*
X002829Y017283D01*
X002897Y017401D02*
X004551Y017401D01*
X004124Y016690D02*
X002548Y016690D01*
X002497Y016572D02*
X003990Y016572D01*
X003662Y016453D02*
X003138Y016453D01*
X003255Y016335D02*
X003545Y016335D01*
X003496Y016216D02*
X003304Y016216D01*
X003318Y016098D02*
X003482Y016098D01*
X003350Y016700D02*
X006900Y016700D01*
X007250Y016350D01*
X008250Y016350D01*
X007397Y015979D02*
X006939Y015979D01*
X006970Y015861D02*
X007279Y015861D01*
X007160Y015742D02*
X006970Y015742D01*
X006970Y015624D02*
X007042Y015624D01*
X006430Y015624D02*
X006363Y015624D01*
X006363Y015742D02*
X006426Y015742D01*
X006308Y015861D02*
X006265Y015861D01*
X006189Y015979D02*
X005804Y015979D01*
X005685Y016098D02*
X006071Y016098D01*
X006363Y015505D02*
X006430Y015505D01*
X006430Y015387D02*
X006363Y015387D01*
X006363Y015268D02*
X006430Y015268D01*
X006430Y015150D02*
X006363Y015150D01*
X006430Y015031D02*
X006248Y015031D01*
X006430Y014913D02*
X003286Y014913D01*
X003168Y014794D02*
X006430Y014794D01*
X006430Y014676D02*
X003049Y014676D01*
X002931Y014557D02*
X006430Y014557D01*
X006430Y014439D02*
X002918Y014439D01*
X002878Y014320D02*
X006338Y014320D01*
X006220Y014202D02*
X002793Y014202D01*
X002586Y014083D02*
X006101Y014083D01*
X005983Y013965D02*
X001737Y013965D01*
X001758Y014083D02*
X002414Y014083D01*
X002207Y014202D02*
X001779Y014202D01*
X001800Y014320D02*
X002122Y014320D01*
X002082Y014439D02*
X001820Y014439D01*
X001841Y014557D02*
X002082Y014557D01*
X002120Y014676D02*
X001862Y014676D01*
X001885Y014794D02*
X002203Y014794D01*
X002403Y014913D02*
X001921Y014913D01*
X001956Y015031D02*
X002641Y015031D01*
X002760Y015150D02*
X001992Y015150D01*
X002027Y015268D02*
X002878Y015268D01*
X002980Y015387D02*
X002063Y015387D01*
X002098Y015505D02*
X002980Y015505D01*
X002980Y015624D02*
X002134Y015624D01*
X002169Y015742D02*
X002672Y015742D01*
X002548Y015861D02*
X002205Y015861D01*
X002242Y015979D02*
X002498Y015979D01*
X002482Y016098D02*
X002293Y016098D01*
X002344Y016216D02*
X002496Y016216D01*
X002545Y016335D02*
X002395Y016335D01*
X002446Y016453D02*
X002662Y016453D01*
X003561Y015150D02*
X003726Y015150D01*
X003405Y015031D02*
X004976Y015031D01*
X004860Y015150D02*
X004250Y015150D01*
X004806Y015724D02*
X004812Y015730D01*
X004860Y015730D01*
X004860Y015724D01*
X004806Y015724D01*
X004416Y016098D02*
X004318Y016098D01*
X004318Y016136D02*
X004318Y016020D01*
X004338Y016020D01*
X004498Y016180D01*
X004362Y016180D01*
X004318Y016136D01*
X005578Y015031D02*
X005645Y015031D01*
X004913Y013846D02*
X004195Y013846D01*
X003781Y013846D02*
X003506Y013846D01*
X003092Y013846D02*
X002745Y013846D01*
X002255Y013846D02*
X001716Y013846D01*
X001695Y013728D02*
X002142Y013728D01*
X002093Y013609D02*
X001674Y013609D01*
X001660Y013491D02*
X002082Y013491D01*
X002100Y013372D02*
X001653Y013372D01*
X001646Y013254D02*
X002155Y013254D01*
X002289Y013135D02*
X001639Y013135D01*
X001633Y013017D02*
X006830Y013017D01*
X006830Y013135D02*
X006320Y013135D01*
X006363Y013254D02*
X006830Y013254D01*
X006830Y013372D02*
X006363Y013372D01*
X006363Y013491D02*
X006830Y013491D01*
X006830Y013609D02*
X006391Y013609D01*
X006509Y013728D02*
X006830Y013728D01*
X006830Y013846D02*
X006628Y013846D01*
X006746Y013965D02*
X006830Y013965D01*
X007370Y013965D02*
X008130Y013965D01*
X008130Y014083D02*
X007370Y014083D01*
X007370Y014202D02*
X008130Y014202D01*
X008130Y014320D02*
X007370Y014320D01*
X007370Y014439D02*
X008030Y014439D01*
X007911Y014557D02*
X007370Y014557D01*
X007370Y014676D02*
X007793Y014676D01*
X007467Y014794D02*
X007370Y014794D01*
X007984Y015458D02*
X007961Y015480D01*
X007993Y015480D01*
X007984Y015458D01*
X008130Y013846D02*
X007370Y013846D01*
X007370Y013728D02*
X008130Y013728D01*
X008130Y013609D02*
X007370Y013609D01*
X007370Y013491D02*
X008130Y013491D01*
X008130Y013372D02*
X007370Y013372D01*
X007370Y013254D02*
X008130Y013254D01*
X008130Y013135D02*
X007370Y013135D01*
X007370Y013017D02*
X008130Y013017D01*
X008130Y012898D02*
X007370Y012898D01*
X007370Y012780D02*
X008130Y012780D01*
X008130Y012661D02*
X007370Y012661D01*
X007339Y012543D02*
X008130Y012543D01*
X008130Y012424D02*
X007235Y012424D01*
X007116Y012306D02*
X008130Y012306D01*
X008130Y012187D02*
X006998Y012187D01*
X006879Y012069D02*
X008130Y012069D01*
X008130Y011950D02*
X006761Y011950D01*
X006642Y011832D02*
X008130Y011832D01*
X008130Y011713D02*
X006524Y011713D01*
X006405Y011595D02*
X008130Y011595D01*
X008130Y011476D02*
X006363Y011476D01*
X006363Y011358D02*
X008130Y011358D01*
X008130Y011239D02*
X006363Y011239D01*
X006274Y011121D02*
X008130Y011121D01*
X008130Y011002D02*
X001674Y011002D01*
X001660Y011121D02*
X002324Y011121D01*
X002170Y011239D02*
X001653Y011239D01*
X001646Y011358D02*
X002106Y011358D01*
X002082Y011476D02*
X001639Y011476D01*
X001632Y011595D02*
X002087Y011595D01*
X002136Y011713D02*
X001626Y011713D01*
X001619Y011832D02*
X002240Y011832D01*
X002760Y011832D02*
X003046Y011832D01*
X003552Y011832D02*
X003735Y011832D01*
X004241Y011832D02*
X004867Y011832D01*
X004985Y011950D02*
X001612Y011950D01*
X001605Y012069D02*
X006116Y012069D01*
X006234Y012187D02*
X001598Y012187D01*
X001591Y012306D02*
X006353Y012306D01*
X006471Y012424D02*
X001598Y012424D01*
X001605Y012543D02*
X006590Y012543D01*
X006708Y012661D02*
X001612Y012661D01*
X001619Y012780D02*
X006827Y012780D01*
X006830Y012898D02*
X001626Y012898D01*
X002711Y013135D02*
X003083Y013135D01*
X003515Y013135D02*
X003772Y013135D01*
X004204Y013135D02*
X004903Y013135D01*
X005569Y011950D02*
X005655Y011950D01*
X005619Y011121D02*
X005605Y011121D01*
X004949Y011121D02*
X002676Y011121D01*
X001737Y010647D02*
X006905Y010647D01*
X006963Y010704D02*
X006846Y010587D01*
X006782Y010433D01*
X006782Y010314D01*
X006344Y009876D01*
X006234Y009985D01*
X005658Y009985D01*
X005612Y009939D01*
X005565Y009985D01*
X004989Y009985D01*
X004860Y009856D01*
X004860Y009819D01*
X004285Y009819D01*
X004177Y009926D01*
X003798Y009926D01*
X003710Y009838D01*
X003680Y009838D01*
X003643Y009801D01*
X003606Y009838D01*
X003577Y009838D01*
X003488Y009926D01*
X003109Y009926D01*
X003003Y009820D01*
X002821Y009820D01*
X002737Y009904D01*
X002583Y009968D01*
X002417Y009968D01*
X002263Y009904D01*
X002146Y009787D01*
X002082Y009633D01*
X002082Y009467D01*
X002146Y009313D01*
X002263Y009196D01*
X002417Y009132D01*
X002583Y009132D01*
X002737Y009196D01*
X002821Y009280D01*
X003001Y009280D01*
X003109Y009171D01*
X003488Y009171D01*
X003577Y009260D01*
X003606Y009260D01*
X003643Y009297D01*
X003680Y009260D01*
X003710Y009260D01*
X003798Y009171D01*
X004177Y009171D01*
X004285Y009279D01*
X004860Y009279D01*
X004860Y009241D01*
X004989Y009112D01*
X005565Y009112D01*
X005612Y009159D01*
X005658Y009112D01*
X006234Y009112D01*
X006363Y009241D01*
X006363Y009279D01*
X006453Y009279D01*
X006552Y009320D01*
X006628Y009396D01*
X007164Y009932D01*
X007283Y009932D01*
X007437Y009996D01*
X007554Y010113D01*
X007618Y010267D01*
X007618Y010433D01*
X007554Y010587D01*
X007437Y010704D01*
X007283Y010768D01*
X007117Y010768D01*
X006963Y010704D01*
X007109Y010765D02*
X001716Y010765D01*
X001695Y010884D02*
X008130Y010884D01*
X008130Y010765D02*
X007291Y010765D01*
X007495Y010647D02*
X008130Y010647D01*
X008130Y010528D02*
X007579Y010528D01*
X007618Y010410D02*
X008130Y010410D01*
X008130Y010291D02*
X007618Y010291D01*
X007579Y010173D02*
X008130Y010173D01*
X008130Y010054D02*
X007495Y010054D01*
X007292Y009936D02*
X008130Y009936D01*
X008130Y009817D02*
X007049Y009817D01*
X006930Y009699D02*
X008170Y009699D01*
X008288Y009580D02*
X006812Y009580D01*
X006693Y009462D02*
X008407Y009462D01*
X008525Y009343D02*
X006575Y009343D01*
X006347Y009225D02*
X008644Y009225D01*
X008762Y009106D02*
X002098Y009106D01*
X002133Y008988D02*
X008881Y008988D01*
X008999Y008869D02*
X002169Y008869D01*
X002204Y008751D02*
X009118Y008751D01*
X009236Y008632D02*
X002241Y008632D01*
X002292Y008514D02*
X009355Y008514D01*
X009430Y008395D02*
X002343Y008395D01*
X002234Y009225D02*
X002062Y009225D01*
X002027Y009343D02*
X002133Y009343D01*
X002084Y009462D02*
X001991Y009462D01*
X001956Y009580D02*
X002082Y009580D01*
X002109Y009699D02*
X001920Y009699D01*
X001885Y009817D02*
X002176Y009817D01*
X002338Y009936D02*
X001862Y009936D01*
X001841Y010054D02*
X006522Y010054D01*
X006404Y009936D02*
X006284Y009936D01*
X006641Y010173D02*
X001820Y010173D01*
X001799Y010291D02*
X006759Y010291D01*
X006782Y010410D02*
X001778Y010410D01*
X001758Y010528D02*
X006821Y010528D01*
X007186Y010336D02*
X007200Y010350D01*
X004939Y009936D02*
X002662Y009936D01*
X002766Y009225D02*
X003056Y009225D01*
X003542Y009225D02*
X003745Y009225D01*
X004231Y009225D02*
X004877Y009225D01*
X003659Y009817D02*
X003627Y009817D01*
X003617Y011239D02*
X003670Y011239D01*
X004277Y011239D02*
X004860Y011239D01*
X009170Y012657D02*
X009170Y012743D01*
X009273Y012700D01*
X009170Y012657D01*
X009170Y012661D02*
X009179Y012661D01*
X007336Y017164D02*
X006322Y017164D01*
X006527Y017283D02*
X007420Y017283D01*
X007420Y017401D02*
X006681Y017401D01*
D23*
X006100Y016450D02*
X006700Y015850D01*
X006700Y014300D01*
X005946Y013546D01*
X005946Y013486D01*
X005277Y013486D02*
X003840Y013486D01*
X003446Y013486D02*
X003432Y013500D01*
X002500Y013500D01*
X002500Y014500D02*
X002500Y014508D01*
X003446Y015454D01*
X003840Y015454D02*
X005277Y015454D01*
X005401Y016000D02*
X004700Y016000D01*
X004450Y015750D01*
X003250Y015750D01*
X002900Y016100D01*
X003900Y016100D02*
X004250Y016450D01*
X006100Y016450D01*
X005401Y016000D02*
X005946Y015454D01*
X007100Y015300D02*
X007550Y015750D01*
X008900Y015750D01*
X008900Y010150D01*
X010592Y008458D01*
X010592Y006025D01*
X009700Y005050D02*
X009700Y008550D01*
X008400Y009850D01*
X008400Y014450D01*
X007700Y015150D01*
X008350Y015250D02*
X008650Y014950D01*
X008650Y010000D01*
X010150Y008500D01*
X010150Y007850D01*
X009230Y006832D02*
X009250Y006813D01*
X009230Y006832D02*
X008368Y006832D01*
X009000Y005450D02*
X009000Y003550D01*
X009674Y002876D01*
X010592Y002876D01*
X010592Y003269D02*
X010031Y003269D01*
X009350Y003950D01*
X009350Y004700D01*
X009700Y005050D01*
X006399Y009549D02*
X005946Y009549D01*
X006399Y009549D02*
X007200Y010350D01*
X005946Y011517D02*
X007100Y012671D01*
X007100Y015300D01*
X009400Y016093D02*
X009400Y013100D01*
X009850Y012750D02*
X009850Y015756D01*
X011124Y017029D01*
X011124Y017817D02*
X009400Y016093D01*
X009850Y012750D02*
X009400Y012300D01*
X005277Y011517D02*
X003840Y011517D01*
X003446Y011517D02*
X003429Y011500D01*
X002500Y011500D01*
X002500Y009550D02*
X003445Y009550D01*
X003446Y009549D01*
X003840Y009549D02*
X005277Y009549D01*
X004667Y006832D02*
X003720Y006832D01*
X003700Y006813D01*
D24*
X013820Y007187D02*
X013820Y009170D01*
X013820Y007187D02*
X014863Y007187D01*
X015100Y006950D01*
X015100Y006400D01*
X014725Y006025D01*
X014331Y005631D01*
X014057Y005631D01*
X014057Y006025D02*
X014725Y006025D01*
X011124Y018604D02*
X009214Y018604D01*
X009155Y018663D01*
D25*
X003350Y016700D03*
D26*
X007200Y011250D03*
X009850Y011250D03*
M02*
