G75*
G70*
%OFA0B0*%
%FSLAX24Y24*%
%IPPOS*%
%LPD*%
%AMOC8*
5,1,8,0,0,1.08239X$1,22.5*
%
%ADD10R,0.0493X0.0454*%
%ADD11R,0.0148X0.0138*%
%ADD12R,0.0454X0.0493*%
%ADD13R,0.0620X0.0340*%
%ADD14R,0.0340X0.0620*%
%ADD15R,0.0454X0.1556*%
%ADD16R,0.0355X0.0847*%
%ADD17C,0.0660*%
%ADD18C,0.1162*%
%ADD19C,0.0456*%
%ADD20C,0.0496*%
%ADD21C,0.0535*%
D10*
X013151Y007187D03*
X013820Y007187D03*
D11*
X003845Y009549D03*
X003442Y009549D03*
X003442Y011517D03*
X003845Y011517D03*
X003845Y013486D03*
X003442Y013486D03*
X003442Y015454D03*
X003845Y015454D03*
D12*
X005277Y015454D03*
X005946Y015454D03*
X005946Y013486D03*
X005277Y013486D03*
X005277Y011517D03*
X005946Y011517D03*
X005946Y009549D03*
X005277Y009549D03*
X009155Y018663D03*
X009155Y019332D03*
D13*
X010592Y006025D03*
X010592Y005631D03*
X010592Y005238D03*
X010592Y004844D03*
X010592Y004450D03*
X010592Y004057D03*
X010592Y003663D03*
X010592Y003269D03*
X010592Y002876D03*
X014057Y002876D03*
X014057Y003269D03*
X014057Y003663D03*
X014057Y004057D03*
X014057Y004450D03*
X014057Y004844D03*
X014057Y005238D03*
X014057Y005631D03*
X014057Y006025D03*
D14*
X013033Y006183D03*
X012639Y006183D03*
X012246Y006183D03*
X011852Y006183D03*
X011458Y006183D03*
X011458Y002718D03*
X011852Y002718D03*
X012246Y002718D03*
X012639Y002718D03*
X013033Y002718D03*
D15*
X008368Y006832D03*
X004667Y006832D03*
D16*
X016478Y007187D03*
X019155Y007187D03*
D17*
X019785Y011517D03*
X019785Y012305D03*
X019785Y013092D03*
X019785Y013880D03*
X019785Y014667D03*
X019785Y015454D03*
X019785Y016242D03*
X019785Y017029D03*
X019785Y017817D03*
X019785Y018604D03*
X011124Y018604D03*
X011124Y017817D03*
X011124Y017029D03*
X011124Y016242D03*
X011124Y015454D03*
X011124Y014667D03*
X011124Y013880D03*
X011124Y013092D03*
X011124Y012305D03*
X011124Y011517D03*
D18*
X017817Y004824D03*
X005612Y018604D03*
D19*
X003700Y006813D03*
X002500Y009550D03*
X002500Y011500D03*
X002500Y013500D03*
X002500Y014500D03*
X002900Y016100D03*
X003900Y016100D03*
X007700Y016950D03*
X008900Y015750D03*
X008350Y015250D03*
X007700Y015150D03*
X009400Y013100D03*
X009400Y012300D03*
X007200Y010350D03*
X010150Y007850D03*
X009250Y006813D03*
X009000Y005450D03*
X009850Y004250D03*
X012250Y001750D03*
X014750Y004750D03*
X015300Y003250D03*
X011750Y009150D03*
D20*
X003350Y016700D03*
D21*
X007200Y011250D03*
X009850Y011250D03*
M02*
