G75*
G70*
%OFA0B0*%
%FSLAX24Y24*%
%IPPOS*%
%LPD*%
%AMOC8*
5,1,8,0,0,1.08239X$1,22.5*
%
%ADD10C,0.0560*%
%ADD11C,0.0300*%
%ADD12C,0.0100*%
%ADD13C,0.0357*%
%ADD14C,0.0396*%
%ADD15C,0.0120*%
%ADD16C,0.0160*%
%ADD17C,0.0278*%
D10*
X020916Y014110D03*
X020916Y015110D03*
X020916Y016110D03*
X020916Y017110D03*
X020916Y018110D03*
X020916Y019110D03*
X020916Y020110D03*
X021916Y020110D03*
X021916Y019110D03*
X021916Y018110D03*
X021916Y017110D03*
X021916Y016110D03*
X021916Y015110D03*
X021916Y014110D03*
X021478Y023175D03*
X020771Y023882D03*
X020063Y024589D03*
X013361Y027740D03*
X012361Y027740D03*
X011361Y027740D03*
D11*
X012756Y024979D03*
X013066Y024979D03*
X013066Y024659D03*
X012756Y024659D03*
X013376Y024659D03*
X013376Y024979D03*
X016566Y025071D03*
X016566Y024751D03*
X009131Y024659D03*
X008811Y024659D03*
X008811Y024979D03*
X009131Y024979D03*
D12*
X011685Y006777D02*
X005880Y006777D01*
X005715Y006875D02*
X011818Y006875D01*
X011759Y006851D02*
X011887Y006904D01*
X011971Y006904D01*
X011958Y006936D01*
X011958Y007075D01*
X012011Y007203D01*
X012109Y007301D01*
X012237Y007354D01*
X012376Y007354D01*
X012504Y007301D01*
X012579Y007225D01*
X012665Y007225D01*
X012836Y007397D01*
X012836Y009014D01*
X012176Y009674D01*
X012176Y009214D01*
X011205Y008243D01*
X011205Y008136D01*
X011152Y008008D01*
X011054Y007910D01*
X010926Y007857D01*
X010787Y007857D01*
X010659Y007910D01*
X010561Y008008D01*
X010508Y008136D01*
X010508Y008275D01*
X010561Y008403D01*
X010659Y008501D01*
X010787Y008554D01*
X010894Y008554D01*
X011736Y009397D01*
X011736Y010097D01*
X011865Y010225D01*
X012508Y010868D01*
X012508Y010925D01*
X012561Y011053D01*
X012659Y011151D01*
X012787Y011204D01*
X012926Y011204D01*
X013054Y011151D01*
X013152Y011053D01*
X013205Y010925D01*
X013205Y010786D01*
X013159Y010675D01*
X013286Y010675D01*
X013286Y011261D01*
X013230Y011237D01*
X013083Y011237D01*
X012948Y011293D01*
X012844Y011397D01*
X012788Y011532D01*
X012788Y011679D01*
X012844Y011814D01*
X012936Y011906D01*
X012936Y012464D01*
X012815Y012585D01*
X012686Y012714D01*
X012686Y013214D01*
X010765Y015135D01*
X009937Y015135D01*
X010097Y014975D01*
X010106Y014975D01*
X010198Y015068D01*
X010333Y015124D01*
X010480Y015124D01*
X010615Y015068D01*
X010718Y014964D01*
X010774Y014829D01*
X010774Y014682D01*
X010718Y014547D01*
X010615Y014443D01*
X010480Y014387D01*
X010333Y014387D01*
X010198Y014443D01*
X010106Y014535D01*
X009915Y014535D01*
X009786Y014664D01*
X009444Y015007D01*
X009337Y015007D01*
X009209Y015060D01*
X009111Y015158D01*
X009058Y015286D01*
X009058Y015425D01*
X009111Y015553D01*
X009209Y015651D01*
X009337Y015704D01*
X009476Y015704D01*
X009604Y015651D01*
X009679Y015575D01*
X010947Y015575D01*
X012886Y013637D01*
X012886Y017383D01*
X012861Y017408D01*
X012808Y017536D01*
X012808Y017675D01*
X012833Y017735D01*
X012697Y017735D01*
X012447Y017485D01*
X011815Y017485D01*
X011686Y017614D01*
X011436Y017864D01*
X011436Y017893D01*
X011404Y017860D01*
X011276Y017807D01*
X011137Y017807D01*
X011009Y017860D01*
X010911Y017958D01*
X010858Y018086D01*
X010858Y018225D01*
X010911Y018353D01*
X010944Y018385D01*
X009945Y018385D01*
X009476Y017933D01*
X009554Y017901D01*
X009652Y017803D01*
X009705Y017675D01*
X009705Y017536D01*
X009697Y017516D01*
X009698Y017518D01*
X009833Y017574D01*
X009980Y017574D01*
X010115Y017518D01*
X010218Y017414D01*
X010274Y017279D01*
X010274Y017132D01*
X010218Y016997D01*
X010188Y016967D01*
X010202Y016953D01*
X010255Y016825D01*
X010255Y016686D01*
X010202Y016558D01*
X010149Y016505D01*
X010202Y016453D01*
X010255Y016325D01*
X010255Y016186D01*
X010202Y016058D01*
X010104Y015960D01*
X009976Y015907D01*
X009837Y015907D01*
X009709Y015960D01*
X009611Y016058D01*
X009558Y016186D01*
X009558Y016325D01*
X009611Y016453D01*
X009664Y016505D01*
X009611Y016558D01*
X009558Y016686D01*
X009558Y016825D01*
X009611Y016953D01*
X009625Y016967D01*
X009594Y016997D01*
X009538Y017132D01*
X009538Y017279D01*
X009551Y017309D01*
X009426Y017257D01*
X009287Y017257D01*
X009159Y017310D01*
X009061Y017408D01*
X009024Y017496D01*
X008755Y017236D01*
X008755Y017136D01*
X008702Y017008D01*
X008604Y016910D01*
X008476Y016857D01*
X008337Y016857D01*
X008209Y016910D01*
X008111Y017008D01*
X008058Y017136D01*
X008058Y017275D01*
X008111Y017403D01*
X008191Y017483D01*
X008097Y017522D01*
X008026Y017593D01*
X008026Y015747D01*
X010020Y013753D01*
X010061Y013853D01*
X010159Y013951D01*
X010287Y014004D01*
X010426Y014004D01*
X010554Y013951D01*
X010652Y013853D01*
X010705Y013725D01*
X010705Y013586D01*
X010652Y013458D01*
X010574Y013380D01*
X010652Y013303D01*
X010705Y013175D01*
X010705Y013036D01*
X010652Y012908D01*
X010554Y012810D01*
X010426Y012757D01*
X010287Y012757D01*
X010159Y012810D01*
X010156Y012813D01*
X010115Y012771D01*
X010155Y012675D01*
X010155Y012536D01*
X010102Y012408D01*
X010099Y012405D01*
X010152Y012353D01*
X010205Y012225D01*
X010205Y012086D01*
X010152Y011958D01*
X010149Y011955D01*
X010202Y011903D01*
X010255Y011775D01*
X010255Y011654D01*
X010376Y011654D01*
X010504Y011601D01*
X010602Y011503D01*
X010655Y011375D01*
X010655Y011236D01*
X010602Y011108D01*
X010524Y011030D01*
X010602Y010953D01*
X010655Y010825D01*
X010655Y010686D01*
X010602Y010558D01*
X010524Y010480D01*
X010552Y010453D01*
X010605Y010325D01*
X010605Y010204D01*
X010676Y010204D01*
X010804Y010151D01*
X010902Y010053D01*
X010955Y009925D01*
X010955Y009786D01*
X010902Y009658D01*
X010804Y009560D01*
X010676Y009507D01*
X010537Y009507D01*
X010455Y009541D01*
X010455Y009436D01*
X010402Y009308D01*
X010304Y009210D01*
X010176Y009157D01*
X010055Y009157D01*
X010055Y009036D01*
X010002Y008908D01*
X009904Y008810D01*
X009826Y008778D01*
X009902Y008703D01*
X009955Y008575D01*
X009955Y008436D01*
X009902Y008308D01*
X009804Y008210D01*
X009676Y008157D01*
X009537Y008157D01*
X009409Y008210D01*
X009311Y008308D01*
X009258Y008436D01*
X009258Y008575D01*
X009311Y008703D01*
X009409Y008801D01*
X009486Y008833D01*
X009411Y008908D01*
X009358Y009036D01*
X009358Y009175D01*
X009411Y009303D01*
X009509Y009401D01*
X009637Y009454D01*
X009758Y009454D01*
X009758Y009575D01*
X009811Y009703D01*
X009909Y009801D01*
X010037Y009854D01*
X010176Y009854D01*
X010258Y009820D01*
X010258Y009907D01*
X010187Y009907D01*
X010059Y009960D01*
X009961Y010058D01*
X009908Y010186D01*
X009908Y010325D01*
X009961Y010453D01*
X010039Y010530D01*
X010011Y010558D01*
X009958Y010686D01*
X009958Y010825D01*
X010011Y010953D01*
X010089Y011030D01*
X010011Y011108D01*
X009958Y011236D01*
X009958Y011357D01*
X009837Y011357D01*
X009709Y011410D01*
X009611Y011508D01*
X009558Y011636D01*
X009558Y011775D01*
X009611Y011903D01*
X009614Y011905D01*
X009561Y011958D01*
X009508Y012086D01*
X009508Y012225D01*
X009561Y012353D01*
X009564Y012355D01*
X009511Y012408D01*
X009458Y012536D01*
X009458Y012643D01*
X007215Y014885D01*
X007086Y015014D01*
X007086Y015574D01*
X006597Y015085D01*
X006529Y015085D01*
X006454Y015010D01*
X006326Y014957D01*
X006187Y014957D01*
X006059Y015010D01*
X005961Y015108D01*
X005908Y015236D01*
X005908Y015375D01*
X005961Y015503D01*
X006059Y015601D01*
X006101Y015618D01*
X006011Y015708D01*
X005958Y015836D01*
X005958Y015975D01*
X006011Y016103D01*
X006109Y016201D01*
X006237Y016254D01*
X006376Y016254D01*
X006504Y016201D01*
X006602Y016103D01*
X006655Y015975D01*
X006655Y015836D01*
X006604Y015715D01*
X006836Y015947D01*
X006836Y015964D01*
X006365Y016435D01*
X006236Y016564D01*
X006236Y017247D01*
X006508Y017518D01*
X006508Y017625D01*
X006561Y017753D01*
X006659Y017851D01*
X006787Y017904D01*
X006926Y017904D01*
X007054Y017851D01*
X007086Y017818D01*
X007086Y018528D01*
X007009Y018560D01*
X006911Y018658D01*
X006858Y018786D01*
X006858Y018925D01*
X006911Y019053D01*
X007009Y019151D01*
X007099Y019188D01*
X007058Y019286D01*
X007058Y019425D01*
X007088Y019498D01*
X007059Y019510D01*
X006961Y019608D01*
X006908Y019736D01*
X006908Y019875D01*
X006961Y020003D01*
X007059Y020101D01*
X007187Y020154D01*
X007326Y020154D01*
X007454Y020101D01*
X007529Y020025D01*
X007747Y020025D01*
X008026Y019747D01*
X008026Y018042D01*
X008097Y018113D01*
X008225Y018166D01*
X008364Y018166D01*
X008492Y018113D01*
X008590Y018015D01*
X008643Y017887D01*
X008643Y017748D01*
X008637Y017734D01*
X009702Y018762D01*
X009765Y018825D01*
X009767Y018825D01*
X009769Y018827D01*
X009858Y018825D01*
X011397Y018825D01*
X011747Y018475D01*
X011758Y018465D01*
X011758Y018575D01*
X011811Y018703D01*
X011909Y018801D01*
X012037Y018854D01*
X012176Y018854D01*
X012304Y018801D01*
X012402Y018703D01*
X012455Y018575D01*
X012455Y018525D01*
X015918Y018525D01*
X015987Y018554D01*
X016126Y018554D01*
X016254Y018501D01*
X016352Y018403D01*
X016405Y018275D01*
X016405Y018136D01*
X016352Y018008D01*
X016254Y017910D01*
X016126Y017857D01*
X015987Y017857D01*
X015859Y017910D01*
X015761Y018008D01*
X015729Y018085D01*
X015059Y018085D01*
X015105Y017975D01*
X015105Y017836D01*
X015052Y017708D01*
X014954Y017610D01*
X014826Y017557D01*
X014719Y017557D01*
X014602Y017440D01*
X014683Y017474D01*
X014830Y017474D01*
X014965Y017418D01*
X015068Y017314D01*
X015124Y017179D01*
X015124Y017135D01*
X015215Y017225D01*
X015797Y017225D01*
X016047Y016975D01*
X017015Y016975D01*
X018036Y017997D01*
X018165Y018125D01*
X019620Y018125D01*
X020481Y018986D01*
X020466Y019021D01*
X020466Y019200D01*
X020535Y019365D01*
X020661Y019492D01*
X020827Y019560D01*
X021006Y019560D01*
X021171Y019492D01*
X021298Y019365D01*
X021366Y019200D01*
X021366Y019021D01*
X021298Y018855D01*
X021171Y018729D01*
X021006Y018660D01*
X020827Y018660D01*
X020792Y018675D01*
X019803Y017685D01*
X018347Y017685D01*
X018201Y017539D01*
X018237Y017554D01*
X018376Y017554D01*
X018504Y017501D01*
X018602Y017403D01*
X018655Y017275D01*
X018655Y017136D01*
X018602Y017008D01*
X018504Y016910D01*
X018376Y016857D01*
X018237Y016857D01*
X018109Y016910D01*
X018011Y017008D01*
X017958Y017136D01*
X017958Y017275D01*
X017973Y017311D01*
X017487Y016825D01*
X020565Y016825D01*
X020535Y016855D01*
X020466Y017021D01*
X018607Y017021D01*
X018648Y017119D02*
X020466Y017119D01*
X020466Y017200D02*
X020466Y017021D01*
X020507Y016922D02*
X018516Y016922D01*
X018655Y017218D02*
X020474Y017218D01*
X020466Y017200D02*
X020535Y017365D01*
X020661Y017492D01*
X020827Y017560D01*
X021006Y017560D01*
X021171Y017492D01*
X021298Y017365D01*
X021366Y017200D01*
X021366Y017021D01*
X021466Y017021D01*
X021481Y016986D01*
X021320Y016825D01*
X021268Y016825D01*
X021298Y016855D01*
X021366Y017021D01*
X021366Y017119D02*
X021466Y017119D01*
X021466Y017200D02*
X021466Y017021D01*
X021417Y016922D02*
X021326Y016922D01*
X021359Y017218D02*
X021474Y017218D01*
X021466Y017200D02*
X021535Y017365D01*
X021661Y017492D01*
X021827Y017560D01*
X022006Y017560D01*
X022171Y017492D01*
X022298Y017365D01*
X022366Y017200D01*
X022366Y017021D01*
X024562Y017021D01*
X024566Y017110D02*
X024524Y016102D01*
X024399Y015101D01*
X024192Y014114D01*
X023905Y013147D01*
X023538Y012208D01*
X023095Y011301D01*
X022578Y010435D01*
X021992Y009614D01*
X021340Y008844D01*
X020627Y008131D01*
X019857Y007479D01*
X019036Y006893D01*
X018170Y006376D01*
X017264Y005933D01*
X016324Y005567D01*
X015357Y005279D01*
X014370Y005072D01*
X013369Y004947D01*
X012361Y004905D01*
X011353Y004947D01*
X010352Y005072D01*
X009365Y005279D01*
X008398Y005567D01*
X007458Y005933D01*
X006552Y006376D01*
X005686Y006893D01*
X004865Y007479D01*
X004095Y008131D01*
X003382Y008844D01*
X002730Y009614D01*
X002144Y010435D01*
X001627Y011301D01*
X001184Y012208D01*
X000818Y013147D01*
X000530Y014114D01*
X000323Y015101D01*
X000198Y016102D01*
X000156Y017110D01*
X000198Y018118D01*
X000323Y019119D01*
X000530Y020106D01*
X000818Y021073D01*
X001184Y022013D01*
X001627Y022919D01*
X002144Y023786D01*
X002730Y024606D01*
X003382Y025376D01*
X004095Y026089D01*
X004865Y026741D01*
X005686Y027328D01*
X006552Y027844D01*
X007458Y028287D01*
X008398Y028654D01*
X009365Y028941D01*
X010352Y029148D01*
X011353Y029273D01*
X012361Y029315D01*
X013369Y029273D01*
X014370Y029148D01*
X015357Y028941D01*
X016324Y028654D01*
X017264Y028287D01*
X018170Y027844D01*
X019036Y027328D01*
X019857Y026741D01*
X020627Y026089D01*
X021340Y025376D01*
X021992Y024606D01*
X022578Y023786D01*
X023095Y022919D01*
X023538Y022013D01*
X023905Y021073D01*
X024192Y020106D01*
X024399Y019119D01*
X024524Y018118D01*
X024566Y017110D01*
X024565Y017119D02*
X022366Y017119D01*
X022366Y017021D02*
X022298Y016855D01*
X022171Y016729D01*
X022006Y016660D01*
X021827Y016660D01*
X021792Y016675D01*
X021503Y016385D01*
X021277Y016385D01*
X021298Y016365D01*
X021366Y016200D01*
X021366Y016021D01*
X021298Y015855D01*
X021171Y015729D01*
X021006Y015660D01*
X020827Y015660D01*
X020661Y015729D01*
X020535Y015855D01*
X020466Y016021D01*
X020466Y016200D01*
X020535Y016365D01*
X020555Y016385D01*
X017647Y016385D01*
X017489Y016227D01*
X017554Y016201D01*
X017652Y016103D01*
X017705Y015975D01*
X017705Y015836D01*
X017652Y015708D01*
X017574Y015630D01*
X017652Y015553D01*
X017705Y015425D01*
X017705Y015286D01*
X017652Y015158D01*
X017554Y015060D01*
X017543Y015055D01*
X017554Y015051D01*
X017652Y014953D01*
X017705Y014825D01*
X017705Y014686D01*
X017652Y014558D01*
X017554Y014460D01*
X017543Y014455D01*
X017554Y014451D01*
X017652Y014353D01*
X017705Y014225D01*
X017705Y014086D01*
X017652Y013958D01*
X017554Y013860D01*
X017426Y013807D01*
X017287Y013807D01*
X017159Y013860D01*
X017061Y013958D01*
X017008Y014086D01*
X017008Y014225D01*
X017061Y014353D01*
X017159Y014451D01*
X017170Y014455D01*
X017159Y014460D01*
X017061Y014558D01*
X017008Y014686D01*
X017008Y014825D01*
X017061Y014953D01*
X017159Y015051D01*
X017170Y015055D01*
X017159Y015060D01*
X017061Y015158D01*
X017008Y015286D01*
X017008Y015425D01*
X017061Y015553D01*
X017139Y015630D01*
X017061Y015708D01*
X017008Y015836D01*
X017008Y015975D01*
X017012Y015985D01*
X015065Y015985D01*
X014965Y016085D01*
X014579Y016085D01*
X014554Y016060D01*
X014426Y016007D01*
X014287Y016007D01*
X014159Y016060D01*
X014061Y016158D01*
X014008Y016286D01*
X014008Y016425D01*
X014061Y016553D01*
X014089Y016580D01*
X014061Y016608D01*
X014008Y016736D01*
X014008Y016846D01*
X013976Y016814D01*
X013976Y014497D01*
X014397Y014075D01*
X014526Y013947D01*
X014526Y012447D01*
X015069Y011904D01*
X015176Y011904D01*
X015304Y011851D01*
X015402Y011753D01*
X015455Y011625D01*
X015455Y011486D01*
X015402Y011358D01*
X015304Y011260D01*
X015176Y011207D01*
X015037Y011207D01*
X014926Y011253D01*
X014926Y011128D01*
X015002Y011053D01*
X015055Y010925D01*
X015055Y010786D01*
X015002Y010658D01*
X014904Y010560D01*
X014776Y010507D01*
X014637Y010507D01*
X014509Y010560D01*
X014411Y010658D01*
X014358Y010786D01*
X014358Y010925D01*
X014411Y011053D01*
X014486Y011128D01*
X014486Y011292D01*
X014452Y011208D01*
X014354Y011110D01*
X014226Y011057D01*
X014087Y011057D01*
X013959Y011110D01*
X013861Y011208D01*
X013808Y011336D01*
X013808Y011443D01*
X013726Y011524D01*
X013726Y010464D01*
X013626Y010364D01*
X013566Y010304D01*
X013676Y010304D01*
X013804Y010251D01*
X013902Y010153D01*
X013955Y010025D01*
X013955Y009886D01*
X013902Y009758D01*
X013804Y009660D01*
X013676Y009607D01*
X013537Y009607D01*
X013409Y009660D01*
X013311Y009758D01*
X013258Y009886D01*
X013258Y010025D01*
X013311Y010153D01*
X013394Y010235D01*
X012847Y010235D01*
X012542Y009930D01*
X013147Y009325D01*
X013276Y009197D01*
X013276Y007214D01*
X013066Y007004D01*
X013187Y007054D01*
X013326Y007054D01*
X013454Y007001D01*
X013552Y006903D01*
X013605Y006775D01*
X013605Y006636D01*
X013552Y006508D01*
X013454Y006410D01*
X013326Y006357D01*
X013187Y006357D01*
X013059Y006410D01*
X012961Y006508D01*
X012908Y006636D01*
X012908Y006775D01*
X012958Y006896D01*
X012847Y006785D01*
X012579Y006785D01*
X012504Y006710D01*
X012376Y006657D01*
X012291Y006657D01*
X012305Y006625D01*
X012305Y006486D01*
X012252Y006358D01*
X012154Y006260D01*
X012026Y006207D01*
X011887Y006207D01*
X011759Y006260D01*
X011661Y006358D01*
X011608Y006486D01*
X011608Y006625D01*
X011661Y006753D01*
X011759Y006851D01*
X011630Y006678D02*
X006045Y006678D01*
X006211Y006580D02*
X011608Y006580D01*
X011610Y006481D02*
X006376Y006481D01*
X006541Y006383D02*
X011651Y006383D01*
X011735Y006284D02*
X006740Y006284D01*
X006942Y006186D02*
X012258Y006186D01*
X012258Y006136D02*
X012311Y006008D01*
X012409Y005910D01*
X012537Y005857D01*
X012676Y005857D01*
X012804Y005910D01*
X012902Y006008D01*
X012955Y006136D01*
X012955Y006275D01*
X012902Y006403D01*
X012804Y006501D01*
X012676Y006554D01*
X012537Y006554D01*
X012409Y006501D01*
X012311Y006403D01*
X012258Y006275D01*
X012258Y006136D01*
X012278Y006087D02*
X007143Y006087D01*
X007345Y005989D02*
X012330Y005989D01*
X012456Y005890D02*
X007569Y005890D01*
X007821Y005792D02*
X016901Y005792D01*
X016649Y005693D02*
X008073Y005693D01*
X008326Y005595D02*
X016396Y005595D01*
X016088Y005496D02*
X008634Y005496D01*
X008965Y005398D02*
X015757Y005398D01*
X015426Y005299D02*
X009296Y005299D01*
X009737Y005201D02*
X014985Y005201D01*
X014516Y005102D02*
X010207Y005102D01*
X010897Y005004D02*
X013825Y005004D01*
X012883Y005989D02*
X017377Y005989D01*
X017579Y006087D02*
X012935Y006087D01*
X012955Y006186D02*
X015367Y006186D01*
X015309Y006210D02*
X015437Y006157D01*
X015576Y006157D01*
X015704Y006210D01*
X015781Y006288D01*
X015859Y006210D01*
X015987Y006157D01*
X016126Y006157D01*
X016254Y006210D01*
X016352Y006308D01*
X016405Y006436D01*
X016405Y006575D01*
X016352Y006703D01*
X016254Y006801D01*
X016176Y006833D01*
X016202Y006858D01*
X016255Y006986D01*
X016255Y007125D01*
X016202Y007253D01*
X016104Y007351D01*
X015976Y007404D01*
X015837Y007404D01*
X015709Y007351D01*
X015611Y007253D01*
X015558Y007125D01*
X015558Y006986D01*
X015611Y006858D01*
X015643Y006826D01*
X015576Y006854D01*
X015437Y006854D01*
X015309Y006801D01*
X015211Y006703D01*
X015158Y006575D01*
X015158Y006436D01*
X015211Y006308D01*
X015309Y006210D01*
X015235Y006284D02*
X012951Y006284D01*
X012910Y006383D02*
X013124Y006383D01*
X012988Y006481D02*
X012823Y006481D01*
X012931Y006580D02*
X012305Y006580D01*
X012303Y006481D02*
X012390Y006481D01*
X012303Y006383D02*
X012262Y006383D01*
X012262Y006284D02*
X012178Y006284D01*
X012427Y006678D02*
X012908Y006678D01*
X012909Y006777D02*
X012571Y006777D01*
X012756Y007005D02*
X012306Y007005D01*
X012078Y007269D02*
X005158Y007269D01*
X005296Y007171D02*
X011998Y007171D01*
X011958Y007072D02*
X005434Y007072D01*
X005572Y006974D02*
X011958Y006974D01*
X012535Y007269D02*
X012709Y007269D01*
X012808Y007368D02*
X005020Y007368D01*
X004882Y007466D02*
X012836Y007466D01*
X012836Y007565D02*
X004763Y007565D01*
X004647Y007663D02*
X012836Y007663D01*
X012836Y007762D02*
X004531Y007762D01*
X004414Y007860D02*
X010779Y007860D01*
X010934Y007860D02*
X012836Y007860D01*
X012836Y007959D02*
X011103Y007959D01*
X011172Y008057D02*
X012836Y008057D01*
X012836Y008156D02*
X011205Y008156D01*
X011216Y008254D02*
X012836Y008254D01*
X012836Y008353D02*
X011315Y008353D01*
X011413Y008451D02*
X012836Y008451D01*
X012836Y008550D02*
X011512Y008550D01*
X011610Y008648D02*
X012836Y008648D01*
X012836Y008747D02*
X011709Y008747D01*
X011807Y008845D02*
X012836Y008845D01*
X012836Y008944D02*
X011906Y008944D01*
X012004Y009042D02*
X012808Y009042D01*
X012710Y009141D02*
X012103Y009141D01*
X012176Y009239D02*
X012611Y009239D01*
X012513Y009338D02*
X012176Y009338D01*
X012176Y009436D02*
X012414Y009436D01*
X012316Y009535D02*
X012176Y009535D01*
X012176Y009633D02*
X012217Y009633D01*
X012306Y009855D02*
X013056Y009105D01*
X013056Y007305D01*
X012756Y007005D01*
X012937Y006875D02*
X012950Y006875D01*
X013134Y007072D02*
X013681Y007072D01*
X013661Y007053D02*
X013608Y006925D01*
X013608Y006786D01*
X013661Y006658D01*
X013759Y006560D01*
X013887Y006507D01*
X014026Y006507D01*
X014154Y006560D01*
X014252Y006658D01*
X014305Y006786D01*
X014305Y006925D01*
X014252Y007053D01*
X014154Y007151D01*
X014026Y007204D01*
X013887Y007204D01*
X013759Y007151D01*
X013661Y007053D01*
X013628Y006974D02*
X013481Y006974D01*
X013563Y006875D02*
X013608Y006875D01*
X013604Y006777D02*
X013612Y006777D01*
X013605Y006678D02*
X013653Y006678D01*
X013581Y006580D02*
X013739Y006580D01*
X013525Y006481D02*
X015158Y006481D01*
X015160Y006580D02*
X014174Y006580D01*
X014260Y006678D02*
X015201Y006678D01*
X015285Y006777D02*
X014301Y006777D01*
X014305Y006875D02*
X015604Y006875D01*
X015563Y006974D02*
X014284Y006974D01*
X014232Y007072D02*
X014350Y007072D01*
X014387Y007057D02*
X014259Y007110D01*
X014161Y007208D01*
X014108Y007336D01*
X014108Y007475D01*
X014161Y007603D01*
X014259Y007701D01*
X014387Y007754D01*
X014526Y007754D01*
X014654Y007701D01*
X014752Y007603D01*
X014805Y007475D01*
X014805Y007336D01*
X014752Y007208D01*
X014654Y007110D01*
X014526Y007057D01*
X014387Y007057D01*
X014563Y007072D02*
X015558Y007072D01*
X015577Y007171D02*
X014715Y007171D01*
X014777Y007269D02*
X015628Y007269D01*
X015750Y007368D02*
X014805Y007368D01*
X014805Y007466D02*
X019840Y007466D01*
X019959Y007565D02*
X014767Y007565D01*
X014691Y007663D02*
X020075Y007663D01*
X020192Y007762D02*
X013276Y007762D01*
X013276Y007860D02*
X020308Y007860D01*
X020424Y007959D02*
X013276Y007959D01*
X013276Y008057D02*
X020540Y008057D01*
X020652Y008156D02*
X013276Y008156D01*
X013276Y008254D02*
X020751Y008254D01*
X020849Y008353D02*
X013276Y008353D01*
X013276Y008451D02*
X020948Y008451D01*
X021046Y008550D02*
X013276Y008550D01*
X013276Y008648D02*
X021145Y008648D01*
X021243Y008747D02*
X013276Y008747D01*
X013276Y008845D02*
X021341Y008845D01*
X021425Y008944D02*
X018102Y008944D01*
X018016Y008909D02*
X018281Y009018D01*
X018484Y009221D01*
X018594Y009486D01*
X018594Y009773D01*
X018484Y010038D01*
X018281Y010241D01*
X018016Y010351D01*
X017729Y010351D01*
X017464Y010241D01*
X017261Y010038D01*
X017152Y009773D01*
X017152Y009486D01*
X017261Y009221D01*
X017464Y009018D01*
X017729Y008909D01*
X018016Y008909D01*
X018305Y009042D02*
X021508Y009042D01*
X021592Y009141D02*
X018404Y009141D01*
X018492Y009239D02*
X021675Y009239D01*
X021759Y009338D02*
X018533Y009338D01*
X018573Y009436D02*
X021842Y009436D01*
X021925Y009535D02*
X018594Y009535D01*
X018594Y009633D02*
X022006Y009633D01*
X022077Y009732D02*
X018594Y009732D01*
X018570Y009830D02*
X022147Y009830D01*
X022217Y009929D02*
X018530Y009929D01*
X018489Y010027D02*
X022288Y010027D01*
X022358Y010126D02*
X018397Y010126D01*
X018298Y010224D02*
X022428Y010224D01*
X022499Y010323D02*
X018084Y010323D01*
X017662Y010323D02*
X013585Y010323D01*
X013683Y010421D02*
X022569Y010421D01*
X022629Y010520D02*
X014807Y010520D01*
X014962Y010618D02*
X022688Y010618D01*
X022747Y010717D02*
X015026Y010717D01*
X015055Y010815D02*
X022805Y010815D01*
X022864Y010914D02*
X015055Y010914D01*
X015018Y011012D02*
X022923Y011012D01*
X022981Y011111D02*
X014944Y011111D01*
X014926Y011209D02*
X015031Y011209D01*
X015182Y011209D02*
X023040Y011209D01*
X023098Y011308D02*
X015352Y011308D01*
X015422Y011406D02*
X023146Y011406D01*
X023194Y011505D02*
X015455Y011505D01*
X015455Y011603D02*
X023242Y011603D01*
X023291Y011702D02*
X015423Y011702D01*
X015354Y011800D02*
X023339Y011800D01*
X023387Y011899D02*
X015187Y011899D01*
X014975Y011997D02*
X023435Y011997D01*
X023483Y012096D02*
X014877Y012096D01*
X014778Y012194D02*
X023531Y012194D01*
X023571Y012293D02*
X014680Y012293D01*
X014581Y012391D02*
X023610Y012391D01*
X023648Y012490D02*
X014526Y012490D01*
X014526Y012588D02*
X023686Y012588D01*
X023725Y012687D02*
X014526Y012687D01*
X014526Y012785D02*
X014968Y012785D01*
X014909Y012810D02*
X015037Y012757D01*
X015176Y012757D01*
X015304Y012810D01*
X015402Y012908D01*
X015455Y013036D01*
X015455Y013175D01*
X015402Y013303D01*
X015304Y013401D01*
X015176Y013454D01*
X015037Y013454D01*
X014909Y013401D01*
X014811Y013303D01*
X014758Y013175D01*
X014758Y013036D01*
X014811Y012908D01*
X014909Y012810D01*
X014835Y012884D02*
X014526Y012884D01*
X014526Y012982D02*
X014780Y012982D01*
X014758Y013081D02*
X014526Y013081D01*
X014526Y013179D02*
X014760Y013179D01*
X014801Y013278D02*
X014526Y013278D01*
X014526Y013376D02*
X014885Y013376D01*
X015328Y013376D02*
X023973Y013376D01*
X023943Y013278D02*
X015412Y013278D01*
X015453Y013179D02*
X023914Y013179D01*
X023879Y013081D02*
X015455Y013081D01*
X015433Y012982D02*
X023840Y012982D01*
X023802Y012884D02*
X015378Y012884D01*
X015244Y012785D02*
X023763Y012785D01*
X024002Y013475D02*
X014526Y013475D01*
X014526Y013573D02*
X024031Y013573D01*
X024061Y013672D02*
X022034Y013672D01*
X022006Y013660D02*
X022171Y013729D01*
X022298Y013855D01*
X022366Y014021D01*
X022366Y014200D01*
X022298Y014365D01*
X022171Y014492D01*
X022006Y014560D01*
X021827Y014560D01*
X021661Y014492D01*
X021535Y014365D01*
X021466Y014200D01*
X021466Y014021D01*
X021535Y013855D01*
X021661Y013729D01*
X021827Y013660D01*
X022006Y013660D01*
X021798Y013672D02*
X021034Y013672D01*
X021006Y013660D02*
X021171Y013729D01*
X021298Y013855D01*
X021366Y014021D01*
X021366Y014200D01*
X021298Y014365D01*
X021171Y014492D01*
X021006Y014560D01*
X020827Y014560D01*
X020661Y014492D01*
X020535Y014365D01*
X020466Y014200D01*
X020466Y014021D01*
X020535Y013855D01*
X020661Y013729D01*
X020827Y013660D01*
X021006Y013660D01*
X020798Y013672D02*
X014526Y013672D01*
X014526Y013770D02*
X020619Y013770D01*
X020529Y013869D02*
X017563Y013869D01*
X017656Y013967D02*
X020488Y013967D01*
X020466Y014066D02*
X017696Y014066D01*
X017705Y014164D02*
X020466Y014164D01*
X020492Y014263D02*
X017689Y014263D01*
X017643Y014361D02*
X020533Y014361D01*
X020630Y014460D02*
X017553Y014460D01*
X017652Y014558D02*
X020823Y014558D01*
X020827Y014660D02*
X021006Y014660D01*
X021171Y014729D01*
X021298Y014855D01*
X021366Y015021D01*
X021366Y015200D01*
X021298Y015365D01*
X021171Y015492D01*
X021006Y015560D01*
X020827Y015560D01*
X020661Y015492D01*
X020535Y015365D01*
X020466Y015200D01*
X020466Y015021D01*
X020535Y014855D01*
X020661Y014729D01*
X020827Y014660D01*
X021010Y014558D02*
X021823Y014558D01*
X021827Y014660D02*
X022006Y014660D01*
X022171Y014729D01*
X022298Y014855D01*
X022366Y015021D01*
X022366Y015200D01*
X022298Y015365D01*
X022171Y015492D01*
X022006Y015560D01*
X021827Y015560D01*
X021661Y015492D01*
X021535Y015365D01*
X021466Y015200D01*
X021466Y015021D01*
X021535Y014855D01*
X021661Y014729D01*
X021827Y014660D01*
X022010Y014558D02*
X024286Y014558D01*
X024265Y014460D02*
X022203Y014460D01*
X022299Y014361D02*
X024244Y014361D01*
X024224Y014263D02*
X022340Y014263D01*
X022366Y014164D02*
X024203Y014164D01*
X024178Y014066D02*
X022366Y014066D01*
X022344Y013967D02*
X024149Y013967D01*
X024119Y013869D02*
X022303Y013869D01*
X022213Y013770D02*
X024090Y013770D01*
X024306Y014657D02*
X017693Y014657D01*
X017705Y014755D02*
X020634Y014755D01*
X020536Y014854D02*
X017693Y014854D01*
X017652Y014952D02*
X020494Y014952D01*
X020466Y015051D02*
X019195Y015051D01*
X019154Y015010D02*
X019252Y015108D01*
X019305Y015236D01*
X019305Y015375D01*
X019252Y015503D01*
X019154Y015601D01*
X019026Y015654D01*
X018887Y015654D01*
X018759Y015601D01*
X018661Y015503D01*
X018608Y015375D01*
X018608Y015236D01*
X018661Y015108D01*
X018759Y015010D01*
X018887Y014957D01*
X019026Y014957D01*
X019154Y015010D01*
X019269Y015149D02*
X020466Y015149D01*
X020486Y015248D02*
X019305Y015248D01*
X019305Y015346D02*
X020527Y015346D01*
X020615Y015445D02*
X019276Y015445D01*
X019211Y015543D02*
X020786Y015543D01*
X020649Y015740D02*
X017665Y015740D01*
X017705Y015839D02*
X020551Y015839D01*
X020501Y015937D02*
X017705Y015937D01*
X017679Y016036D02*
X020466Y016036D01*
X020466Y016134D02*
X017620Y016134D01*
X017495Y016233D02*
X020480Y016233D01*
X020521Y016331D02*
X017594Y016331D01*
X017556Y016605D02*
X021411Y016605D01*
X021916Y017110D01*
X021585Y017415D02*
X021248Y017415D01*
X021318Y017316D02*
X021515Y017316D01*
X021714Y017513D02*
X021118Y017513D01*
X021078Y017710D02*
X021705Y017710D01*
X021661Y017729D02*
X021827Y017660D01*
X022006Y017660D01*
X022171Y017729D01*
X022298Y017855D01*
X022366Y018021D01*
X022366Y018200D01*
X022298Y018365D01*
X022171Y018492D01*
X022006Y018560D01*
X021827Y018560D01*
X021661Y018492D01*
X021535Y018365D01*
X021466Y018200D01*
X021466Y018021D01*
X021535Y017855D01*
X021661Y017729D01*
X021581Y017809D02*
X021223Y017809D01*
X021244Y017830D02*
X021284Y017885D01*
X021315Y017945D01*
X021336Y018009D01*
X021345Y018070D01*
X020956Y018070D01*
X020956Y017681D01*
X021017Y017691D01*
X021081Y017712D01*
X021142Y017742D01*
X021196Y017782D01*
X021244Y017830D01*
X021296Y017907D02*
X021513Y017907D01*
X021472Y018006D02*
X021334Y018006D01*
X021345Y018150D02*
X021336Y018211D01*
X021315Y018275D01*
X021284Y018336D01*
X021244Y018390D01*
X021196Y018438D01*
X021142Y018478D01*
X021081Y018509D01*
X021017Y018530D01*
X020956Y018539D01*
X020956Y018150D01*
X020876Y018150D01*
X020876Y018070D01*
X020487Y018070D01*
X020497Y018009D01*
X020518Y017945D01*
X020548Y017885D01*
X020588Y017830D01*
X020636Y017782D01*
X020691Y017742D01*
X020751Y017712D01*
X020815Y017691D01*
X020876Y017681D01*
X020876Y018070D01*
X020956Y018070D01*
X020956Y018150D01*
X021345Y018150D01*
X021337Y018203D02*
X021468Y018203D01*
X021466Y018104D02*
X020956Y018104D01*
X020876Y018104D02*
X020222Y018104D01*
X020123Y018006D02*
X020498Y018006D01*
X020537Y017907D02*
X020025Y017907D01*
X019926Y017809D02*
X020609Y017809D01*
X020755Y017710D02*
X019828Y017710D01*
X019711Y017905D02*
X020916Y019110D01*
X021091Y018695D02*
X021741Y018695D01*
X021661Y018729D02*
X021827Y018660D01*
X022006Y018660D01*
X022171Y018729D01*
X022298Y018855D01*
X022366Y019021D01*
X022366Y019200D01*
X022298Y019365D01*
X022171Y019492D01*
X022006Y019560D01*
X021827Y019560D01*
X021661Y019492D01*
X021535Y019365D01*
X021466Y019200D01*
X021466Y019021D01*
X021535Y018855D01*
X021661Y018729D01*
X021596Y018794D02*
X021236Y018794D01*
X021313Y018892D02*
X021519Y018892D01*
X021478Y018991D02*
X021354Y018991D01*
X021366Y019089D02*
X021466Y019089D01*
X021466Y019188D02*
X021366Y019188D01*
X021330Y019286D02*
X021502Y019286D01*
X021555Y019385D02*
X021278Y019385D01*
X021179Y019483D02*
X021653Y019483D01*
X021778Y019680D02*
X021055Y019680D01*
X021006Y019660D02*
X021171Y019729D01*
X021298Y019855D01*
X021366Y020021D01*
X021366Y020200D01*
X021298Y020365D01*
X021171Y020492D01*
X021006Y020560D01*
X020827Y020560D01*
X020661Y020492D01*
X020535Y020365D01*
X020466Y020200D01*
X020466Y020021D01*
X020535Y019855D01*
X020661Y019729D01*
X020827Y019660D01*
X021006Y019660D01*
X020778Y019680D02*
X011402Y019680D01*
X011365Y019718D02*
X011230Y019774D01*
X011083Y019774D01*
X010948Y019718D01*
X010844Y019614D01*
X010788Y019479D01*
X010788Y019332D01*
X010844Y019197D01*
X010948Y019093D01*
X011083Y019037D01*
X011230Y019037D01*
X011365Y019093D01*
X011468Y019197D01*
X011524Y019332D01*
X011524Y019479D01*
X011468Y019614D01*
X011365Y019718D01*
X011482Y019582D02*
X024302Y019582D01*
X024282Y019680D02*
X022055Y019680D01*
X022006Y019660D02*
X022171Y019729D01*
X022298Y019855D01*
X022366Y020021D01*
X022366Y020200D01*
X022298Y020365D01*
X022171Y020492D01*
X022006Y020560D01*
X021827Y020560D01*
X021661Y020492D01*
X021535Y020365D01*
X021466Y020200D01*
X021466Y020021D01*
X021535Y019855D01*
X021661Y019729D01*
X021827Y019660D01*
X022006Y019660D01*
X022221Y019779D02*
X024261Y019779D01*
X024240Y019877D02*
X022307Y019877D01*
X022348Y019976D02*
X024220Y019976D01*
X024199Y020074D02*
X022366Y020074D01*
X022366Y020173D02*
X024172Y020173D01*
X024143Y020271D02*
X022336Y020271D01*
X022293Y020370D02*
X024114Y020370D01*
X024084Y020468D02*
X022194Y020468D01*
X021638Y020468D02*
X021194Y020468D01*
X021293Y020370D02*
X021540Y020370D01*
X021496Y020271D02*
X021336Y020271D01*
X021366Y020173D02*
X021466Y020173D01*
X021466Y020074D02*
X021366Y020074D01*
X021348Y019976D02*
X021485Y019976D01*
X021525Y019877D02*
X021307Y019877D01*
X021221Y019779D02*
X021611Y019779D01*
X022179Y019483D02*
X024323Y019483D01*
X024344Y019385D02*
X022278Y019385D01*
X022330Y019286D02*
X024364Y019286D01*
X024385Y019188D02*
X022366Y019188D01*
X022366Y019089D02*
X024403Y019089D01*
X024415Y018991D02*
X022354Y018991D01*
X022313Y018892D02*
X024428Y018892D01*
X024440Y018794D02*
X022236Y018794D01*
X022091Y018695D02*
X024452Y018695D01*
X024464Y018597D02*
X020714Y018597D01*
X020751Y018509D02*
X020691Y018478D01*
X020636Y018438D01*
X020588Y018390D01*
X020548Y018336D01*
X020518Y018275D01*
X020497Y018211D01*
X020487Y018150D01*
X020876Y018150D01*
X020876Y018539D01*
X020815Y018530D01*
X020751Y018509D01*
X020731Y018498D02*
X020616Y018498D01*
X020598Y018400D02*
X020517Y018400D01*
X020531Y018301D02*
X020419Y018301D01*
X020496Y018203D02*
X020320Y018203D01*
X020092Y018597D02*
X019355Y018597D01*
X019355Y018586D02*
X019302Y018458D01*
X019204Y018360D01*
X019076Y018307D01*
X018937Y018307D01*
X018809Y018360D01*
X018711Y018458D01*
X018658Y018586D01*
X018658Y018725D01*
X018711Y018853D01*
X018809Y018951D01*
X018937Y019004D01*
X019076Y019004D01*
X019204Y018951D01*
X019302Y018853D01*
X019355Y018725D01*
X019355Y018586D01*
X019318Y018498D02*
X019993Y018498D01*
X019895Y018400D02*
X019244Y018400D01*
X019355Y018695D02*
X020190Y018695D01*
X020289Y018794D02*
X019326Y018794D01*
X019262Y018892D02*
X020387Y018892D01*
X020478Y018991D02*
X019107Y018991D01*
X018906Y018991D02*
X017277Y018991D01*
X017252Y019053D02*
X017154Y019151D01*
X017026Y019204D01*
X016887Y019204D01*
X016759Y019151D01*
X016661Y019053D01*
X016608Y018925D01*
X016608Y018786D01*
X016661Y018658D01*
X016759Y018560D01*
X016887Y018507D01*
X017026Y018507D01*
X017154Y018560D01*
X017252Y018658D01*
X017305Y018786D01*
X017305Y018925D01*
X017252Y019053D01*
X017215Y019089D02*
X020466Y019089D01*
X020466Y019188D02*
X017064Y019188D01*
X016849Y019188D02*
X014167Y019188D01*
X014154Y019201D02*
X014026Y019254D01*
X013887Y019254D01*
X013759Y019201D01*
X013661Y019103D01*
X013608Y018975D01*
X013608Y018836D01*
X013661Y018708D01*
X013759Y018610D01*
X013887Y018557D01*
X014026Y018557D01*
X014154Y018610D01*
X014252Y018708D01*
X014305Y018836D01*
X014305Y018975D01*
X014252Y019103D01*
X014154Y019201D01*
X014257Y019089D02*
X016698Y019089D01*
X016635Y018991D02*
X014298Y018991D01*
X014305Y018892D02*
X016608Y018892D01*
X016608Y018794D02*
X014287Y018794D01*
X014239Y018695D02*
X016645Y018695D01*
X016722Y018597D02*
X014122Y018597D01*
X013791Y018597D02*
X012446Y018597D01*
X012405Y018695D02*
X013674Y018695D01*
X013625Y018794D02*
X012311Y018794D01*
X012106Y018505D02*
X012306Y018305D01*
X015956Y018305D01*
X016056Y018205D01*
X016405Y018203D02*
X019698Y018203D01*
X019796Y018301D02*
X016394Y018301D01*
X016353Y018400D02*
X018769Y018400D01*
X018694Y018498D02*
X016256Y018498D01*
X016392Y018104D02*
X018144Y018104D01*
X018046Y018006D02*
X016350Y018006D01*
X016247Y017907D02*
X017947Y017907D01*
X017849Y017809D02*
X015094Y017809D01*
X015105Y017907D02*
X015865Y017907D01*
X015763Y018006D02*
X015092Y018006D01*
X015053Y017710D02*
X017750Y017710D01*
X017652Y017612D02*
X014956Y017612D01*
X014967Y017415D02*
X017455Y017415D01*
X017553Y017513D02*
X014676Y017513D01*
X014422Y017260D02*
X014388Y017179D01*
X014388Y017154D01*
X014316Y017154D01*
X014422Y017260D01*
X014405Y017218D02*
X014380Y017218D01*
X014356Y016805D02*
X014406Y016755D01*
X015056Y016755D01*
X015306Y017005D01*
X015706Y017005D01*
X015956Y016755D01*
X017106Y016755D01*
X018256Y017905D01*
X019711Y017905D01*
X018751Y018892D02*
X017305Y018892D01*
X017305Y018794D02*
X018687Y018794D01*
X018658Y018695D02*
X017267Y018695D01*
X017191Y018597D02*
X018658Y018597D01*
X018274Y017612D02*
X024545Y017612D01*
X024541Y017710D02*
X022127Y017710D01*
X022251Y017809D02*
X024537Y017809D01*
X024533Y017907D02*
X022319Y017907D01*
X022360Y018006D02*
X024529Y018006D01*
X024525Y018104D02*
X022366Y018104D01*
X022365Y018203D02*
X024514Y018203D01*
X024501Y018301D02*
X022324Y018301D01*
X022263Y018400D02*
X024489Y018400D01*
X024477Y018498D02*
X022155Y018498D01*
X021678Y018498D02*
X021101Y018498D01*
X020956Y018498D02*
X020876Y018498D01*
X020876Y018400D02*
X020956Y018400D01*
X020956Y018301D02*
X020876Y018301D01*
X020876Y018203D02*
X020956Y018203D01*
X020956Y018006D02*
X020876Y018006D01*
X020876Y017907D02*
X020956Y017907D01*
X020956Y017809D02*
X020876Y017809D01*
X020876Y017710D02*
X020956Y017710D01*
X020714Y017513D02*
X018473Y017513D01*
X018590Y017415D02*
X020585Y017415D01*
X020515Y017316D02*
X018637Y017316D01*
X018097Y016922D02*
X017585Y016922D01*
X017683Y017021D02*
X018006Y017021D01*
X017965Y017119D02*
X017782Y017119D01*
X017880Y017218D02*
X017958Y017218D01*
X017356Y017316D02*
X015066Y017316D01*
X015108Y017218D02*
X015208Y017218D01*
X015805Y017218D02*
X017258Y017218D01*
X017159Y017119D02*
X015903Y017119D01*
X016002Y017021D02*
X017061Y017021D01*
X017175Y016535D02*
X017065Y016425D01*
X015830Y016425D01*
X015874Y016532D01*
X015874Y016535D01*
X017175Y016535D01*
X017168Y016528D02*
X015873Y016528D01*
X015832Y016430D02*
X017070Y016430D01*
X017156Y016205D02*
X015156Y016205D01*
X015056Y016305D01*
X014406Y016305D01*
X014356Y016355D01*
X014217Y016036D02*
X013976Y016036D01*
X013976Y016134D02*
X014085Y016134D01*
X014030Y016233D02*
X013976Y016233D01*
X013976Y016331D02*
X014008Y016331D01*
X014010Y016430D02*
X013976Y016430D01*
X013976Y016528D02*
X014051Y016528D01*
X014053Y016627D02*
X013976Y016627D01*
X013976Y016725D02*
X014012Y016725D01*
X014008Y016824D02*
X013986Y016824D01*
X013756Y016905D02*
X013756Y014405D01*
X014306Y013855D01*
X014306Y012355D01*
X015106Y011555D01*
X014706Y011405D02*
X014706Y010855D01*
X014387Y010717D02*
X013726Y010717D01*
X013726Y010815D02*
X014358Y010815D01*
X014358Y010914D02*
X013726Y010914D01*
X013726Y011012D02*
X014394Y011012D01*
X014355Y011111D02*
X014469Y011111D01*
X014452Y011209D02*
X014486Y011209D01*
X014706Y011405D02*
X014056Y012055D01*
X014056Y012755D01*
X013506Y013305D01*
X013506Y017055D01*
X014056Y017605D01*
X014056Y017905D01*
X014359Y018085D02*
X014454Y018085D01*
X014408Y017975D01*
X014408Y017868D01*
X014405Y017865D01*
X014405Y017975D01*
X014359Y018085D01*
X014392Y018006D02*
X014421Y018006D01*
X014408Y017907D02*
X014405Y017907D01*
X014756Y017905D02*
X013756Y016905D01*
X013306Y017305D02*
X013606Y017605D01*
X013456Y017955D02*
X012606Y017955D01*
X012356Y017705D01*
X011906Y017705D01*
X011656Y017955D01*
X011656Y018255D01*
X011306Y018605D01*
X009856Y018605D01*
X008406Y017205D01*
X008058Y017218D02*
X008026Y017218D01*
X008026Y017316D02*
X008075Y017316D01*
X008026Y017415D02*
X008123Y017415D01*
X008117Y017513D02*
X008026Y017513D01*
X008026Y017119D02*
X008065Y017119D01*
X008026Y017021D02*
X008106Y017021D01*
X008026Y016922D02*
X008197Y016922D01*
X008026Y016824D02*
X008658Y016824D01*
X008658Y016825D02*
X008658Y016686D01*
X008711Y016558D01*
X008809Y016460D01*
X008937Y016407D01*
X009076Y016407D01*
X009204Y016460D01*
X009302Y016558D01*
X009355Y016686D01*
X009355Y016825D01*
X009302Y016953D01*
X009204Y017051D01*
X009076Y017104D01*
X008937Y017104D01*
X008809Y017051D01*
X008711Y016953D01*
X008658Y016825D01*
X008658Y016725D02*
X008026Y016725D01*
X008026Y016627D02*
X008682Y016627D01*
X008741Y016528D02*
X008026Y016528D01*
X008026Y016430D02*
X008882Y016430D01*
X009131Y016430D02*
X009602Y016430D01*
X009641Y016528D02*
X009272Y016528D01*
X009330Y016627D02*
X009582Y016627D01*
X009558Y016725D02*
X009355Y016725D01*
X009355Y016824D02*
X009558Y016824D01*
X009598Y016922D02*
X009314Y016922D01*
X009234Y017021D02*
X009584Y017021D01*
X009544Y017119D02*
X008748Y017119D01*
X008755Y017218D02*
X009538Y017218D01*
X009705Y017612D02*
X011689Y017612D01*
X011787Y017513D02*
X010119Y017513D01*
X010217Y017415D02*
X012858Y017415D01*
X012886Y017316D02*
X010259Y017316D01*
X010274Y017218D02*
X012886Y017218D01*
X012886Y017119D02*
X010269Y017119D01*
X010228Y017021D02*
X012886Y017021D01*
X012886Y016922D02*
X010214Y016922D01*
X010255Y016824D02*
X012886Y016824D01*
X012886Y016725D02*
X010255Y016725D01*
X010230Y016627D02*
X012886Y016627D01*
X012886Y016528D02*
X010172Y016528D01*
X010211Y016430D02*
X012886Y016430D01*
X012886Y016331D02*
X010252Y016331D01*
X010255Y016233D02*
X012886Y016233D01*
X012886Y016134D02*
X010233Y016134D01*
X010180Y016036D02*
X012886Y016036D01*
X012886Y015937D02*
X010049Y015937D01*
X009764Y015937D02*
X008026Y015937D01*
X008026Y015839D02*
X012886Y015839D01*
X012886Y015740D02*
X008032Y015740D01*
X008131Y015642D02*
X009200Y015642D01*
X009107Y015543D02*
X008229Y015543D01*
X008328Y015445D02*
X009066Y015445D01*
X009058Y015346D02*
X008426Y015346D01*
X008525Y015248D02*
X009074Y015248D01*
X009120Y015149D02*
X008623Y015149D01*
X008722Y015051D02*
X009231Y015051D01*
X009498Y014952D02*
X008820Y014952D01*
X008919Y014854D02*
X009597Y014854D01*
X009695Y014755D02*
X009017Y014755D01*
X009116Y014657D02*
X009794Y014657D01*
X009892Y014558D02*
X009214Y014558D01*
X009313Y014460D02*
X010181Y014460D01*
X010006Y014755D02*
X010406Y014755D01*
X010764Y014657D02*
X011244Y014657D01*
X011342Y014558D02*
X010723Y014558D01*
X010631Y014460D02*
X011441Y014460D01*
X011539Y014361D02*
X009411Y014361D01*
X009510Y014263D02*
X011638Y014263D01*
X011736Y014164D02*
X009608Y014164D01*
X009707Y014066D02*
X011835Y014066D01*
X011933Y013967D02*
X010514Y013967D01*
X010636Y013869D02*
X012032Y013869D01*
X012130Y013770D02*
X010686Y013770D01*
X010705Y013672D02*
X012229Y013672D01*
X012327Y013573D02*
X010700Y013573D01*
X010659Y013475D02*
X012426Y013475D01*
X012524Y013376D02*
X010578Y013376D01*
X010662Y013278D02*
X012623Y013278D01*
X012686Y013179D02*
X010703Y013179D01*
X010705Y013081D02*
X012686Y013081D01*
X012686Y012982D02*
X010683Y012982D01*
X010628Y012884D02*
X012686Y012884D01*
X012686Y012785D02*
X010494Y012785D01*
X010218Y012785D02*
X010129Y012785D01*
X010150Y012687D02*
X012714Y012687D01*
X012812Y012588D02*
X010155Y012588D01*
X010136Y012490D02*
X012911Y012490D01*
X012936Y012391D02*
X012313Y012391D01*
X012304Y012401D02*
X012402Y012303D01*
X012455Y012175D01*
X012455Y012036D01*
X012402Y011908D01*
X012304Y011810D01*
X012176Y011757D01*
X012171Y011757D01*
X012205Y011675D01*
X012205Y011536D01*
X012152Y011408D01*
X012054Y011310D01*
X011926Y011257D01*
X011787Y011257D01*
X011755Y011270D01*
X011755Y011186D01*
X011702Y011058D01*
X011604Y010960D01*
X011476Y010907D01*
X011337Y010907D01*
X011209Y010960D01*
X011111Y011058D01*
X011058Y011186D01*
X011058Y011325D01*
X011111Y011453D01*
X011209Y011551D01*
X011337Y011604D01*
X011476Y011604D01*
X011508Y011591D01*
X011508Y011675D01*
X011561Y011803D01*
X011659Y011901D01*
X011787Y011954D01*
X011792Y011954D01*
X011758Y012036D01*
X011758Y012175D01*
X011811Y012303D01*
X011909Y012401D01*
X012037Y012454D01*
X012176Y012454D01*
X012304Y012401D01*
X012406Y012293D02*
X012936Y012293D01*
X012936Y012194D02*
X012447Y012194D01*
X012455Y012096D02*
X012936Y012096D01*
X012936Y011997D02*
X012439Y011997D01*
X012393Y011899D02*
X012929Y011899D01*
X012839Y011800D02*
X012281Y011800D01*
X012194Y011702D02*
X012798Y011702D01*
X012788Y011603D02*
X012205Y011603D01*
X012192Y011505D02*
X012800Y011505D01*
X012840Y011406D02*
X012150Y011406D01*
X012049Y011308D02*
X012933Y011308D01*
X013094Y011111D02*
X013286Y011111D01*
X013286Y011209D02*
X011755Y011209D01*
X011724Y011111D02*
X012619Y011111D01*
X012544Y011012D02*
X011656Y011012D01*
X011492Y010914D02*
X012508Y010914D01*
X012455Y010815D02*
X010655Y010815D01*
X010655Y010717D02*
X012357Y010717D01*
X012258Y010618D02*
X010627Y010618D01*
X010564Y010520D02*
X012160Y010520D01*
X012061Y010421D02*
X010565Y010421D01*
X010605Y010323D02*
X011963Y010323D01*
X011864Y010224D02*
X010605Y010224D01*
X010829Y010126D02*
X011766Y010126D01*
X011736Y010027D02*
X010912Y010027D01*
X010953Y009929D02*
X011736Y009929D01*
X011736Y009830D02*
X010955Y009830D01*
X010932Y009732D02*
X011736Y009732D01*
X011736Y009633D02*
X010877Y009633D01*
X010743Y009535D02*
X011736Y009535D01*
X011736Y009436D02*
X010455Y009436D01*
X010455Y009535D02*
X010470Y009535D01*
X010414Y009338D02*
X011678Y009338D01*
X011579Y009239D02*
X010333Y009239D01*
X010055Y009141D02*
X011481Y009141D01*
X011382Y009042D02*
X010055Y009042D01*
X010017Y008944D02*
X011284Y008944D01*
X011185Y008845D02*
X009939Y008845D01*
X009858Y008747D02*
X011087Y008747D01*
X010988Y008648D02*
X009924Y008648D01*
X009955Y008550D02*
X010778Y008550D01*
X010610Y008451D02*
X009955Y008451D01*
X009920Y008353D02*
X010540Y008353D01*
X010508Y008254D02*
X009848Y008254D01*
X009556Y007955D02*
X009556Y007905D01*
X009365Y008254D02*
X003971Y008254D01*
X004070Y008156D02*
X010508Y008156D01*
X010541Y008057D02*
X004182Y008057D01*
X004298Y007959D02*
X010610Y007959D01*
X010856Y008205D02*
X011956Y009305D01*
X011956Y010005D01*
X012806Y010855D01*
X012856Y010855D01*
X013176Y010717D02*
X013286Y010717D01*
X013286Y010815D02*
X013205Y010815D01*
X013205Y010914D02*
X013286Y010914D01*
X013286Y011012D02*
X013168Y011012D01*
X013726Y011111D02*
X013958Y011111D01*
X013860Y011209D02*
X013726Y011209D01*
X013726Y011308D02*
X013820Y011308D01*
X013808Y011406D02*
X013726Y011406D01*
X013726Y011505D02*
X013746Y011505D01*
X013806Y011755D02*
X014156Y011405D01*
X013806Y011755D02*
X013806Y012605D01*
X013306Y013105D01*
X013306Y017305D01*
X013106Y017555D02*
X013156Y017605D01*
X013106Y017555D02*
X013106Y012955D01*
X013506Y012555D01*
X013506Y010555D01*
X013406Y010455D01*
X012756Y010455D01*
X012306Y010005D01*
X012306Y009855D01*
X012544Y009929D02*
X013258Y009929D01*
X013259Y010027D02*
X012639Y010027D01*
X012738Y010126D02*
X013300Y010126D01*
X013383Y010224D02*
X012836Y010224D01*
X012642Y009830D02*
X013281Y009830D01*
X013337Y009732D02*
X012741Y009732D01*
X012839Y009633D02*
X013473Y009633D01*
X013739Y009633D02*
X013988Y009633D01*
X014037Y009654D02*
X013909Y009601D01*
X013811Y009503D01*
X013758Y009375D01*
X013758Y009236D01*
X013811Y009108D01*
X013909Y009010D01*
X014037Y008957D01*
X014176Y008957D01*
X014304Y009010D01*
X014402Y009108D01*
X014455Y009236D01*
X014455Y009375D01*
X014402Y009503D01*
X014304Y009601D01*
X014176Y009654D01*
X014037Y009654D01*
X013876Y009732D02*
X015884Y009732D01*
X015937Y009754D02*
X015809Y009701D01*
X015711Y009603D01*
X015658Y009475D01*
X015658Y009336D01*
X015711Y009208D01*
X015809Y009110D01*
X015937Y009057D01*
X016076Y009057D01*
X016204Y009110D01*
X016302Y009208D01*
X016355Y009336D01*
X016355Y009475D01*
X016302Y009603D01*
X016204Y009701D01*
X016076Y009754D01*
X015937Y009754D01*
X016129Y009732D02*
X017152Y009732D01*
X017152Y009633D02*
X016271Y009633D01*
X016330Y009535D02*
X017152Y009535D01*
X017172Y009436D02*
X016355Y009436D01*
X016355Y009338D02*
X017213Y009338D01*
X017254Y009239D02*
X016315Y009239D01*
X016235Y009141D02*
X017342Y009141D01*
X017440Y009042D02*
X014336Y009042D01*
X014415Y009141D02*
X015778Y009141D01*
X015698Y009239D02*
X014455Y009239D01*
X014455Y009338D02*
X015658Y009338D01*
X015658Y009436D02*
X014429Y009436D01*
X014370Y009535D02*
X015683Y009535D01*
X015742Y009633D02*
X014225Y009633D01*
X013932Y009830D02*
X017175Y009830D01*
X017216Y009929D02*
X013955Y009929D01*
X013954Y010027D02*
X017257Y010027D01*
X017349Y010126D02*
X013913Y010126D01*
X013830Y010224D02*
X017448Y010224D01*
X017644Y008944D02*
X013276Y008944D01*
X013276Y009042D02*
X013877Y009042D01*
X013797Y009141D02*
X013276Y009141D01*
X013233Y009239D02*
X013758Y009239D01*
X013758Y009338D02*
X013135Y009338D01*
X013036Y009436D02*
X013783Y009436D01*
X013843Y009535D02*
X012938Y009535D01*
X013726Y010520D02*
X014606Y010520D01*
X014451Y010618D02*
X013726Y010618D01*
X013156Y011605D02*
X013156Y012555D01*
X012906Y012805D01*
X012906Y013305D01*
X010856Y015355D01*
X009406Y015355D01*
X010006Y014755D01*
X010022Y015051D02*
X010181Y015051D01*
X010631Y015051D02*
X010850Y015051D01*
X010948Y014952D02*
X010723Y014952D01*
X010764Y014854D02*
X011047Y014854D01*
X011145Y014755D02*
X010774Y014755D01*
X011275Y015248D02*
X012886Y015248D01*
X012886Y015346D02*
X011176Y015346D01*
X011078Y015445D02*
X012886Y015445D01*
X012886Y015543D02*
X010979Y015543D01*
X011373Y015149D02*
X012886Y015149D01*
X012886Y015051D02*
X011472Y015051D01*
X011570Y014952D02*
X012886Y014952D01*
X012886Y014854D02*
X011669Y014854D01*
X011767Y014755D02*
X012886Y014755D01*
X012886Y014657D02*
X011866Y014657D01*
X011964Y014558D02*
X012886Y014558D01*
X012886Y014460D02*
X012063Y014460D01*
X012161Y014361D02*
X012886Y014361D01*
X012886Y014263D02*
X012260Y014263D01*
X012358Y014164D02*
X012886Y014164D01*
X012886Y014066D02*
X012457Y014066D01*
X012555Y013967D02*
X012886Y013967D01*
X012886Y013869D02*
X012654Y013869D01*
X012752Y013770D02*
X012886Y013770D01*
X012886Y013672D02*
X012851Y013672D01*
X013726Y014050D02*
X013726Y014124D01*
X013779Y014072D01*
X013726Y014050D01*
X013726Y014066D02*
X013765Y014066D01*
X014013Y014460D02*
X017159Y014460D01*
X017070Y014361D02*
X014111Y014361D01*
X014210Y014263D02*
X017024Y014263D01*
X017008Y014164D02*
X014308Y014164D01*
X014407Y014066D02*
X017016Y014066D01*
X017057Y013967D02*
X014505Y013967D01*
X014526Y013869D02*
X017150Y013869D01*
X017061Y014558D02*
X013976Y014558D01*
X013976Y014657D02*
X017020Y014657D01*
X017008Y014755D02*
X013976Y014755D01*
X013976Y014854D02*
X017020Y014854D01*
X017061Y014952D02*
X013976Y014952D01*
X013976Y015051D02*
X017159Y015051D01*
X017070Y015149D02*
X013976Y015149D01*
X013976Y015248D02*
X017024Y015248D01*
X017008Y015346D02*
X013976Y015346D01*
X013976Y015445D02*
X017016Y015445D01*
X017057Y015543D02*
X013976Y015543D01*
X013976Y015642D02*
X017127Y015642D01*
X017048Y015740D02*
X013976Y015740D01*
X013976Y015839D02*
X017008Y015839D01*
X017008Y015937D02*
X013976Y015937D01*
X014496Y016036D02*
X015015Y016036D01*
X015141Y016525D02*
X014663Y016525D01*
X014659Y016535D01*
X015138Y016535D01*
X015138Y016532D01*
X015141Y016525D01*
X015140Y016528D02*
X014662Y016528D01*
X012886Y015642D02*
X009613Y015642D01*
X009633Y016036D02*
X008026Y016036D01*
X008026Y016134D02*
X009579Y016134D01*
X009558Y016233D02*
X008026Y016233D01*
X008026Y016331D02*
X009561Y016331D01*
X008779Y017021D02*
X008707Y017021D01*
X008698Y016922D02*
X008616Y016922D01*
X008838Y017316D02*
X009153Y017316D01*
X009058Y017415D02*
X008940Y017415D01*
X008715Y017809D02*
X008643Y017809D01*
X008634Y017907D02*
X008817Y017907D01*
X008919Y018006D02*
X008593Y018006D01*
X008500Y018104D02*
X009021Y018104D01*
X009123Y018203D02*
X008026Y018203D01*
X008026Y018301D02*
X009225Y018301D01*
X009327Y018400D02*
X008026Y018400D01*
X008026Y018498D02*
X008446Y018498D01*
X008403Y018516D02*
X008531Y018463D01*
X008669Y018463D01*
X008797Y018516D01*
X008895Y018614D01*
X008948Y018742D01*
X008948Y018881D01*
X008895Y019009D01*
X008812Y019093D01*
X008854Y019110D01*
X008952Y019208D01*
X009005Y019336D01*
X009005Y019475D01*
X008952Y019603D01*
X008854Y019701D01*
X008726Y019754D01*
X008587Y019754D01*
X008459Y019701D01*
X008361Y019603D01*
X008308Y019475D01*
X008308Y019336D01*
X008361Y019208D01*
X008445Y019124D01*
X008403Y019107D01*
X008305Y019009D01*
X008252Y018881D01*
X008252Y018742D01*
X008305Y018614D01*
X008403Y018516D01*
X008322Y018597D02*
X008026Y018597D01*
X008026Y018695D02*
X008271Y018695D01*
X008252Y018794D02*
X008026Y018794D01*
X008026Y018892D02*
X008256Y018892D01*
X008297Y018991D02*
X008026Y018991D01*
X008026Y019089D02*
X008385Y019089D01*
X008381Y019188D02*
X008026Y019188D01*
X008026Y019286D02*
X008328Y019286D01*
X008308Y019385D02*
X008026Y019385D01*
X008026Y019483D02*
X008312Y019483D01*
X008352Y019582D02*
X008026Y019582D01*
X008026Y019680D02*
X008439Y019680D01*
X008659Y020010D02*
X008787Y019957D01*
X008926Y019957D01*
X009054Y020010D01*
X009152Y020108D01*
X009205Y020236D01*
X009205Y020375D01*
X009152Y020503D01*
X009054Y020601D01*
X008926Y020654D01*
X008787Y020654D01*
X008659Y020601D01*
X008561Y020503D01*
X008508Y020375D01*
X008508Y020236D01*
X008561Y020108D01*
X008659Y020010D01*
X008741Y019976D02*
X007797Y019976D01*
X007848Y020043D02*
X007983Y019987D01*
X008130Y019987D01*
X008265Y020043D01*
X008368Y020147D01*
X008424Y020282D01*
X008424Y020429D01*
X008368Y020564D01*
X008265Y020668D01*
X008130Y020724D01*
X007983Y020724D01*
X007908Y020692D01*
X007924Y020732D01*
X007924Y020879D01*
X007868Y021014D01*
X007765Y021118D01*
X007630Y021174D01*
X007483Y021174D01*
X007348Y021118D01*
X007244Y021014D01*
X007188Y020879D01*
X007188Y020732D01*
X007244Y020597D01*
X007348Y020493D01*
X007483Y020437D01*
X007630Y020437D01*
X007705Y020468D01*
X007688Y020429D01*
X007688Y020282D01*
X007744Y020147D01*
X007848Y020043D01*
X007817Y020074D02*
X007480Y020074D01*
X007733Y020173D02*
X003144Y020173D01*
X003115Y020143D02*
X003218Y020247D01*
X003274Y020382D01*
X003274Y020529D01*
X003218Y020664D01*
X003175Y020707D01*
X003276Y020707D01*
X003404Y020760D01*
X003502Y020858D01*
X003555Y020986D01*
X003555Y021125D01*
X003502Y021253D01*
X003404Y021351D01*
X003276Y021404D01*
X003137Y021404D01*
X003009Y021351D01*
X002911Y021253D01*
X002858Y021125D01*
X002858Y020986D01*
X002911Y020858D01*
X002945Y020824D01*
X002833Y020824D01*
X002698Y020768D01*
X002594Y020664D01*
X002538Y020529D01*
X002538Y020466D01*
X002454Y020551D01*
X002326Y020604D01*
X002187Y020604D01*
X002059Y020551D01*
X001961Y020453D01*
X001908Y020325D01*
X001908Y020186D01*
X001961Y020058D01*
X002059Y019960D01*
X002187Y019907D01*
X002326Y019907D01*
X002454Y019960D01*
X002552Y020058D01*
X002605Y020186D01*
X002605Y020236D01*
X002698Y020143D01*
X002833Y020087D01*
X002980Y020087D01*
X003115Y020143D01*
X003229Y020271D02*
X007693Y020271D01*
X007688Y020370D02*
X003269Y020370D01*
X003274Y020468D02*
X007408Y020468D01*
X007274Y020567D02*
X004238Y020567D01*
X004215Y020543D02*
X004318Y020647D01*
X004374Y020782D01*
X004374Y020929D01*
X004318Y021064D01*
X004215Y021168D01*
X004080Y021224D01*
X003933Y021224D01*
X003798Y021168D01*
X003694Y021064D01*
X003638Y020929D01*
X003638Y020782D01*
X003694Y020647D01*
X003798Y020543D01*
X003933Y020487D01*
X004080Y020487D01*
X004215Y020543D01*
X004326Y020665D02*
X007216Y020665D01*
X007188Y020764D02*
X004367Y020764D01*
X004374Y020862D02*
X007188Y020862D01*
X007222Y020961D02*
X004361Y020961D01*
X004320Y021059D02*
X007290Y021059D01*
X007446Y021158D02*
X004224Y021158D01*
X003788Y021158D02*
X003541Y021158D01*
X003555Y021059D02*
X003692Y021059D01*
X003652Y020961D02*
X003544Y020961D01*
X003504Y020862D02*
X003638Y020862D01*
X003646Y020764D02*
X003408Y020764D01*
X003217Y020665D02*
X003687Y020665D01*
X003774Y020567D02*
X003259Y020567D01*
X002909Y020862D02*
X000755Y020862D01*
X000726Y020764D02*
X002694Y020764D01*
X002596Y020665D02*
X000696Y020665D01*
X000667Y020567D02*
X002098Y020567D01*
X001977Y020468D02*
X000638Y020468D01*
X000608Y020370D02*
X001927Y020370D01*
X001908Y020271D02*
X000579Y020271D01*
X000550Y020173D02*
X001913Y020173D01*
X001954Y020074D02*
X000523Y020074D01*
X000502Y019976D02*
X002043Y019976D01*
X002259Y019751D02*
X002161Y019653D01*
X002108Y019525D01*
X002108Y019386D01*
X002161Y019258D01*
X002259Y019160D01*
X002387Y019107D01*
X002526Y019107D01*
X002654Y019160D01*
X002752Y019258D01*
X002805Y019386D01*
X002805Y019525D01*
X002752Y019653D01*
X002654Y019751D01*
X002526Y019804D01*
X002387Y019804D01*
X002259Y019751D01*
X002327Y019779D02*
X000461Y019779D01*
X000441Y019680D02*
X002189Y019680D01*
X002132Y019582D02*
X000420Y019582D01*
X000399Y019483D02*
X002108Y019483D01*
X002108Y019385D02*
X000379Y019385D01*
X000358Y019286D02*
X002149Y019286D01*
X002231Y019188D02*
X000337Y019188D01*
X000319Y019089D02*
X002758Y019089D01*
X002758Y019036D02*
X002811Y018908D01*
X002909Y018810D01*
X003037Y018757D01*
X003176Y018757D01*
X003304Y018810D01*
X003402Y018908D01*
X003455Y019036D01*
X003455Y019175D01*
X003402Y019303D01*
X003304Y019401D01*
X003176Y019454D01*
X003037Y019454D01*
X002909Y019401D01*
X002811Y019303D01*
X002758Y019175D01*
X002758Y019036D01*
X002777Y018991D02*
X000307Y018991D01*
X000295Y018892D02*
X002827Y018892D01*
X002948Y018794D02*
X000282Y018794D01*
X000270Y018695D02*
X006895Y018695D01*
X006858Y018794D02*
X003265Y018794D01*
X003386Y018892D02*
X006858Y018892D01*
X006885Y018991D02*
X003436Y018991D01*
X003455Y019089D02*
X006948Y019089D01*
X007099Y019188D02*
X003449Y019188D01*
X003408Y019286D02*
X007058Y019286D01*
X007058Y019385D02*
X003320Y019385D01*
X002893Y019385D02*
X002804Y019385D01*
X002805Y019483D02*
X007082Y019483D01*
X006987Y019582D02*
X002781Y019582D01*
X002724Y019680D02*
X006931Y019680D01*
X006908Y019779D02*
X002586Y019779D01*
X002470Y019976D02*
X006950Y019976D01*
X006909Y019877D02*
X000482Y019877D01*
X000784Y020961D02*
X002868Y020961D01*
X002858Y021059D02*
X000814Y021059D01*
X000851Y021158D02*
X002872Y021158D01*
X002915Y021256D02*
X000889Y021256D01*
X000928Y021355D02*
X003019Y021355D01*
X003394Y021355D02*
X011771Y021355D01*
X011759Y021360D02*
X011887Y021307D01*
X012026Y021307D01*
X012154Y021360D01*
X012252Y021458D01*
X012305Y021586D01*
X012305Y021725D01*
X012252Y021853D01*
X012154Y021951D01*
X012026Y022004D01*
X011887Y022004D01*
X011759Y021951D01*
X011661Y021853D01*
X011608Y021725D01*
X011608Y021586D01*
X011661Y021458D01*
X011759Y021360D01*
X011666Y021453D02*
X000966Y021453D01*
X001005Y021552D02*
X011622Y021552D01*
X011608Y021650D02*
X008731Y021650D01*
X008754Y021660D02*
X008852Y021758D01*
X008905Y021886D01*
X008905Y022025D01*
X008852Y022153D01*
X008754Y022251D01*
X008626Y022304D01*
X008487Y022304D01*
X008359Y022251D01*
X008261Y022153D01*
X008208Y022025D01*
X008208Y021886D01*
X008261Y021758D01*
X008359Y021660D01*
X008487Y021607D01*
X008626Y021607D01*
X008754Y021660D01*
X008843Y021749D02*
X011618Y021749D01*
X011659Y021847D02*
X008889Y021847D01*
X008905Y021946D02*
X011754Y021946D01*
X012159Y021946D02*
X016887Y021946D01*
X016894Y021964D02*
X016838Y021829D01*
X016838Y021682D01*
X016894Y021547D01*
X016998Y021443D01*
X017133Y021387D01*
X017280Y021387D01*
X017415Y021443D01*
X017518Y021547D01*
X017574Y021682D01*
X017574Y021829D01*
X017518Y021964D01*
X017415Y022068D01*
X017280Y022124D01*
X017133Y022124D01*
X016998Y022068D01*
X016894Y021964D01*
X016975Y022044D02*
X008897Y022044D01*
X008856Y022143D02*
X018338Y022143D01*
X018338Y022132D02*
X018394Y021997D01*
X018498Y021893D01*
X018633Y021837D01*
X018780Y021837D01*
X018915Y021893D01*
X019018Y021997D01*
X019074Y022132D01*
X019074Y022279D01*
X019018Y022414D01*
X018915Y022518D01*
X018780Y022574D01*
X018649Y022574D01*
X018347Y022875D01*
X013397Y022875D01*
X012455Y023818D01*
X012455Y023925D01*
X012402Y024053D01*
X012304Y024151D01*
X012176Y024204D01*
X012166Y024204D01*
X012326Y024364D01*
X012326Y025433D01*
X012402Y025508D01*
X012455Y025636D01*
X012455Y025775D01*
X012402Y025903D01*
X012304Y026001D01*
X012176Y026054D01*
X012037Y026054D01*
X011909Y026001D01*
X011811Y025903D01*
X011808Y025896D01*
X011804Y025901D01*
X011676Y025954D01*
X011537Y025954D01*
X011409Y025901D01*
X011311Y025803D01*
X011258Y025675D01*
X011258Y025536D01*
X011311Y025408D01*
X011409Y025310D01*
X011537Y025257D01*
X011676Y025257D01*
X011804Y025310D01*
X011886Y025393D01*
X011886Y024547D01*
X011803Y024463D01*
X011825Y024516D01*
X011825Y024655D01*
X011772Y024783D01*
X011674Y024881D01*
X011546Y024934D01*
X011407Y024934D01*
X011379Y024922D01*
X011424Y025032D01*
X011424Y025179D01*
X011368Y025314D01*
X011265Y025418D01*
X011130Y025474D01*
X010983Y025474D01*
X010848Y025418D01*
X010744Y025314D01*
X010688Y025179D01*
X010688Y025032D01*
X010744Y024897D01*
X010848Y024793D01*
X010983Y024737D01*
X011130Y024737D01*
X011169Y024754D01*
X011128Y024655D01*
X011128Y024516D01*
X011181Y024388D01*
X011279Y024290D01*
X011407Y024237D01*
X011546Y024237D01*
X011599Y024259D01*
X011538Y024199D01*
X011526Y024204D01*
X011387Y024204D01*
X011259Y024151D01*
X011161Y024053D01*
X011108Y023925D01*
X011108Y023786D01*
X011161Y023658D01*
X011259Y023560D01*
X011387Y023507D01*
X011526Y023507D01*
X011654Y023560D01*
X011752Y023658D01*
X011781Y023730D01*
X011811Y023658D01*
X011909Y023560D01*
X012037Y023507D01*
X012144Y023507D01*
X013086Y022564D01*
X013215Y022435D01*
X018165Y022435D01*
X018338Y022262D01*
X018338Y022132D01*
X018375Y022044D02*
X017438Y022044D01*
X017526Y021946D02*
X018445Y021946D01*
X018609Y021847D02*
X017567Y021847D01*
X017574Y021749D02*
X023641Y021749D01*
X023679Y021650D02*
X017561Y021650D01*
X017521Y021552D02*
X023718Y021552D01*
X023756Y021453D02*
X017425Y021453D01*
X016988Y021453D02*
X014641Y021453D01*
X014655Y021486D02*
X014602Y021358D01*
X014504Y021260D01*
X014376Y021207D01*
X014237Y021207D01*
X014109Y021260D01*
X014011Y021358D01*
X013958Y021486D01*
X013958Y021625D01*
X014011Y021753D01*
X014109Y021851D01*
X014237Y021904D01*
X014376Y021904D01*
X014504Y021851D01*
X014602Y021753D01*
X014655Y021625D01*
X014655Y021486D01*
X014655Y021552D02*
X016892Y021552D01*
X016851Y021650D02*
X014644Y021650D01*
X014603Y021749D02*
X016838Y021749D01*
X016846Y021847D02*
X014507Y021847D01*
X014106Y021847D02*
X012254Y021847D01*
X012295Y021749D02*
X014009Y021749D01*
X013969Y021650D02*
X012305Y021650D01*
X012291Y021552D02*
X013958Y021552D01*
X013971Y021453D02*
X013477Y021453D01*
X013476Y021454D02*
X013337Y021454D01*
X013209Y021401D01*
X013111Y021303D01*
X013058Y021175D01*
X013058Y021104D01*
X012937Y021104D01*
X012905Y021091D01*
X012905Y021175D01*
X012852Y021303D01*
X012754Y021401D01*
X012626Y021454D01*
X012487Y021454D01*
X012359Y021401D01*
X012261Y021303D01*
X012208Y021175D01*
X012208Y021036D01*
X012261Y020908D01*
X012359Y020810D01*
X012487Y020757D01*
X012626Y020757D01*
X012658Y020770D01*
X012658Y020686D01*
X012711Y020558D01*
X012809Y020460D01*
X012937Y020407D01*
X013076Y020407D01*
X013204Y020460D01*
X013302Y020558D01*
X013355Y020686D01*
X013355Y020757D01*
X013476Y020757D01*
X013604Y020810D01*
X013702Y020908D01*
X013755Y021036D01*
X013755Y021175D01*
X013702Y021303D01*
X013604Y021401D01*
X013476Y021454D01*
X013336Y021453D02*
X012627Y021453D01*
X012486Y021453D02*
X012247Y021453D01*
X012313Y021355D02*
X012141Y021355D01*
X012242Y021256D02*
X003498Y021256D01*
X002554Y020567D02*
X002415Y020567D01*
X002536Y020468D02*
X002538Y020468D01*
X002599Y020173D02*
X002668Y020173D01*
X002559Y020074D02*
X007033Y020074D01*
X007256Y019805D02*
X007656Y019805D01*
X007806Y019655D01*
X007806Y015655D01*
X010356Y013105D01*
X009906Y013055D02*
X007556Y015405D01*
X007556Y019205D01*
X007406Y019355D01*
X007206Y018855D02*
X007306Y018755D01*
X007306Y015105D01*
X009806Y012605D01*
X009528Y012391D02*
X001113Y012391D01*
X001151Y012293D02*
X009536Y012293D01*
X009508Y012194D02*
X001191Y012194D01*
X001239Y012096D02*
X009508Y012096D01*
X009545Y011997D02*
X007391Y011997D01*
X007376Y012004D02*
X007237Y012004D01*
X007109Y011951D01*
X007011Y011853D01*
X006958Y011725D01*
X006958Y011586D01*
X007011Y011458D01*
X007109Y011360D01*
X007237Y011307D01*
X007376Y011307D01*
X007504Y011360D01*
X007602Y011458D01*
X007655Y011586D01*
X007655Y011725D01*
X007602Y011853D01*
X007504Y011951D01*
X007376Y012004D01*
X007222Y011997D02*
X001287Y011997D01*
X001335Y011899D02*
X007057Y011899D01*
X006989Y011800D02*
X001383Y011800D01*
X001431Y011702D02*
X006958Y011702D01*
X006958Y011603D02*
X001480Y011603D01*
X001528Y011505D02*
X005538Y011505D01*
X005583Y011524D02*
X005448Y011468D01*
X005344Y011364D01*
X005288Y011229D01*
X005288Y011082D01*
X005344Y010947D01*
X005448Y010843D01*
X005583Y010787D01*
X005730Y010787D01*
X005865Y010843D01*
X005968Y010947D01*
X006024Y011082D01*
X006024Y011229D01*
X005968Y011364D01*
X005865Y011468D01*
X005730Y011524D01*
X005583Y011524D01*
X005774Y011505D02*
X006992Y011505D01*
X007063Y011406D02*
X005926Y011406D01*
X005992Y011308D02*
X007235Y011308D01*
X007378Y011308D02*
X009958Y011308D01*
X009969Y011209D02*
X006024Y011209D01*
X006024Y011111D02*
X010010Y011111D01*
X010071Y011012D02*
X005996Y011012D01*
X005935Y010914D02*
X009995Y010914D01*
X009958Y010815D02*
X005797Y010815D01*
X005515Y010815D02*
X001917Y010815D01*
X001976Y010717D02*
X006225Y010717D01*
X006259Y010751D02*
X006161Y010653D01*
X006108Y010525D01*
X006108Y010386D01*
X006161Y010258D01*
X006259Y010160D01*
X006387Y010107D01*
X006526Y010107D01*
X006654Y010160D01*
X006752Y010258D01*
X006805Y010386D01*
X006805Y010525D01*
X006752Y010653D01*
X006654Y010751D01*
X006526Y010804D01*
X006387Y010804D01*
X006259Y010751D01*
X006147Y010618D02*
X002034Y010618D01*
X002093Y010520D02*
X006108Y010520D01*
X006108Y010421D02*
X002153Y010421D01*
X002224Y010323D02*
X006134Y010323D01*
X006195Y010224D02*
X002294Y010224D01*
X002364Y010126D02*
X006341Y010126D01*
X006571Y010126D02*
X009933Y010126D01*
X009908Y010224D02*
X006718Y010224D01*
X006779Y010323D02*
X009908Y010323D01*
X009948Y010421D02*
X006805Y010421D01*
X006805Y010520D02*
X010028Y010520D01*
X009986Y010618D02*
X006766Y010618D01*
X006688Y010717D02*
X009958Y010717D01*
X009718Y011406D02*
X007550Y011406D01*
X007621Y011505D02*
X009614Y011505D01*
X009571Y011603D02*
X007655Y011603D01*
X007655Y011702D02*
X009558Y011702D01*
X009569Y011800D02*
X007623Y011800D01*
X007556Y011899D02*
X009609Y011899D01*
X010168Y011997D02*
X011774Y011997D01*
X011758Y012096D02*
X010205Y012096D01*
X010205Y012194D02*
X011766Y012194D01*
X011807Y012293D02*
X010177Y012293D01*
X010113Y012391D02*
X011900Y012391D01*
X011657Y011899D02*
X010203Y011899D01*
X010244Y011800D02*
X011560Y011800D01*
X011519Y011702D02*
X010255Y011702D01*
X010497Y011603D02*
X011336Y011603D01*
X011477Y011603D02*
X011508Y011603D01*
X011163Y011505D02*
X010600Y011505D01*
X010642Y011406D02*
X011092Y011406D01*
X011058Y011308D02*
X010655Y011308D01*
X010644Y011209D02*
X011058Y011209D01*
X011089Y011111D02*
X010603Y011111D01*
X010542Y011012D02*
X011157Y011012D01*
X011320Y010914D02*
X010618Y010914D01*
X009992Y010027D02*
X002435Y010027D01*
X002505Y009929D02*
X010134Y009929D01*
X010232Y009830D02*
X010258Y009830D01*
X009981Y009830D02*
X002575Y009830D01*
X002646Y009732D02*
X009840Y009732D01*
X009782Y009633D02*
X002716Y009633D01*
X002797Y009535D02*
X009758Y009535D01*
X009595Y009436D02*
X002880Y009436D01*
X002964Y009338D02*
X009446Y009338D01*
X009385Y009239D02*
X003047Y009239D01*
X003130Y009141D02*
X009358Y009141D01*
X009358Y009042D02*
X003214Y009042D01*
X003297Y008944D02*
X009396Y008944D01*
X009474Y008845D02*
X003381Y008845D01*
X003479Y008747D02*
X009355Y008747D01*
X009288Y008648D02*
X003577Y008648D01*
X003676Y008550D02*
X009258Y008550D01*
X009258Y008451D02*
X003774Y008451D01*
X003873Y008353D02*
X009292Y008353D01*
X012756Y005890D02*
X017154Y005890D01*
X017780Y006186D02*
X016195Y006186D01*
X016328Y006284D02*
X017982Y006284D01*
X018181Y006383D02*
X016383Y006383D01*
X016405Y006481D02*
X018346Y006481D01*
X018511Y006580D02*
X016403Y006580D01*
X016362Y006678D02*
X018677Y006678D01*
X018842Y006777D02*
X016278Y006777D01*
X016209Y006875D02*
X019007Y006875D01*
X019150Y006974D02*
X016250Y006974D01*
X016255Y007072D02*
X019288Y007072D01*
X019426Y007171D02*
X016236Y007171D01*
X016185Y007269D02*
X019564Y007269D01*
X019702Y007368D02*
X016062Y007368D01*
X015786Y006728D02*
X015781Y006723D01*
X015770Y006735D01*
X015786Y006728D01*
X015778Y006284D02*
X015785Y006284D01*
X015917Y006186D02*
X015645Y006186D01*
X015180Y006383D02*
X013388Y006383D01*
X013233Y007171D02*
X013808Y007171D01*
X014105Y007171D02*
X014198Y007171D01*
X014136Y007269D02*
X013276Y007269D01*
X013276Y007368D02*
X014108Y007368D01*
X014108Y007466D02*
X013276Y007466D01*
X013276Y007565D02*
X014145Y007565D01*
X014222Y007663D02*
X013276Y007663D01*
X009477Y012490D02*
X001074Y012490D01*
X001036Y012588D02*
X009458Y012588D01*
X009414Y012687D02*
X000997Y012687D01*
X000959Y012785D02*
X009315Y012785D01*
X009217Y012884D02*
X000920Y012884D01*
X000882Y012982D02*
X009118Y012982D01*
X009020Y013081D02*
X000844Y013081D01*
X000808Y013179D02*
X008921Y013179D01*
X008823Y013278D02*
X000779Y013278D01*
X000749Y013376D02*
X008724Y013376D01*
X008626Y013475D02*
X000720Y013475D01*
X000691Y013573D02*
X008527Y013573D01*
X008429Y013672D02*
X000661Y013672D01*
X000632Y013770D02*
X008330Y013770D01*
X008232Y013869D02*
X000603Y013869D01*
X000573Y013967D02*
X008133Y013967D01*
X008035Y014066D02*
X000544Y014066D01*
X000519Y014164D02*
X007936Y014164D01*
X007838Y014263D02*
X000499Y014263D01*
X000478Y014361D02*
X007739Y014361D01*
X007641Y014460D02*
X000457Y014460D01*
X000437Y014558D02*
X007542Y014558D01*
X007444Y014657D02*
X000416Y014657D01*
X000395Y014755D02*
X007345Y014755D01*
X007247Y014854D02*
X000375Y014854D01*
X000354Y014952D02*
X007148Y014952D01*
X007086Y015051D02*
X006495Y015051D01*
X006661Y015149D02*
X007086Y015149D01*
X007086Y015248D02*
X006760Y015248D01*
X006858Y015346D02*
X007086Y015346D01*
X007086Y015445D02*
X006957Y015445D01*
X007055Y015543D02*
X007086Y015543D01*
X007056Y015855D02*
X007056Y016055D01*
X006456Y016655D01*
X006456Y017155D01*
X006856Y017555D01*
X006982Y017230D02*
X007054Y017260D01*
X007086Y017293D01*
X007086Y017168D01*
X007054Y017201D01*
X006982Y017230D01*
X007012Y017218D02*
X007086Y017218D01*
X007086Y016643D02*
X007086Y016337D01*
X006866Y016557D01*
X006926Y016557D01*
X007054Y016610D01*
X007086Y016643D01*
X007086Y016627D02*
X007071Y016627D01*
X007086Y016528D02*
X006894Y016528D01*
X006993Y016430D02*
X007086Y016430D01*
X006765Y016036D02*
X006629Y016036D01*
X006655Y015937D02*
X006827Y015937D01*
X006729Y015839D02*
X006655Y015839D01*
X006630Y015740D02*
X006615Y015740D01*
X006497Y015607D02*
X006472Y015582D01*
X006462Y015593D01*
X006497Y015607D01*
X006506Y015305D02*
X006256Y015305D01*
X006506Y015305D02*
X007056Y015855D01*
X006666Y016134D02*
X006570Y016134D01*
X006568Y016233D02*
X006426Y016233D01*
X006469Y016331D02*
X003725Y016331D01*
X003704Y016310D02*
X003802Y016408D01*
X003855Y016536D01*
X003855Y016675D01*
X003807Y016790D01*
X003887Y016757D01*
X004026Y016757D01*
X004154Y016810D01*
X004252Y016908D01*
X004305Y017036D01*
X004305Y017175D01*
X004252Y017303D01*
X004154Y017401D01*
X004026Y017454D01*
X003887Y017454D01*
X003759Y017401D01*
X003661Y017303D01*
X003608Y017175D01*
X003608Y017036D01*
X003656Y016921D01*
X003576Y016954D01*
X003437Y016954D01*
X003309Y016901D01*
X003211Y016803D01*
X003158Y016675D01*
X003158Y016536D01*
X003211Y016408D01*
X003245Y016374D01*
X003133Y016374D01*
X002998Y016318D01*
X002894Y016214D01*
X002838Y016079D01*
X002838Y015932D01*
X002894Y015797D01*
X002998Y015693D01*
X003133Y015637D01*
X003280Y015637D01*
X003415Y015693D01*
X003518Y015797D01*
X003574Y015932D01*
X003574Y016079D01*
X003518Y016214D01*
X003475Y016257D01*
X003576Y016257D01*
X003704Y016310D01*
X003811Y016430D02*
X006371Y016430D01*
X006272Y016528D02*
X003852Y016528D01*
X003855Y016627D02*
X006236Y016627D01*
X006236Y016725D02*
X003834Y016725D01*
X003655Y016922D02*
X003651Y016922D01*
X003614Y017021D02*
X000160Y017021D01*
X000157Y017119D02*
X003608Y017119D01*
X003626Y017218D02*
X000161Y017218D01*
X000165Y017316D02*
X003675Y017316D01*
X003793Y017415D02*
X000169Y017415D01*
X000173Y017513D02*
X006503Y017513D01*
X006508Y017612D02*
X000177Y017612D01*
X000181Y017710D02*
X006543Y017710D01*
X006617Y017809D02*
X000185Y017809D01*
X000189Y017907D02*
X007086Y017907D01*
X007086Y018006D02*
X000193Y018006D01*
X000197Y018104D02*
X007086Y018104D01*
X007086Y018203D02*
X000209Y018203D01*
X000221Y018301D02*
X007086Y018301D01*
X007086Y018400D02*
X000233Y018400D01*
X000245Y018498D02*
X007086Y018498D01*
X006972Y018597D02*
X000258Y018597D01*
X000164Y016922D02*
X003361Y016922D01*
X003232Y016824D02*
X000168Y016824D01*
X000172Y016725D02*
X003179Y016725D01*
X003158Y016627D02*
X000176Y016627D01*
X000180Y016528D02*
X003161Y016528D01*
X003202Y016430D02*
X000184Y016430D01*
X000189Y016331D02*
X003032Y016331D01*
X002913Y016233D02*
X000193Y016233D01*
X000197Y016134D02*
X002861Y016134D01*
X002838Y016036D02*
X000206Y016036D01*
X000219Y015937D02*
X002838Y015937D01*
X002877Y015839D02*
X000231Y015839D01*
X000243Y015740D02*
X002951Y015740D01*
X003122Y015642D02*
X000255Y015642D01*
X000268Y015543D02*
X006002Y015543D01*
X005937Y015445D02*
X000280Y015445D01*
X000292Y015346D02*
X005908Y015346D01*
X005908Y015248D02*
X000305Y015248D01*
X000317Y015149D02*
X005944Y015149D01*
X006018Y015051D02*
X000333Y015051D01*
X003291Y015642D02*
X006077Y015642D01*
X005998Y015740D02*
X003462Y015740D01*
X003536Y015839D02*
X005958Y015839D01*
X005958Y015937D02*
X003574Y015937D01*
X003574Y016036D02*
X005983Y016036D01*
X006043Y016134D02*
X003551Y016134D01*
X003499Y016233D02*
X006187Y016233D01*
X006236Y016824D02*
X004168Y016824D01*
X004258Y016922D02*
X006236Y016922D01*
X006236Y017021D02*
X004298Y017021D01*
X004305Y017119D02*
X006236Y017119D01*
X006236Y017218D02*
X004287Y017218D01*
X004238Y017316D02*
X006306Y017316D01*
X006405Y017415D02*
X004120Y017415D01*
X004956Y017455D02*
X005006Y017505D01*
X002763Y019188D02*
X002682Y019188D01*
X002763Y019286D02*
X002804Y019286D01*
X001043Y021650D02*
X007682Y021650D01*
X007659Y021660D02*
X007787Y021607D01*
X007926Y021607D01*
X008054Y021660D01*
X008152Y021758D01*
X008205Y021886D01*
X008205Y022025D01*
X008152Y022153D01*
X008054Y022251D01*
X007926Y022304D01*
X007787Y022304D01*
X007659Y022251D01*
X007561Y022153D01*
X007508Y022025D01*
X007508Y021886D01*
X007561Y021758D01*
X007659Y021660D01*
X007570Y021749D02*
X001081Y021749D01*
X001120Y021847D02*
X007524Y021847D01*
X007508Y021946D02*
X001158Y021946D01*
X001200Y022044D02*
X007516Y022044D01*
X007557Y022143D02*
X001248Y022143D01*
X001296Y022241D02*
X007650Y022241D01*
X008063Y022241D02*
X008350Y022241D01*
X008257Y022143D02*
X008156Y022143D01*
X008197Y022044D02*
X008216Y022044D01*
X008205Y021946D02*
X008208Y021946D01*
X008189Y021847D02*
X008224Y021847D01*
X008270Y021749D02*
X008143Y021749D01*
X008031Y021650D02*
X008382Y021650D01*
X008763Y022241D02*
X018338Y022241D01*
X018261Y022340D02*
X001344Y022340D01*
X001392Y022438D02*
X013212Y022438D01*
X013114Y022537D02*
X001441Y022537D01*
X001489Y022635D02*
X013015Y022635D01*
X012917Y022734D02*
X005922Y022734D01*
X005812Y022688D02*
X006077Y022798D01*
X006280Y023001D01*
X006389Y023266D01*
X006389Y023553D01*
X006280Y023818D01*
X006077Y024021D01*
X005812Y024131D01*
X005525Y024131D01*
X005260Y024021D01*
X005057Y023818D01*
X004947Y023553D01*
X004947Y023266D01*
X005057Y023001D01*
X005260Y022798D01*
X005525Y022688D01*
X005812Y022688D01*
X006111Y022832D02*
X012818Y022832D01*
X012720Y022931D02*
X008675Y022931D01*
X008654Y022910D02*
X008752Y023008D01*
X008805Y023136D01*
X008805Y023275D01*
X008752Y023403D01*
X008654Y023501D01*
X008526Y023554D01*
X008387Y023554D01*
X008259Y023501D01*
X008161Y023403D01*
X008108Y023275D01*
X008108Y023136D01*
X008161Y023008D01*
X008259Y022910D01*
X008387Y022857D01*
X008526Y022857D01*
X008654Y022910D01*
X008761Y023029D02*
X012621Y023029D01*
X012523Y023128D02*
X008801Y023128D01*
X008805Y023226D02*
X012424Y023226D01*
X012326Y023325D02*
X008784Y023325D01*
X008731Y023423D02*
X012227Y023423D01*
X012001Y023522D02*
X011562Y023522D01*
X011714Y023620D02*
X011849Y023620D01*
X011786Y023719D02*
X011777Y023719D01*
X011506Y023855D02*
X011456Y023855D01*
X011506Y023855D02*
X012106Y024455D01*
X012106Y025705D01*
X012455Y025689D02*
X013985Y025689D01*
X014011Y025753D02*
X013958Y025625D01*
X013958Y025486D01*
X014011Y025358D01*
X014109Y025260D01*
X014237Y025207D01*
X014376Y025207D01*
X014504Y025260D01*
X014602Y025358D01*
X014655Y025486D01*
X014655Y025625D01*
X014602Y025753D01*
X014504Y025851D01*
X014376Y025904D01*
X014237Y025904D01*
X014109Y025851D01*
X014011Y025753D01*
X014046Y025788D02*
X012449Y025788D01*
X012409Y025886D02*
X014194Y025886D01*
X014419Y025886D02*
X020831Y025886D01*
X020929Y025788D02*
X014567Y025788D01*
X014628Y025689D02*
X017701Y025689D01*
X017737Y025704D02*
X017609Y025651D01*
X017511Y025553D01*
X017458Y025425D01*
X017458Y025286D01*
X017511Y025158D01*
X017609Y025060D01*
X017737Y025007D01*
X017876Y025007D01*
X018004Y025060D01*
X018081Y025138D01*
X018159Y025060D01*
X018287Y025007D01*
X018426Y025007D01*
X018554Y025060D01*
X018652Y025158D01*
X018705Y025286D01*
X018705Y025425D01*
X018652Y025553D01*
X018554Y025651D01*
X018426Y025704D01*
X018287Y025704D01*
X018159Y025651D01*
X018081Y025573D01*
X018004Y025651D01*
X017876Y025704D01*
X017737Y025704D01*
X017912Y025689D02*
X018251Y025689D01*
X018099Y025590D02*
X018064Y025590D01*
X018462Y025689D02*
X021028Y025689D01*
X021126Y025590D02*
X018614Y025590D01*
X018677Y025492D02*
X021225Y025492D01*
X021323Y025393D02*
X018705Y025393D01*
X018705Y025295D02*
X021409Y025295D01*
X021493Y025196D02*
X018668Y025196D01*
X018592Y025098D02*
X021576Y025098D01*
X021659Y024999D02*
X020248Y024999D01*
X020318Y024970D02*
X020153Y025039D01*
X019974Y025039D01*
X019809Y024970D01*
X019682Y024844D01*
X019613Y024678D01*
X019613Y024499D01*
X019682Y024334D01*
X019809Y024207D01*
X019974Y024139D01*
X020153Y024139D01*
X020318Y024207D01*
X020445Y024334D01*
X020513Y024499D01*
X020513Y024678D01*
X020445Y024844D01*
X020318Y024970D01*
X020388Y024901D02*
X021743Y024901D01*
X021826Y024802D02*
X020462Y024802D01*
X020503Y024704D02*
X021910Y024704D01*
X021993Y024605D02*
X020513Y024605D01*
X020513Y024507D02*
X022063Y024507D01*
X022134Y024408D02*
X020476Y024408D01*
X020421Y024310D02*
X020628Y024310D01*
X020681Y024332D02*
X020516Y024263D01*
X020389Y024137D01*
X020321Y023971D01*
X020321Y023792D01*
X020389Y023627D01*
X020516Y023500D01*
X020681Y023432D01*
X020860Y023432D01*
X021025Y023500D01*
X021152Y023627D01*
X021221Y023792D01*
X021221Y023971D01*
X021152Y024137D01*
X021025Y024263D01*
X020860Y024332D01*
X020681Y024332D01*
X020913Y024310D02*
X022204Y024310D01*
X022274Y024211D02*
X021077Y024211D01*
X021162Y024113D02*
X022345Y024113D01*
X022415Y024014D02*
X021203Y024014D01*
X021221Y023916D02*
X022485Y023916D01*
X022556Y023817D02*
X021221Y023817D01*
X021190Y023719D02*
X022618Y023719D01*
X022677Y023620D02*
X021577Y023620D01*
X021567Y023625D02*
X021388Y023625D01*
X021223Y023556D01*
X021096Y023430D01*
X021028Y023264D01*
X021028Y023085D01*
X021096Y022920D01*
X021223Y022793D01*
X021388Y022725D01*
X021567Y022725D01*
X021733Y022793D01*
X021859Y022920D01*
X021928Y023085D01*
X021928Y023264D01*
X021859Y023430D01*
X021733Y023556D01*
X021567Y023625D01*
X021378Y023620D02*
X021146Y023620D01*
X021189Y023522D02*
X021047Y023522D01*
X021094Y023423D02*
X018417Y023423D01*
X018465Y023443D02*
X018330Y023387D01*
X018183Y023387D01*
X018048Y023443D01*
X017944Y023547D01*
X017888Y023682D01*
X017888Y023829D01*
X017944Y023964D01*
X018048Y024068D01*
X018183Y024124D01*
X018330Y024124D01*
X018465Y024068D01*
X018568Y023964D01*
X018624Y023829D01*
X018624Y023682D01*
X018568Y023547D01*
X018465Y023443D01*
X018543Y023522D02*
X020494Y023522D01*
X020395Y023620D02*
X018599Y023620D01*
X018624Y023719D02*
X020351Y023719D01*
X020321Y023817D02*
X018624Y023817D01*
X018588Y023916D02*
X020321Y023916D01*
X020338Y024014D02*
X018518Y024014D01*
X018355Y024113D02*
X020379Y024113D01*
X020322Y024211D02*
X020464Y024211D01*
X019804Y024211D02*
X015105Y024211D01*
X015105Y024186D02*
X015052Y024058D01*
X014954Y023960D01*
X014826Y023907D01*
X014687Y023907D01*
X014559Y023960D01*
X014461Y024058D01*
X014408Y024186D01*
X014408Y024325D01*
X014461Y024453D01*
X014559Y024551D01*
X014687Y024604D01*
X014826Y024604D01*
X014954Y024551D01*
X015052Y024453D01*
X015105Y024325D01*
X015105Y024186D01*
X015074Y024113D02*
X018158Y024113D01*
X017995Y024014D02*
X015008Y024014D01*
X014847Y023916D02*
X017924Y023916D01*
X017888Y023817D02*
X012455Y023817D01*
X012455Y023916D02*
X014665Y023916D01*
X014505Y024014D02*
X012418Y024014D01*
X012342Y024113D02*
X014438Y024113D01*
X014408Y024211D02*
X012174Y024211D01*
X012272Y024310D02*
X014408Y024310D01*
X014443Y024408D02*
X013541Y024408D01*
X013518Y024393D02*
X013567Y024426D01*
X013609Y024468D01*
X013642Y024517D01*
X013664Y024571D01*
X013676Y024629D01*
X013676Y024659D01*
X013676Y024688D01*
X013664Y024746D01*
X013642Y024801D01*
X013630Y024819D01*
X013642Y024837D01*
X013664Y024891D01*
X013676Y024949D01*
X013676Y024979D01*
X013676Y025008D01*
X013664Y025066D01*
X013642Y025121D01*
X013609Y025170D01*
X013567Y025212D01*
X013518Y025245D01*
X013463Y025267D01*
X013405Y025279D01*
X013376Y025279D01*
X013376Y024979D01*
X013676Y024979D01*
X013376Y024979D01*
X013376Y024979D01*
X013376Y024979D01*
X013376Y025279D01*
X013346Y025279D01*
X013288Y025267D01*
X013234Y025245D01*
X013221Y025236D01*
X013208Y025245D01*
X013153Y025267D01*
X013095Y025279D01*
X013066Y025279D01*
X013066Y024979D01*
X013376Y024979D01*
X013376Y024679D01*
X013376Y024659D01*
X013676Y024659D01*
X013376Y024659D01*
X013376Y024659D01*
X013376Y024659D01*
X013376Y024979D01*
X013376Y024979D01*
X013376Y024979D01*
X013076Y024979D01*
X013066Y024979D01*
X013066Y024979D01*
X013066Y024979D01*
X013066Y025279D01*
X013036Y025279D01*
X012978Y025267D01*
X012924Y025245D01*
X012911Y025236D01*
X012898Y025245D01*
X012843Y025267D01*
X012785Y025279D01*
X012756Y025279D01*
X012756Y024979D01*
X013066Y024979D01*
X013066Y024679D01*
X013066Y024659D01*
X013376Y024659D01*
X013376Y024359D01*
X013405Y024359D01*
X013463Y024370D01*
X013518Y024393D01*
X013656Y024408D02*
X012456Y024408D01*
X012523Y024468D02*
X012565Y024426D01*
X012614Y024393D01*
X012668Y024370D01*
X012726Y024359D01*
X012756Y024359D01*
X012785Y024359D01*
X012843Y024370D01*
X012898Y024393D01*
X012911Y024402D01*
X012924Y024393D01*
X012978Y024370D01*
X013036Y024359D01*
X013066Y024359D01*
X013095Y024359D01*
X013153Y024370D01*
X013208Y024393D01*
X013221Y024402D01*
X013234Y024393D01*
X013288Y024370D01*
X013346Y024359D01*
X013376Y024359D01*
X013376Y024659D01*
X013376Y024659D01*
X013376Y024659D01*
X013076Y024659D01*
X013066Y024659D01*
X013066Y024659D01*
X013066Y024659D01*
X013066Y024979D01*
X013066Y024979D01*
X013066Y024979D01*
X012766Y024979D01*
X012756Y024979D01*
X012756Y024979D01*
X012756Y024979D01*
X012756Y025279D01*
X012726Y025279D01*
X012668Y025267D01*
X012614Y025245D01*
X012565Y025212D01*
X012523Y025170D01*
X012490Y025121D01*
X012467Y025066D01*
X012456Y025008D01*
X012456Y024979D01*
X012756Y024979D01*
X012756Y024959D01*
X012756Y024659D01*
X013066Y024659D01*
X013066Y024359D01*
X013066Y024659D01*
X013066Y024659D01*
X013066Y024659D01*
X013056Y024659D01*
X012756Y024659D01*
X012756Y024659D01*
X012756Y024659D01*
X012756Y024979D01*
X012756Y024979D01*
X012756Y024979D01*
X012456Y024979D01*
X012456Y024949D01*
X012467Y024891D01*
X012490Y024837D01*
X012502Y024819D01*
X012490Y024801D01*
X012467Y024746D01*
X012456Y024688D01*
X012456Y024659D01*
X012756Y024659D01*
X012756Y024359D01*
X012756Y024659D01*
X012756Y024659D01*
X012756Y024659D01*
X012456Y024659D01*
X012456Y024629D01*
X012467Y024571D01*
X012490Y024517D01*
X012523Y024468D01*
X012496Y024507D02*
X012326Y024507D01*
X012326Y024605D02*
X012461Y024605D01*
X012456Y024605D02*
X013656Y024605D01*
X013671Y024605D02*
X016302Y024605D01*
X016300Y024608D02*
X016333Y024559D01*
X016375Y024518D01*
X016424Y024485D01*
X016479Y024462D01*
X016537Y024451D01*
X016566Y024451D01*
X016566Y024751D01*
X016566Y025051D01*
X016566Y025071D01*
X016566Y025371D01*
X016537Y025371D01*
X016479Y025359D01*
X016424Y025336D01*
X016375Y025304D01*
X016333Y025262D01*
X016300Y025213D01*
X016278Y025158D01*
X016266Y025100D01*
X016266Y025071D01*
X016566Y025071D01*
X016566Y025071D01*
X016566Y025071D01*
X016566Y025371D01*
X016596Y025371D01*
X016654Y025359D01*
X016708Y025336D01*
X016757Y025304D01*
X016799Y025262D01*
X016832Y025213D01*
X016855Y025158D01*
X016866Y025100D01*
X016866Y025071D01*
X016566Y025071D01*
X016566Y025071D01*
X016266Y025071D01*
X016266Y025041D01*
X016278Y024983D01*
X016300Y024928D01*
X016312Y024911D01*
X016300Y024893D01*
X016278Y024838D01*
X016266Y024780D01*
X016266Y024751D01*
X016566Y024751D01*
X016566Y024751D01*
X016566Y024751D01*
X016566Y025071D01*
X016566Y025071D01*
X016866Y025071D01*
X016866Y025041D01*
X016855Y024983D01*
X016832Y024928D01*
X016820Y024911D01*
X016832Y024893D01*
X016855Y024838D01*
X016866Y024780D01*
X016866Y024751D01*
X016566Y024751D01*
X016566Y024751D01*
X016266Y024751D01*
X016266Y024721D01*
X016278Y024663D01*
X016300Y024608D01*
X016270Y024704D02*
X013673Y024704D01*
X013656Y024704D02*
X012456Y024704D01*
X012459Y024704D02*
X012326Y024704D01*
X012326Y024802D02*
X012491Y024802D01*
X012456Y024802D02*
X013656Y024802D01*
X013641Y024802D02*
X016271Y024802D01*
X016306Y024901D02*
X013666Y024901D01*
X013656Y024901D02*
X012456Y024901D01*
X012465Y024901D02*
X012326Y024901D01*
X012326Y024999D02*
X012456Y024999D01*
X013656Y024999D01*
X013676Y024999D02*
X016274Y024999D01*
X016266Y025098D02*
X013651Y025098D01*
X013656Y025098D02*
X012456Y025098D01*
X012480Y025098D02*
X012326Y025098D01*
X012326Y025196D02*
X012549Y025196D01*
X012456Y025196D02*
X013656Y025196D01*
X013582Y025196D02*
X016294Y025196D01*
X016366Y025295D02*
X014539Y025295D01*
X014616Y025393D02*
X017458Y025393D01*
X017458Y025295D02*
X016766Y025295D01*
X016839Y025196D02*
X017495Y025196D01*
X017571Y025098D02*
X016866Y025098D01*
X016956Y025098D02*
X016156Y025098D01*
X016156Y025196D02*
X016956Y025196D01*
X016956Y025295D02*
X016156Y025295D01*
X016156Y025393D02*
X016956Y025393D01*
X016956Y025405D02*
X016956Y024455D01*
X016156Y024455D01*
X016156Y025405D01*
X016956Y025405D01*
X016956Y024999D02*
X016156Y024999D01*
X016156Y024901D02*
X016956Y024901D01*
X016956Y024802D02*
X016156Y024802D01*
X016156Y024704D02*
X016956Y024704D01*
X016866Y024721D02*
X016866Y024751D01*
X016566Y024751D01*
X016566Y024751D01*
X016566Y024451D01*
X016596Y024451D01*
X016654Y024462D01*
X016708Y024485D01*
X016757Y024518D01*
X016799Y024559D01*
X016832Y024608D01*
X016855Y024663D01*
X016866Y024721D01*
X016863Y024704D02*
X019624Y024704D01*
X019613Y024605D02*
X016830Y024605D01*
X016956Y024605D02*
X016156Y024605D01*
X016156Y024507D02*
X016956Y024507D01*
X016742Y024507D02*
X019613Y024507D01*
X019651Y024408D02*
X015070Y024408D01*
X015105Y024310D02*
X019706Y024310D01*
X019665Y024802D02*
X016862Y024802D01*
X016826Y024901D02*
X019739Y024901D01*
X019879Y024999D02*
X016858Y024999D01*
X016566Y024999D02*
X016566Y024999D01*
X016566Y024901D02*
X016566Y024901D01*
X016566Y024802D02*
X016566Y024802D01*
X016566Y024704D02*
X016566Y024704D01*
X016566Y024605D02*
X016566Y024605D01*
X016566Y024507D02*
X016566Y024507D01*
X016391Y024507D02*
X014998Y024507D01*
X014515Y024507D02*
X013635Y024507D01*
X013656Y024507D02*
X012456Y024507D01*
X012326Y024408D02*
X012590Y024408D01*
X012456Y024310D02*
X013656Y024310D01*
X013656Y024305D02*
X012456Y024305D01*
X012456Y025305D01*
X013656Y025305D01*
X013656Y024305D01*
X013376Y024408D02*
X013376Y024408D01*
X013376Y024507D02*
X013376Y024507D01*
X013376Y024605D02*
X013376Y024605D01*
X013376Y024704D02*
X013376Y024704D01*
X013376Y024802D02*
X013376Y024802D01*
X013376Y024901D02*
X013376Y024901D01*
X013376Y024999D02*
X013376Y024999D01*
X013376Y025098D02*
X013376Y025098D01*
X013376Y025196D02*
X013376Y025196D01*
X013656Y025295D02*
X012456Y025295D01*
X012326Y025295D02*
X014074Y025295D01*
X013996Y025393D02*
X012326Y025393D01*
X012386Y025492D02*
X013958Y025492D01*
X013958Y025590D02*
X012436Y025590D01*
X012320Y025985D02*
X020732Y025985D01*
X020634Y026083D02*
X011445Y026083D01*
X011347Y025985D02*
X011893Y025985D01*
X011642Y026280D02*
X015661Y026280D01*
X015698Y026243D02*
X015833Y026187D01*
X015980Y026187D01*
X016115Y026243D01*
X016218Y026347D01*
X016274Y026482D01*
X016274Y026629D01*
X016218Y026764D01*
X016115Y026868D01*
X015980Y026924D01*
X015833Y026924D01*
X015698Y026868D01*
X015594Y026764D01*
X015538Y026629D01*
X015538Y026482D01*
X015594Y026347D01*
X015698Y026243D01*
X015581Y026379D02*
X011741Y026379D01*
X011839Y026477D02*
X015540Y026477D01*
X015538Y026576D02*
X011938Y026576D01*
X012036Y026674D02*
X015557Y026674D01*
X015603Y026773D02*
X012135Y026773D01*
X012233Y026871D02*
X015706Y026871D01*
X016106Y026871D02*
X019676Y026871D01*
X019814Y026773D02*
X016210Y026773D01*
X016256Y026674D02*
X019937Y026674D01*
X020053Y026576D02*
X016274Y026576D01*
X016272Y026477D02*
X020170Y026477D01*
X020286Y026379D02*
X016231Y026379D01*
X016151Y026280D02*
X020402Y026280D01*
X020518Y026182D02*
X011544Y026182D01*
X011394Y025886D02*
X011248Y025886D01*
X011305Y025788D02*
X011150Y025788D01*
X011051Y025689D02*
X011264Y025689D01*
X011258Y025590D02*
X010953Y025590D01*
X010854Y025492D02*
X011276Y025492D01*
X011289Y025393D02*
X011326Y025393D01*
X011376Y025295D02*
X011445Y025295D01*
X011417Y025196D02*
X011886Y025196D01*
X011886Y025098D02*
X011424Y025098D01*
X011411Y024999D02*
X011886Y024999D01*
X011886Y024901D02*
X011625Y024901D01*
X011752Y024802D02*
X011886Y024802D01*
X011886Y024704D02*
X011804Y024704D01*
X011825Y024605D02*
X011886Y024605D01*
X011847Y024507D02*
X011821Y024507D01*
X011551Y024211D02*
X010445Y024211D01*
X010455Y024236D02*
X010402Y024108D01*
X010304Y024010D01*
X010176Y023957D01*
X010037Y023957D01*
X009909Y024010D01*
X009811Y024108D01*
X009758Y024236D01*
X009758Y024375D01*
X009811Y024503D01*
X009909Y024601D01*
X010037Y024654D01*
X010176Y024654D01*
X010304Y024601D01*
X010402Y024503D01*
X010455Y024375D01*
X010455Y024236D01*
X010455Y024310D02*
X011259Y024310D01*
X011173Y024408D02*
X010441Y024408D01*
X010398Y024507D02*
X011132Y024507D01*
X011128Y024605D02*
X010292Y024605D01*
X010404Y024113D02*
X011221Y024113D01*
X011145Y024014D02*
X010308Y024014D01*
X009905Y024014D02*
X007840Y024014D01*
X007852Y024003D02*
X007754Y024101D01*
X007626Y024154D01*
X007487Y024154D01*
X007359Y024101D01*
X007261Y024003D01*
X007208Y023875D01*
X007208Y023736D01*
X007261Y023608D01*
X007359Y023510D01*
X007487Y023457D01*
X007626Y023457D01*
X007754Y023510D01*
X007852Y023608D01*
X007905Y023736D01*
X007905Y023875D01*
X007852Y024003D01*
X007888Y023916D02*
X011108Y023916D01*
X011108Y023817D02*
X007905Y023817D01*
X007898Y023719D02*
X011136Y023719D01*
X011199Y023620D02*
X007857Y023620D01*
X007766Y023522D02*
X008310Y023522D01*
X008182Y023423D02*
X006389Y023423D01*
X006389Y023325D02*
X008129Y023325D01*
X008108Y023226D02*
X006373Y023226D01*
X006332Y023128D02*
X008111Y023128D01*
X008152Y023029D02*
X006291Y023029D01*
X006210Y022931D02*
X008238Y022931D01*
X008603Y023522D02*
X011351Y023522D01*
X012106Y023855D02*
X013306Y022655D01*
X018256Y022655D01*
X018706Y022205D01*
X018967Y021946D02*
X023564Y021946D01*
X023602Y021847D02*
X018804Y021847D01*
X019038Y022044D02*
X023522Y022044D01*
X023474Y022143D02*
X019074Y022143D01*
X019074Y022241D02*
X023426Y022241D01*
X023378Y022340D02*
X019049Y022340D01*
X018994Y022438D02*
X019260Y022438D01*
X019248Y022443D02*
X019383Y022387D01*
X019530Y022387D01*
X019665Y022443D01*
X019768Y022547D01*
X019824Y022682D01*
X019824Y022829D01*
X019768Y022964D01*
X019665Y023068D01*
X019530Y023124D01*
X019383Y023124D01*
X019248Y023068D01*
X019144Y022964D01*
X019088Y022829D01*
X019088Y022682D01*
X019144Y022547D01*
X019248Y022443D01*
X019154Y022537D02*
X018868Y022537D01*
X019108Y022635D02*
X018587Y022635D01*
X018489Y022734D02*
X019088Y022734D01*
X019090Y022832D02*
X018390Y022832D01*
X018096Y023423D02*
X017556Y023423D01*
X017574Y023379D02*
X017518Y023514D01*
X017415Y023618D01*
X017280Y023674D01*
X017133Y023674D01*
X016998Y023618D01*
X016894Y023514D01*
X016838Y023379D01*
X016838Y023232D01*
X016894Y023097D01*
X016998Y022993D01*
X017133Y022937D01*
X017280Y022937D01*
X017415Y022993D01*
X017518Y023097D01*
X017574Y023232D01*
X017574Y023379D01*
X017574Y023325D02*
X021053Y023325D01*
X021028Y023226D02*
X017572Y023226D01*
X017531Y023128D02*
X021028Y023128D01*
X021051Y023029D02*
X019703Y023029D01*
X019782Y022931D02*
X021092Y022931D01*
X021183Y022832D02*
X019823Y022832D01*
X019824Y022734D02*
X021366Y022734D01*
X021590Y022734D02*
X023185Y022734D01*
X023137Y022832D02*
X021772Y022832D01*
X021864Y022931D02*
X023088Y022931D01*
X023029Y023029D02*
X021905Y023029D01*
X021928Y023128D02*
X022970Y023128D01*
X022912Y023226D02*
X021928Y023226D01*
X021902Y023325D02*
X022853Y023325D01*
X022794Y023423D02*
X021862Y023423D01*
X021767Y023522D02*
X022735Y023522D01*
X023233Y022635D02*
X019805Y022635D01*
X019758Y022537D02*
X023282Y022537D01*
X023330Y022438D02*
X019653Y022438D01*
X019131Y022931D02*
X013342Y022931D01*
X013243Y023029D02*
X016962Y023029D01*
X016881Y023128D02*
X013145Y023128D01*
X013046Y023226D02*
X016841Y023226D01*
X016838Y023325D02*
X012948Y023325D01*
X012849Y023423D02*
X016857Y023423D01*
X016902Y023522D02*
X012751Y023522D01*
X012652Y023620D02*
X017005Y023620D01*
X017408Y023620D02*
X017914Y023620D01*
X017888Y023719D02*
X012554Y023719D01*
X012756Y024408D02*
X012756Y024408D01*
X012756Y024507D02*
X012756Y024507D01*
X012756Y024605D02*
X012756Y024605D01*
X012756Y024704D02*
X012756Y024704D01*
X012756Y024802D02*
X012756Y024802D01*
X012756Y024901D02*
X012756Y024901D01*
X012756Y024999D02*
X012756Y024999D01*
X012756Y025098D02*
X012756Y025098D01*
X012756Y025196D02*
X012756Y025196D01*
X013066Y025196D02*
X013066Y025196D01*
X013066Y025098D02*
X013066Y025098D01*
X013066Y024999D02*
X013066Y024999D01*
X013066Y024901D02*
X013066Y024901D01*
X013066Y024802D02*
X013066Y024802D01*
X013066Y024704D02*
X013066Y024704D01*
X013066Y024605D02*
X013066Y024605D01*
X013066Y024507D02*
X013066Y024507D01*
X013066Y024408D02*
X013066Y024408D01*
X011886Y025295D02*
X011767Y025295D01*
X011148Y024704D02*
X009428Y024704D01*
X009431Y024688D02*
X009420Y024746D01*
X009397Y024801D01*
X009385Y024819D01*
X009397Y024837D01*
X009420Y024891D01*
X009431Y024949D01*
X009431Y024979D01*
X009431Y025008D01*
X009420Y025066D01*
X009397Y025121D01*
X009364Y025170D01*
X009323Y025212D01*
X009273Y025245D01*
X009219Y025267D01*
X009161Y025279D01*
X009131Y025279D01*
X009102Y025279D01*
X009044Y025267D01*
X008989Y025245D01*
X008971Y025233D01*
X008953Y025245D01*
X008899Y025267D01*
X008841Y025279D01*
X008811Y025279D01*
X008782Y025279D01*
X008724Y025267D01*
X008669Y025245D01*
X008620Y025212D01*
X008578Y025170D01*
X008545Y025121D01*
X008523Y025066D01*
X008511Y025008D01*
X008511Y024979D01*
X008811Y024979D01*
X008811Y024979D01*
X008811Y025279D01*
X008811Y024979D01*
X008811Y024979D01*
X008511Y024979D01*
X008511Y024949D01*
X008523Y024891D01*
X008545Y024837D01*
X008557Y024819D01*
X008545Y024801D01*
X008523Y024746D01*
X008511Y024688D01*
X008511Y024659D01*
X008811Y024659D01*
X008811Y024659D01*
X008811Y024979D01*
X008811Y024979D01*
X009131Y024979D01*
X009131Y024979D01*
X009131Y025279D01*
X009131Y024979D01*
X009131Y024979D01*
X008831Y024979D01*
X008811Y024979D01*
X008811Y024979D01*
X008811Y024679D01*
X008811Y024659D01*
X008811Y024659D01*
X008511Y024659D01*
X008511Y024629D01*
X008523Y024571D01*
X008545Y024517D01*
X008578Y024468D01*
X008620Y024426D01*
X008669Y024393D01*
X008724Y024370D01*
X008782Y024359D01*
X008811Y024359D01*
X008811Y024659D01*
X008811Y024659D01*
X009131Y024659D01*
X009131Y024659D01*
X009131Y024979D01*
X009131Y024979D01*
X009431Y024979D01*
X009131Y024979D01*
X009131Y024979D01*
X009131Y024679D01*
X009131Y024659D01*
X009131Y024659D01*
X008831Y024659D01*
X008811Y024659D01*
X008811Y024659D01*
X008811Y024359D01*
X008841Y024359D01*
X008899Y024370D01*
X008953Y024393D01*
X008971Y024405D01*
X008989Y024393D01*
X009044Y024370D01*
X009102Y024359D01*
X009131Y024359D01*
X009131Y024659D01*
X009131Y024659D01*
X009431Y024659D01*
X009431Y024688D01*
X009431Y024659D02*
X009131Y024659D01*
X009131Y024659D01*
X009131Y024359D01*
X009161Y024359D01*
X009219Y024370D01*
X009273Y024393D01*
X009323Y024426D01*
X009364Y024468D01*
X009397Y024517D01*
X009420Y024571D01*
X009431Y024629D01*
X009431Y024659D01*
X009405Y024704D02*
X008524Y024704D01*
X008514Y024704D02*
X008013Y024704D01*
X008024Y024732D02*
X007968Y024597D01*
X007865Y024493D01*
X007730Y024437D01*
X007583Y024437D01*
X007448Y024493D01*
X007344Y024597D01*
X007288Y024732D01*
X007288Y024879D01*
X007344Y025014D01*
X007448Y025118D01*
X007583Y025174D01*
X007730Y025174D01*
X007865Y025118D01*
X007968Y025014D01*
X008024Y024879D01*
X008024Y024732D01*
X008024Y024802D02*
X008546Y024802D01*
X008524Y024802D02*
X009405Y024802D01*
X009396Y024802D02*
X010839Y024802D01*
X010743Y024901D02*
X009422Y024901D01*
X009405Y024901D02*
X008524Y024901D01*
X008521Y024901D02*
X008015Y024901D01*
X007974Y024999D02*
X008511Y024999D01*
X008524Y024999D02*
X009405Y024999D01*
X009431Y024999D02*
X010702Y024999D01*
X010688Y025098D02*
X009407Y025098D01*
X009405Y025098D02*
X008524Y025098D01*
X008536Y025098D02*
X007884Y025098D01*
X007497Y025335D02*
X010697Y025335D01*
X012581Y027219D01*
X012581Y027344D01*
X012616Y027359D01*
X012743Y027485D01*
X012811Y027651D01*
X012811Y027830D01*
X012743Y027995D01*
X012616Y028122D01*
X012451Y028190D01*
X012272Y028190D01*
X012106Y028122D01*
X011980Y027995D01*
X011911Y027830D01*
X011911Y027651D01*
X011980Y027485D01*
X012102Y027362D01*
X010515Y025775D01*
X010469Y025775D01*
X010502Y025808D01*
X010555Y025936D01*
X010555Y026075D01*
X010502Y026203D01*
X010404Y026301D01*
X010276Y026354D01*
X010137Y026354D01*
X010009Y026301D01*
X009911Y026203D01*
X009858Y026075D01*
X009858Y025936D01*
X009911Y025808D01*
X009944Y025775D01*
X007315Y025775D01*
X007186Y025647D01*
X007154Y025615D01*
X007205Y025736D01*
X007205Y025875D01*
X007152Y026003D01*
X007054Y026101D01*
X006926Y026154D01*
X006787Y026154D01*
X006659Y026101D01*
X006561Y026003D01*
X006508Y025875D01*
X006508Y025736D01*
X006561Y025608D01*
X006659Y025510D01*
X006787Y025457D01*
X006926Y025457D01*
X007047Y025507D01*
X006944Y025404D01*
X006837Y025404D01*
X006709Y025351D01*
X006611Y025253D01*
X006558Y025125D01*
X006558Y024986D01*
X006611Y024858D01*
X006709Y024760D01*
X006837Y024707D01*
X006976Y024707D01*
X007104Y024760D01*
X007202Y024858D01*
X007255Y024986D01*
X007255Y025093D01*
X007497Y025335D01*
X007457Y025295D02*
X010736Y025295D01*
X010756Y025393D02*
X010824Y025393D01*
X010696Y025196D02*
X009338Y025196D01*
X009405Y025196D02*
X008524Y025196D01*
X008524Y025228D02*
X009405Y025228D01*
X009405Y024347D01*
X008524Y024347D01*
X008524Y025228D01*
X008605Y025196D02*
X007359Y025196D01*
X007428Y025098D02*
X007260Y025098D01*
X007255Y024999D02*
X007338Y024999D01*
X007297Y024901D02*
X007220Y024901D01*
X007288Y024802D02*
X007146Y024802D01*
X007300Y024704D02*
X002812Y024704D01*
X002729Y024605D02*
X007341Y024605D01*
X007434Y024507D02*
X002659Y024507D01*
X002588Y024408D02*
X008646Y024408D01*
X008524Y024408D02*
X009405Y024408D01*
X009405Y024507D02*
X008524Y024507D01*
X008552Y024507D02*
X007878Y024507D01*
X007972Y024605D02*
X008516Y024605D01*
X008524Y024605D02*
X009405Y024605D01*
X009427Y024605D02*
X009920Y024605D01*
X009815Y024507D02*
X009391Y024507D01*
X009297Y024408D02*
X009772Y024408D01*
X009758Y024310D02*
X002518Y024310D01*
X002448Y024211D02*
X009768Y024211D01*
X009809Y024113D02*
X007724Y024113D01*
X007388Y024113D02*
X005854Y024113D01*
X006083Y024014D02*
X007273Y024014D01*
X007225Y023916D02*
X006181Y023916D01*
X006280Y023817D02*
X007208Y023817D01*
X007215Y023719D02*
X006321Y023719D01*
X006361Y023620D02*
X007256Y023620D01*
X007347Y023522D02*
X006389Y023522D01*
X005482Y024113D02*
X002377Y024113D01*
X002307Y024014D02*
X005253Y024014D01*
X005155Y023916D02*
X002237Y023916D01*
X002167Y023817D02*
X005057Y023817D01*
X005016Y023719D02*
X002104Y023719D01*
X002045Y023620D02*
X004975Y023620D01*
X004947Y023522D02*
X001987Y023522D01*
X001928Y023423D02*
X004947Y023423D01*
X004947Y023325D02*
X001869Y023325D01*
X001811Y023226D02*
X004963Y023226D01*
X005004Y023128D02*
X001752Y023128D01*
X001693Y023029D02*
X005045Y023029D01*
X005127Y022931D02*
X001634Y022931D01*
X001585Y022832D02*
X005225Y022832D01*
X005414Y022734D02*
X001537Y022734D01*
X002896Y024802D02*
X006667Y024802D01*
X006593Y024901D02*
X002979Y024901D01*
X003063Y024999D02*
X006558Y024999D01*
X006558Y025098D02*
X003146Y025098D01*
X003230Y025196D02*
X006588Y025196D01*
X006653Y025295D02*
X003313Y025295D01*
X003399Y025393D02*
X006812Y025393D01*
X006703Y025492D02*
X003498Y025492D01*
X003596Y025590D02*
X006579Y025590D01*
X006527Y025689D02*
X003695Y025689D01*
X003793Y025788D02*
X006508Y025788D01*
X006513Y025886D02*
X003892Y025886D01*
X003990Y025985D02*
X006553Y025985D01*
X006641Y026083D02*
X004089Y026083D01*
X004204Y026182D02*
X008761Y026182D01*
X008771Y026158D02*
X008869Y026060D01*
X008997Y026007D01*
X009136Y026007D01*
X009264Y026060D01*
X009362Y026158D01*
X009415Y026286D01*
X009415Y026407D01*
X009526Y026407D01*
X009654Y026460D01*
X009752Y026558D01*
X009805Y026686D01*
X009805Y026825D01*
X009752Y026953D01*
X009654Y027051D01*
X009526Y027104D01*
X009387Y027104D01*
X009259Y027051D01*
X009161Y026953D01*
X009108Y026825D01*
X009108Y026704D01*
X008997Y026704D01*
X008869Y026651D01*
X008771Y026553D01*
X008718Y026425D01*
X008718Y026286D01*
X008771Y026158D01*
X008846Y026083D02*
X007072Y026083D01*
X007159Y025985D02*
X009858Y025985D01*
X009861Y026083D02*
X009287Y026083D01*
X009371Y026182D02*
X009902Y026182D01*
X009988Y026280D02*
X009412Y026280D01*
X009415Y026379D02*
X011118Y026379D01*
X011217Y026477D02*
X009671Y026477D01*
X009759Y026576D02*
X011315Y026576D01*
X011414Y026674D02*
X009800Y026674D01*
X009805Y026773D02*
X011512Y026773D01*
X011611Y026871D02*
X009786Y026871D01*
X009735Y026970D02*
X011709Y026970D01*
X011808Y027068D02*
X009612Y027068D01*
X009300Y027068D02*
X005322Y027068D01*
X005184Y026970D02*
X009178Y026970D01*
X009127Y026871D02*
X005046Y026871D01*
X004908Y026773D02*
X009108Y026773D01*
X008925Y026674D02*
X004785Y026674D01*
X004669Y026576D02*
X008794Y026576D01*
X008740Y026477D02*
X004553Y026477D01*
X004436Y026379D02*
X008718Y026379D01*
X008720Y026280D02*
X004320Y026280D01*
X005460Y027167D02*
X011906Y027167D01*
X012005Y027265D02*
X005598Y027265D01*
X005746Y027364D02*
X011101Y027364D01*
X011106Y027359D02*
X011272Y027290D01*
X011451Y027290D01*
X011616Y027359D01*
X011743Y027485D01*
X011811Y027651D01*
X011811Y027830D01*
X011743Y027995D01*
X011616Y028122D01*
X011451Y028190D01*
X011272Y028190D01*
X011106Y028122D01*
X010980Y027995D01*
X010911Y027830D01*
X010911Y027651D01*
X010980Y027485D01*
X011106Y027359D01*
X011003Y027462D02*
X005911Y027462D01*
X006077Y027561D02*
X010948Y027561D01*
X010911Y027659D02*
X006242Y027659D01*
X006407Y027758D02*
X010911Y027758D01*
X010922Y027856D02*
X006577Y027856D01*
X006778Y027955D02*
X010963Y027955D01*
X011038Y028053D02*
X006980Y028053D01*
X007181Y028152D02*
X011178Y028152D01*
X011544Y028152D02*
X012178Y028152D01*
X012038Y028053D02*
X011685Y028053D01*
X011759Y027955D02*
X011963Y027955D01*
X011922Y027856D02*
X011800Y027856D01*
X011811Y027758D02*
X011911Y027758D01*
X011911Y027659D02*
X011811Y027659D01*
X011774Y027561D02*
X011948Y027561D01*
X012003Y027462D02*
X011719Y027462D01*
X011621Y027364D02*
X012101Y027364D01*
X012361Y027310D02*
X012361Y027740D01*
X012361Y027310D02*
X010606Y025555D01*
X007406Y025555D01*
X006906Y025055D01*
X007010Y025492D02*
X007032Y025492D01*
X007185Y025689D02*
X007229Y025689D01*
X007205Y025788D02*
X009932Y025788D01*
X009879Y025886D02*
X007200Y025886D01*
X008811Y025196D02*
X008811Y025196D01*
X008811Y025098D02*
X008811Y025098D01*
X008811Y024999D02*
X008811Y024999D01*
X008811Y024901D02*
X008811Y024901D01*
X008811Y024802D02*
X008811Y024802D01*
X008811Y024704D02*
X008811Y024704D01*
X008811Y024605D02*
X008811Y024605D01*
X008811Y024507D02*
X008811Y024507D01*
X008811Y024408D02*
X008811Y024408D01*
X009131Y024408D02*
X009131Y024408D01*
X009131Y024507D02*
X009131Y024507D01*
X009131Y024605D02*
X009131Y024605D01*
X009131Y024704D02*
X009131Y024704D01*
X009131Y024802D02*
X009131Y024802D01*
X009131Y024901D02*
X009131Y024901D01*
X009131Y024999D02*
X009131Y024999D01*
X009131Y025098D02*
X009131Y025098D01*
X009131Y025196D02*
X009131Y025196D01*
X010481Y025788D02*
X010527Y025788D01*
X010534Y025886D02*
X010626Y025886D01*
X010555Y025985D02*
X010724Y025985D01*
X010823Y026083D02*
X010551Y026083D01*
X010511Y026182D02*
X010921Y026182D01*
X011020Y026280D02*
X010425Y026280D01*
X012332Y026970D02*
X019538Y026970D01*
X019400Y027068D02*
X012430Y027068D01*
X012529Y027167D02*
X019262Y027167D01*
X019124Y027265D02*
X012581Y027265D01*
X012621Y027364D02*
X013101Y027364D01*
X013106Y027359D02*
X013272Y027290D01*
X013451Y027290D01*
X013616Y027359D01*
X013743Y027485D01*
X013811Y027651D01*
X013811Y027830D01*
X013743Y027995D01*
X013616Y028122D01*
X013451Y028190D01*
X013272Y028190D01*
X013106Y028122D01*
X012980Y027995D01*
X012911Y027830D01*
X012911Y027651D01*
X012980Y027485D01*
X013106Y027359D01*
X013003Y027462D02*
X012719Y027462D01*
X012774Y027561D02*
X012948Y027561D01*
X012911Y027659D02*
X012811Y027659D01*
X012811Y027758D02*
X012911Y027758D01*
X012922Y027856D02*
X012800Y027856D01*
X012759Y027955D02*
X012963Y027955D01*
X013038Y028053D02*
X012685Y028053D01*
X012544Y028152D02*
X013178Y028152D01*
X013544Y028152D02*
X017541Y028152D01*
X017742Y028053D02*
X013685Y028053D01*
X013759Y027955D02*
X017944Y027955D01*
X018145Y027856D02*
X013800Y027856D01*
X013811Y027758D02*
X018315Y027758D01*
X018480Y027659D02*
X013811Y027659D01*
X013774Y027561D02*
X018645Y027561D01*
X018811Y027462D02*
X013719Y027462D01*
X013621Y027364D02*
X018976Y027364D01*
X017549Y025590D02*
X014655Y025590D01*
X014655Y025492D02*
X017486Y025492D01*
X018042Y025098D02*
X018121Y025098D01*
X017969Y023522D02*
X017510Y023522D01*
X017451Y023029D02*
X019210Y023029D01*
X020638Y020468D02*
X015705Y020468D01*
X015705Y020525D02*
X015705Y020386D01*
X015652Y020258D01*
X015554Y020160D01*
X015426Y020107D01*
X015287Y020107D01*
X015159Y020160D01*
X015061Y020258D01*
X015008Y020386D01*
X015008Y020525D01*
X015061Y020653D01*
X015159Y020751D01*
X015170Y020755D01*
X015159Y020760D01*
X015061Y020858D01*
X015008Y020986D01*
X015008Y021125D01*
X015061Y021253D01*
X015159Y021351D01*
X015287Y021404D01*
X015426Y021404D01*
X015554Y021351D01*
X015652Y021253D01*
X015705Y021125D01*
X015705Y020986D01*
X015652Y020858D01*
X015554Y020760D01*
X015543Y020755D01*
X015554Y020751D01*
X015652Y020653D01*
X015705Y020525D01*
X015687Y020567D02*
X024055Y020567D01*
X024026Y020665D02*
X015639Y020665D01*
X015558Y020764D02*
X023997Y020764D01*
X023967Y020862D02*
X015654Y020862D01*
X015694Y020961D02*
X023938Y020961D01*
X023909Y021059D02*
X015705Y021059D01*
X015691Y021158D02*
X023871Y021158D01*
X023833Y021256D02*
X015648Y021256D01*
X015544Y021355D02*
X023794Y021355D01*
X021570Y018400D02*
X021234Y018400D01*
X021301Y018301D02*
X021508Y018301D01*
X022118Y017513D02*
X024549Y017513D01*
X024553Y017415D02*
X022248Y017415D01*
X022318Y017316D02*
X024557Y017316D01*
X024561Y017218D02*
X022359Y017218D01*
X022326Y016922D02*
X024558Y016922D01*
X024554Y016824D02*
X022266Y016824D01*
X022163Y016725D02*
X024550Y016725D01*
X024546Y016627D02*
X021744Y016627D01*
X021750Y016528D02*
X021646Y016528D01*
X021661Y016492D02*
X021535Y016365D01*
X021466Y016200D01*
X021466Y016021D01*
X021535Y015855D01*
X021661Y015729D01*
X021827Y015660D01*
X022006Y015660D01*
X022171Y015729D01*
X022298Y015855D01*
X022366Y016021D01*
X022366Y016200D01*
X022298Y016365D01*
X022171Y016492D01*
X022006Y016560D01*
X021827Y016560D01*
X021661Y016492D01*
X021600Y016430D02*
X021547Y016430D01*
X021521Y016331D02*
X021312Y016331D01*
X021352Y016233D02*
X021480Y016233D01*
X021466Y016134D02*
X021366Y016134D01*
X021366Y016036D02*
X021466Y016036D01*
X021501Y015937D02*
X021332Y015937D01*
X021281Y015839D02*
X021551Y015839D01*
X021649Y015740D02*
X021183Y015740D01*
X021046Y015543D02*
X021786Y015543D01*
X021615Y015445D02*
X021218Y015445D01*
X021305Y015346D02*
X021527Y015346D01*
X021486Y015248D02*
X021346Y015248D01*
X021366Y015149D02*
X021466Y015149D01*
X021466Y015051D02*
X021366Y015051D01*
X021338Y014952D02*
X021494Y014952D01*
X021536Y014854D02*
X021296Y014854D01*
X021198Y014755D02*
X021634Y014755D01*
X021630Y014460D02*
X021203Y014460D01*
X021299Y014361D02*
X021533Y014361D01*
X021492Y014263D02*
X021340Y014263D01*
X021366Y014164D02*
X021466Y014164D01*
X021466Y014066D02*
X021366Y014066D01*
X021344Y013967D02*
X021488Y013967D01*
X021529Y013869D02*
X021303Y013869D01*
X021213Y013770D02*
X021619Y013770D01*
X022198Y014755D02*
X024327Y014755D01*
X024347Y014854D02*
X022296Y014854D01*
X022338Y014952D02*
X024368Y014952D01*
X024389Y015051D02*
X022366Y015051D01*
X022366Y015149D02*
X024405Y015149D01*
X024418Y015248D02*
X022346Y015248D01*
X022305Y015346D02*
X024430Y015346D01*
X024442Y015445D02*
X022218Y015445D01*
X022046Y015543D02*
X024454Y015543D01*
X024467Y015642D02*
X019054Y015642D01*
X018858Y015642D02*
X017586Y015642D01*
X017656Y015543D02*
X018702Y015543D01*
X018637Y015445D02*
X017696Y015445D01*
X017705Y015346D02*
X018608Y015346D01*
X018608Y015248D02*
X017689Y015248D01*
X017643Y015149D02*
X018644Y015149D01*
X018718Y015051D02*
X017553Y015051D01*
X017156Y016205D02*
X017556Y016605D01*
X015356Y019805D02*
X015356Y019855D01*
X015146Y020173D02*
X009179Y020173D01*
X009205Y020271D02*
X015055Y020271D01*
X015015Y020370D02*
X009205Y020370D01*
X009166Y020468D02*
X009259Y020468D01*
X009287Y020457D02*
X009426Y020457D01*
X009554Y020510D01*
X009652Y020608D01*
X009705Y020736D01*
X009705Y020875D01*
X009652Y021003D01*
X009554Y021101D01*
X009426Y021154D01*
X009287Y021154D01*
X009159Y021101D01*
X009061Y021003D01*
X009008Y020875D01*
X009008Y020736D01*
X009061Y020608D01*
X009159Y020510D01*
X009287Y020457D01*
X009453Y020468D02*
X012801Y020468D01*
X012707Y020567D02*
X009611Y020567D01*
X009676Y020665D02*
X012666Y020665D01*
X012658Y020764D02*
X012642Y020764D01*
X012470Y020764D02*
X009705Y020764D01*
X009705Y020862D02*
X012307Y020862D01*
X012239Y020961D02*
X009669Y020961D01*
X009595Y021059D02*
X012208Y021059D01*
X012208Y021158D02*
X007667Y021158D01*
X007823Y021059D02*
X009118Y021059D01*
X009044Y020961D02*
X007890Y020961D01*
X007924Y020862D02*
X009008Y020862D01*
X009008Y020764D02*
X007924Y020764D01*
X008267Y020665D02*
X009037Y020665D01*
X009088Y020567D02*
X009102Y020567D01*
X008625Y020567D02*
X008365Y020567D01*
X008408Y020468D02*
X008547Y020468D01*
X008508Y020370D02*
X008424Y020370D01*
X008420Y020271D02*
X008508Y020271D01*
X008534Y020173D02*
X008379Y020173D01*
X008296Y020074D02*
X008595Y020074D01*
X008971Y019976D02*
X020485Y019976D01*
X020466Y020074D02*
X009118Y020074D01*
X008874Y019680D02*
X010911Y019680D01*
X010831Y019582D02*
X008960Y019582D01*
X009001Y019483D02*
X010790Y019483D01*
X010788Y019385D02*
X009005Y019385D01*
X008984Y019286D02*
X010807Y019286D01*
X010853Y019188D02*
X008932Y019188D01*
X008815Y019089D02*
X010957Y019089D01*
X011355Y019089D02*
X013655Y019089D01*
X013615Y018991D02*
X008903Y018991D01*
X008944Y018892D02*
X013608Y018892D01*
X013746Y019188D02*
X011459Y019188D01*
X011506Y019286D02*
X020502Y019286D01*
X020555Y019385D02*
X011524Y019385D01*
X011522Y019483D02*
X020653Y019483D01*
X020611Y019779D02*
X007994Y019779D01*
X007895Y019877D02*
X020525Y019877D01*
X020466Y020173D02*
X015567Y020173D01*
X015657Y020271D02*
X020496Y020271D01*
X020540Y020370D02*
X015698Y020370D01*
X015155Y020764D02*
X013492Y020764D01*
X013346Y020665D02*
X015074Y020665D01*
X015025Y020567D02*
X013305Y020567D01*
X013212Y020468D02*
X015008Y020468D01*
X015059Y020862D02*
X013656Y020862D01*
X013724Y020961D02*
X015018Y020961D01*
X015008Y021059D02*
X013755Y021059D01*
X013755Y021158D02*
X015022Y021158D01*
X015065Y021256D02*
X014495Y021256D01*
X014599Y021355D02*
X015169Y021355D01*
X014118Y021256D02*
X013721Y021256D01*
X013650Y021355D02*
X014014Y021355D01*
X013163Y021355D02*
X012800Y021355D01*
X012871Y021256D02*
X013092Y021256D01*
X013058Y021158D02*
X012905Y021158D01*
X011902Y018794D02*
X011429Y018794D01*
X011527Y018695D02*
X011808Y018695D01*
X011767Y018597D02*
X011626Y018597D01*
X011724Y018498D02*
X011758Y018498D01*
X011876Y018243D02*
X011909Y018210D01*
X012037Y018157D01*
X012144Y018157D01*
X012215Y018085D01*
X012425Y018085D01*
X012386Y018047D01*
X012265Y017925D01*
X011997Y017925D01*
X011876Y018047D01*
X011876Y018243D01*
X011876Y018203D02*
X011926Y018203D01*
X011876Y018104D02*
X012196Y018104D01*
X012346Y018006D02*
X011917Y018006D01*
X011590Y017710D02*
X009690Y017710D01*
X009646Y017809D02*
X011132Y017809D01*
X011280Y017809D02*
X011492Y017809D01*
X010962Y017907D02*
X009538Y017907D01*
X009552Y018006D02*
X010891Y018006D01*
X010858Y018104D02*
X009654Y018104D01*
X009756Y018203D02*
X010858Y018203D01*
X010890Y018301D02*
X009858Y018301D01*
X009531Y018597D02*
X008878Y018597D01*
X008929Y018695D02*
X009633Y018695D01*
X009734Y018794D02*
X008948Y018794D01*
X008754Y018498D02*
X009429Y018498D01*
X008089Y018104D02*
X008026Y018104D01*
X006256Y014855D02*
X006256Y014805D01*
X005387Y011406D02*
X001576Y011406D01*
X001624Y011308D02*
X005321Y011308D01*
X005288Y011209D02*
X001682Y011209D01*
X001741Y011111D02*
X005288Y011111D01*
X005317Y011012D02*
X001799Y011012D01*
X001858Y010914D02*
X005377Y010914D01*
X009805Y013967D02*
X010199Y013967D01*
X010077Y013869D02*
X009904Y013869D01*
X010002Y013770D02*
X010027Y013770D01*
X012476Y017513D02*
X012817Y017513D01*
X012808Y017612D02*
X012574Y017612D01*
X012673Y017710D02*
X012823Y017710D01*
X014086Y013415D02*
X014086Y013037D01*
X013786Y013337D01*
X013930Y013337D01*
X014065Y013393D01*
X014086Y013415D01*
X014086Y013376D02*
X014024Y013376D01*
X014086Y013278D02*
X013845Y013278D01*
X013943Y013179D02*
X014086Y013179D01*
X014086Y013081D02*
X014042Y013081D01*
X022183Y015740D02*
X024479Y015740D01*
X024491Y015839D02*
X022281Y015839D01*
X022332Y015937D02*
X024504Y015937D01*
X024516Y016036D02*
X022366Y016036D01*
X022366Y016134D02*
X024525Y016134D01*
X024530Y016233D02*
X022352Y016233D01*
X022312Y016331D02*
X024534Y016331D01*
X024538Y016430D02*
X022233Y016430D01*
X022082Y016528D02*
X024542Y016528D01*
X016566Y025098D02*
X016566Y025098D01*
X016566Y025196D02*
X016566Y025196D01*
X016566Y025295D02*
X016566Y025295D01*
X017339Y028250D02*
X007383Y028250D01*
X007616Y028349D02*
X017106Y028349D01*
X016853Y028447D02*
X007869Y028447D01*
X008121Y028546D02*
X016601Y028546D01*
X016349Y028644D02*
X008374Y028644D01*
X008697Y028743D02*
X016025Y028743D01*
X015694Y028841D02*
X009028Y028841D01*
X009359Y028940D02*
X015364Y028940D01*
X014897Y029038D02*
X009826Y029038D01*
X010295Y029137D02*
X014427Y029137D01*
X013675Y029235D02*
X011047Y029235D01*
D13*
X009456Y026755D03*
X009066Y026355D03*
X010206Y026005D03*
X011476Y024585D03*
X011456Y023855D03*
X012106Y023855D03*
X011606Y025605D03*
X012106Y025705D03*
X014306Y025555D03*
X014756Y024255D03*
X014306Y021555D03*
X013406Y021105D03*
X013006Y020755D03*
X012556Y021105D03*
X011956Y021655D03*
X012106Y020305D03*
X012106Y018505D03*
X011206Y018155D03*
X009906Y016755D03*
X009906Y016255D03*
X009406Y015355D03*
X009006Y016755D03*
X008406Y017205D03*
X008295Y017817D03*
X008600Y018812D03*
X008656Y019405D03*
X008856Y020305D03*
X009356Y020805D03*
X008556Y021955D03*
X007856Y021955D03*
X008456Y023205D03*
X007556Y023805D03*
X006906Y025055D03*
X006856Y025805D03*
X007306Y027655D03*
X010106Y024305D03*
X007256Y019805D03*
X007406Y019355D03*
X007206Y018855D03*
X006856Y017555D03*
X006856Y016905D03*
X006306Y015905D03*
X006256Y015305D03*
X006256Y014855D03*
X007306Y014155D03*
X007306Y011655D03*
X006456Y010455D03*
X006456Y008255D03*
X009606Y008505D03*
X009706Y009105D03*
X010106Y009505D03*
X010606Y009855D03*
X010256Y010255D03*
X010306Y010755D03*
X010306Y011305D03*
X009906Y011705D03*
X009856Y012155D03*
X009806Y012605D03*
X009906Y013055D03*
X010356Y013105D03*
X010356Y013655D03*
X012106Y012105D03*
X011856Y011605D03*
X011406Y011255D03*
X012856Y010855D03*
X013606Y009955D03*
X014106Y009305D03*
X014056Y008505D03*
X014456Y007405D03*
X013956Y006855D03*
X013256Y006705D03*
X012606Y006205D03*
X011956Y006555D03*
X012306Y007005D03*
X010856Y008205D03*
X010606Y007505D03*
X014156Y011405D03*
X014706Y010855D03*
X015106Y011555D03*
X015106Y012455D03*
X015106Y013105D03*
X017356Y014155D03*
X017356Y014755D03*
X017356Y015355D03*
X017356Y015905D03*
X018306Y017205D03*
X019006Y018655D03*
X017906Y019955D03*
X016956Y018855D03*
X016056Y018205D03*
X014756Y017905D03*
X014056Y017905D03*
X013606Y017605D03*
X013456Y017955D03*
X013156Y017605D03*
X014356Y016805D03*
X014356Y016355D03*
X013956Y018905D03*
X015356Y019855D03*
X015356Y020455D03*
X015356Y021055D03*
X017806Y025355D03*
X018356Y025355D03*
X018956Y015305D03*
X016006Y009405D03*
X016756Y008205D03*
X015906Y007055D03*
X016056Y006505D03*
X015506Y006505D03*
X009356Y017605D03*
X004956Y017455D03*
X003956Y017105D03*
X003506Y016605D03*
X003106Y019105D03*
X002456Y019455D03*
X002256Y020255D03*
X003206Y021055D03*
D14*
X002906Y020455D03*
X004006Y020855D03*
X004006Y018855D03*
X001656Y019605D03*
X003206Y016005D03*
X001656Y014705D03*
X003356Y012555D03*
X005706Y012405D03*
X005656Y011155D03*
X008056Y012505D03*
X009256Y009905D03*
X009556Y007905D03*
X012856Y009955D03*
X013156Y011605D03*
X013856Y013705D03*
X015506Y016605D03*
X014756Y017105D03*
X017606Y020705D03*
X017206Y021755D03*
X017857Y022205D03*
X018706Y022205D03*
X019456Y022755D03*
X018256Y023755D03*
X017656Y023755D03*
X017206Y023305D03*
X016906Y026005D03*
X015906Y026555D03*
X014256Y026105D03*
X011056Y025105D03*
X009606Y022855D03*
X007656Y024805D03*
X007556Y020805D03*
X008056Y020355D03*
X009906Y017205D03*
X011056Y017605D03*
X011156Y019405D03*
X010406Y014755D03*
D15*
X001656Y014705D02*
X001606Y014705D01*
X001656Y019605D02*
X001606Y019605D01*
D16*
X003956Y018805D02*
X004006Y018855D01*
X003356Y012555D02*
X003306Y012555D01*
D17*
X010589Y020457D03*
X010786Y020653D03*
X010983Y020457D03*
X010983Y020850D03*
X010589Y020850D03*
X012361Y015929D03*
X012164Y015732D03*
X011967Y015535D03*
X012164Y015339D03*
X012361Y015535D03*
X012558Y015339D03*
X012755Y015535D03*
X012558Y015732D03*
X012361Y015142D03*
X012164Y008646D03*
X012361Y008449D03*
X012558Y008646D03*
X012558Y008252D03*
X012164Y008252D03*
M02*
