G75*
G70*
%OFA0B0*%
%FSLAX24Y24*%
%IPPOS*%
%LPD*%
%AMOC8*
5,1,8,0,0,1.08239X$1,22.5*
%
%ADD10R,0.0513X0.0474*%
%ADD11R,0.0237X0.0178*%
%ADD12R,0.0710X0.0710*%
%ADD13R,0.0178X0.0237*%
%ADD14R,0.0395X0.0277*%
%ADD15R,0.0277X0.0395*%
%ADD16C,0.0640*%
%ADD17R,0.0360X0.0200*%
%ADD18R,0.0480X0.0710*%
%ADD19C,0.0380*%
%ADD20R,0.0237X0.0277*%
%ADD21R,0.0277X0.0237*%
%ADD22R,0.0474X0.0513*%
%ADD23C,0.0218*%
%ADD24C,0.0080*%
%ADD25R,0.0180X0.0400*%
%ADD26R,0.0400X0.0180*%
%ADD27R,0.1500X0.1500*%
%ADD28R,0.0410X0.0190*%
%ADD29R,0.0190X0.0410*%
%ADD30R,0.0750X0.0750*%
%ADD31R,0.0410X0.0160*%
%ADD32R,0.1040X0.0850*%
%ADD33R,0.0631X0.0552*%
%ADD34R,0.0867X0.0375*%
%ADD35R,0.0867X0.0178*%
%ADD36OC8,0.0640*%
%ADD37C,0.1182*%
%ADD38C,0.0190*%
%ADD39R,0.2088X0.2088*%
%ADD40R,0.0540X0.0220*%
%ADD41C,0.0437*%
%ADD42C,0.0476*%
%ADD43C,0.0358*%
D10*
X006515Y012386D03*
X007184Y012386D03*
X005609Y014354D03*
X004940Y014354D03*
X004940Y015535D03*
X005609Y015535D03*
X005609Y016716D03*
X004940Y016716D03*
X018326Y017898D03*
X018995Y017898D03*
D11*
X019172Y016618D03*
X019172Y016421D03*
X019172Y016224D03*
X019172Y016027D03*
X018148Y016027D03*
X018148Y016224D03*
X018148Y016421D03*
X018148Y016618D03*
D12*
X018660Y016323D03*
D13*
X018562Y016835D03*
X018759Y016835D03*
X018956Y016835D03*
X018365Y016835D03*
X018365Y015811D03*
X018562Y015811D03*
X018759Y015811D03*
X018956Y015811D03*
D14*
X014723Y019472D03*
X014723Y019787D03*
X014723Y020102D03*
X014723Y020417D03*
X014723Y020732D03*
X014723Y021047D03*
X013936Y021047D03*
X013936Y020732D03*
X013936Y020417D03*
X013936Y020102D03*
X013936Y019787D03*
X013936Y019472D03*
D15*
X014330Y019472D03*
X014330Y021047D03*
D16*
X019865Y024391D02*
X020261Y024787D01*
X020969Y024080D02*
X020573Y023684D01*
X021280Y022977D02*
X021676Y023373D01*
X013361Y027460D02*
X013361Y028020D01*
X012361Y028020D02*
X012361Y027460D01*
X011361Y027460D02*
X011361Y028020D01*
D17*
X016156Y025171D03*
X016156Y024911D03*
X016156Y024651D03*
X016976Y024651D03*
X016976Y024911D03*
X016976Y025171D03*
D18*
X016566Y024911D03*
D19*
X016566Y025071D03*
X016566Y024751D03*
X013376Y024659D03*
X013376Y024979D03*
X013066Y024979D03*
X012756Y024979D03*
X012756Y024659D03*
X013066Y024659D03*
X009131Y024659D03*
X008811Y024659D03*
X008811Y024979D03*
X009131Y024979D03*
D20*
X008070Y016391D03*
X007814Y016391D03*
X007558Y016391D03*
X007302Y016391D03*
X007302Y014659D03*
X007558Y014659D03*
X007814Y014659D03*
X008070Y014659D03*
D21*
X008552Y015141D03*
X008552Y015397D03*
X008552Y015653D03*
X008552Y015909D03*
X006820Y015909D03*
X006820Y015653D03*
X006820Y015397D03*
X006820Y015141D03*
D22*
X008818Y013114D03*
X008818Y012445D03*
X006456Y009571D03*
X006456Y008902D03*
X015963Y021835D03*
X016633Y021835D03*
X016633Y023409D03*
X015963Y023409D03*
D23*
X011554Y021037D02*
X011476Y021037D01*
X011476Y020781D02*
X011554Y020781D01*
X011554Y020526D02*
X011476Y020526D01*
X011476Y020270D02*
X011554Y020270D01*
X011170Y019964D02*
X011170Y019886D01*
X010914Y019886D02*
X010914Y019964D01*
X010658Y019964D02*
X010658Y019886D01*
X010402Y019886D02*
X010402Y019964D01*
X010097Y020270D02*
X010019Y020270D01*
X010019Y020526D02*
X010097Y020526D01*
X010097Y020781D02*
X010019Y020781D01*
X010019Y021037D02*
X010097Y021037D01*
X010402Y021343D02*
X010402Y021421D01*
X010658Y021421D02*
X010658Y021343D01*
X010914Y021343D02*
X010914Y021421D01*
X011170Y021421D02*
X011170Y021343D01*
D24*
X011308Y021175D02*
X011308Y020132D01*
X010265Y020132D01*
X010265Y021077D01*
X010363Y021175D01*
X011308Y021175D01*
X011308Y021155D02*
X010343Y021155D01*
X010265Y021076D02*
X011308Y021076D01*
X011308Y020998D02*
X010265Y020998D01*
X010265Y020919D02*
X011308Y020919D01*
X011308Y020841D02*
X010265Y020841D01*
X010265Y020762D02*
X011308Y020762D01*
X011308Y020684D02*
X010265Y020684D01*
X010265Y020605D02*
X011308Y020605D01*
X011308Y020527D02*
X010265Y020527D01*
X010265Y020448D02*
X011308Y020448D01*
X011308Y020370D02*
X010265Y020370D01*
X010265Y020291D02*
X011308Y020291D01*
X011308Y020213D02*
X010265Y020213D01*
X010265Y020134D02*
X011308Y020134D01*
D25*
X011651Y009419D03*
X011811Y009419D03*
X011971Y009419D03*
X012121Y009419D03*
X012281Y009419D03*
X012441Y009419D03*
X012601Y009419D03*
X012751Y009419D03*
X012911Y009419D03*
X013071Y009419D03*
X013071Y007479D03*
X012911Y007479D03*
X012751Y007479D03*
X012601Y007479D03*
X012441Y007479D03*
X012281Y007479D03*
X012121Y007479D03*
X011971Y007479D03*
X011811Y007479D03*
X011651Y007479D03*
D26*
X011391Y007739D03*
X011391Y007899D03*
X011391Y008059D03*
X011391Y008209D03*
X011391Y008369D03*
X011391Y008529D03*
X011391Y008689D03*
X011391Y008839D03*
X011391Y008999D03*
X011391Y009159D03*
X013331Y009159D03*
X013331Y008999D03*
X013331Y008839D03*
X013331Y008689D03*
X013331Y008529D03*
X013331Y008369D03*
X013331Y008209D03*
X013331Y008059D03*
X013331Y007899D03*
X013331Y007739D03*
D27*
X012361Y008449D03*
D28*
X009551Y024519D03*
X009551Y024719D03*
X009551Y024919D03*
X009551Y025119D03*
X008391Y025119D03*
X008391Y024919D03*
X008391Y024719D03*
X008391Y024519D03*
D29*
X008671Y024239D03*
X008871Y024239D03*
X009071Y024239D03*
X009271Y024239D03*
X009271Y025399D03*
X009071Y025399D03*
X008871Y025399D03*
X008671Y025399D03*
D30*
X008971Y024819D03*
D31*
X012286Y024899D03*
X012286Y025059D03*
X012286Y025209D03*
X012286Y024739D03*
X012286Y024579D03*
X012286Y024429D03*
X013846Y024429D03*
X013846Y024579D03*
X013846Y024739D03*
X013846Y024899D03*
X013846Y025059D03*
X013846Y025209D03*
D32*
X013066Y024819D03*
D33*
X009251Y011402D03*
X009251Y010653D03*
X008306Y010653D03*
X008306Y011402D03*
D34*
X006534Y018882D03*
X004802Y018882D03*
X004802Y020850D03*
X006534Y020850D03*
D35*
X006534Y020555D03*
X006534Y020358D03*
X006534Y020161D03*
X006534Y019965D03*
X006534Y019768D03*
X006534Y019571D03*
X006534Y019374D03*
X006534Y019177D03*
X004802Y019177D03*
X004802Y019374D03*
X004802Y019571D03*
X004802Y019768D03*
X004802Y019965D03*
X004802Y020161D03*
X004802Y020358D03*
X004802Y020555D03*
D36*
X020916Y020110D03*
X020916Y019110D03*
X020916Y018110D03*
X020916Y017110D03*
X020916Y016110D03*
X020916Y015110D03*
X020916Y014110D03*
X021916Y014110D03*
X021916Y015110D03*
X021916Y016110D03*
X021916Y017110D03*
X021916Y018110D03*
X021916Y019110D03*
X021916Y020110D03*
D37*
X017873Y009630D03*
X005668Y023409D03*
D38*
X011278Y017060D02*
X011278Y016836D01*
X011475Y016836D02*
X011475Y017060D01*
X011672Y017060D02*
X011672Y016836D01*
X011869Y016836D02*
X011869Y017060D01*
X012066Y017060D02*
X012066Y016836D01*
X012263Y016836D02*
X012263Y017060D01*
X012459Y017060D02*
X012459Y016836D01*
X012656Y016836D02*
X012656Y017060D01*
X012853Y017060D02*
X012853Y016836D01*
X013050Y016836D02*
X013050Y017060D01*
X013247Y017060D02*
X013247Y016836D01*
X013444Y016836D02*
X013444Y017060D01*
X013661Y016618D02*
X013885Y016618D01*
X013885Y016421D02*
X013661Y016421D01*
X013661Y016224D02*
X013885Y016224D01*
X013885Y016027D02*
X013661Y016027D01*
X013661Y015831D02*
X013885Y015831D01*
X013885Y015634D02*
X013661Y015634D01*
X013661Y015437D02*
X013885Y015437D01*
X013885Y015240D02*
X013661Y015240D01*
X013661Y015043D02*
X013885Y015043D01*
X013885Y014846D02*
X013661Y014846D01*
X013661Y014650D02*
X013885Y014650D01*
X013885Y014453D02*
X013661Y014453D01*
X013444Y014235D02*
X013444Y014011D01*
X013247Y014011D02*
X013247Y014235D01*
X013050Y014235D02*
X013050Y014011D01*
X012853Y014011D02*
X012853Y014235D01*
X012656Y014235D02*
X012656Y014011D01*
X012459Y014011D02*
X012459Y014235D01*
X012263Y014235D02*
X012263Y014011D01*
X012066Y014011D02*
X012066Y014235D01*
X011869Y014235D02*
X011869Y014011D01*
X011672Y014011D02*
X011672Y014235D01*
X011475Y014235D02*
X011475Y014011D01*
X011278Y014011D02*
X011278Y014235D01*
X011061Y014453D02*
X010837Y014453D01*
X010837Y014650D02*
X011061Y014650D01*
X011061Y014846D02*
X010837Y014846D01*
X010837Y015043D02*
X011061Y015043D01*
X011061Y015240D02*
X010837Y015240D01*
X010837Y015437D02*
X011061Y015437D01*
X011061Y015634D02*
X010837Y015634D01*
X010837Y015831D02*
X011061Y015831D01*
X011061Y016027D02*
X010837Y016027D01*
X010837Y016224D02*
X011061Y016224D01*
X011061Y016421D02*
X010837Y016421D01*
X010837Y016618D02*
X011061Y016618D01*
D39*
X012361Y015535D03*
D40*
X017857Y021181D03*
X017857Y021441D03*
X017857Y021701D03*
X018677Y021701D03*
X018677Y021181D03*
X018677Y022756D03*
X018677Y023276D03*
X017857Y023276D03*
X017857Y023016D03*
X017857Y022756D03*
D41*
X006456Y008255D03*
X006456Y010455D03*
X007306Y011655D03*
X007306Y014155D03*
X006256Y014855D03*
X006256Y015305D03*
X006306Y015905D03*
X006856Y016905D03*
X006856Y017555D03*
X007206Y018855D03*
X007406Y019355D03*
X007256Y019805D03*
X008656Y019405D03*
X008600Y018812D03*
X008295Y017817D03*
X008406Y017205D03*
X009006Y016755D03*
X009906Y016755D03*
X009906Y016255D03*
X009406Y015355D03*
X010356Y013655D03*
X010356Y013105D03*
X009906Y013055D03*
X009806Y012605D03*
X009856Y012155D03*
X009906Y011705D03*
X010306Y011305D03*
X010306Y010755D03*
X010256Y010255D03*
X010606Y009855D03*
X010106Y009505D03*
X009706Y009105D03*
X009606Y008505D03*
X010606Y007505D03*
X010856Y008205D03*
X012306Y007005D03*
X011956Y006555D03*
X012606Y006205D03*
X013256Y006705D03*
X013956Y006855D03*
X014456Y007405D03*
X014056Y008505D03*
X014106Y009305D03*
X013606Y009955D03*
X012856Y010855D03*
X011856Y011605D03*
X012106Y012105D03*
X011406Y011255D03*
X014156Y011405D03*
X014706Y010855D03*
X015106Y011555D03*
X015106Y012455D03*
X015106Y013105D03*
X017356Y014155D03*
X017356Y014755D03*
X017356Y015355D03*
X017356Y015905D03*
X018306Y017205D03*
X019006Y018655D03*
X017906Y019955D03*
X016956Y018855D03*
X016056Y018205D03*
X014756Y017905D03*
X014056Y017905D03*
X013606Y017605D03*
X013456Y017955D03*
X013156Y017605D03*
X012106Y018505D03*
X011206Y018155D03*
X009356Y017605D03*
X008856Y020305D03*
X009356Y020805D03*
X008556Y021955D03*
X007856Y021955D03*
X008456Y023205D03*
X007556Y023805D03*
X006906Y025055D03*
X006856Y025805D03*
X007306Y027655D03*
X009066Y026355D03*
X009456Y026755D03*
X010206Y026005D03*
X011476Y024585D03*
X011456Y023855D03*
X012106Y023855D03*
X011606Y025605D03*
X012106Y025705D03*
X014306Y025555D03*
X014756Y024255D03*
X014306Y021555D03*
X013406Y021105D03*
X013006Y020755D03*
X012556Y021105D03*
X011956Y021655D03*
X012106Y020305D03*
X013956Y018905D03*
X015356Y019855D03*
X015356Y020455D03*
X015356Y021055D03*
X014356Y016805D03*
X014356Y016355D03*
X018956Y015305D03*
X016006Y009405D03*
X016756Y008205D03*
X015906Y007055D03*
X016056Y006505D03*
X015506Y006505D03*
X004956Y017455D03*
X003956Y017105D03*
X003506Y016605D03*
X003106Y019105D03*
X002456Y019455D03*
X002256Y020255D03*
X003206Y021055D03*
X010106Y024305D03*
X017806Y025355D03*
X018356Y025355D03*
D42*
X018256Y023755D03*
X017656Y023755D03*
X017206Y023305D03*
X017857Y022205D03*
X017206Y021755D03*
X017606Y020705D03*
X018706Y022205D03*
X019456Y022755D03*
X016906Y026005D03*
X015906Y026555D03*
X014256Y026105D03*
X011056Y025105D03*
X009606Y022855D03*
X007656Y024805D03*
X007556Y020805D03*
X008056Y020355D03*
X009906Y017205D03*
X011056Y017605D03*
X011156Y019405D03*
X014756Y017105D03*
X015506Y016605D03*
X013856Y013705D03*
X013156Y011605D03*
X012856Y009955D03*
X009556Y007905D03*
X009256Y009905D03*
X008056Y012505D03*
X005706Y012405D03*
X005656Y011155D03*
X003356Y012555D03*
X001656Y014705D03*
X003206Y016005D03*
X004006Y018855D03*
X002906Y020455D03*
X004006Y020855D03*
X001656Y019605D03*
X010406Y014755D03*
D43*
X011967Y015535D03*
X012164Y015339D03*
X012361Y015535D03*
X012558Y015339D03*
X012755Y015535D03*
X012558Y015732D03*
X012361Y015929D03*
X012164Y015732D03*
X012361Y015142D03*
X010983Y020457D03*
X010786Y020653D03*
X010589Y020457D03*
X010589Y020850D03*
X010983Y020850D03*
X012164Y008646D03*
X012361Y008449D03*
X012558Y008646D03*
X012558Y008252D03*
X012164Y008252D03*
M02*
