G75*
G70*
%OFA0B0*%
%FSLAX24Y24*%
%IPPOS*%
%LPD*%
%AMOC8*
5,1,8,0,0,1.08239X$1,22.5*
%
%ADD10R,0.0433X0.0394*%
%ADD11R,0.0394X0.0433*%
%ADD12C,0.0560*%
%ADD13R,0.0315X0.0197*%
%ADD14C,0.0300*%
%ADD15R,0.0315X0.0591*%
%ADD16R,0.0709X0.0551*%
%ADD17R,0.0551X0.0748*%
%ADD18R,0.0551X0.0138*%
%ADD19R,0.0748X0.0709*%
%ADD20R,0.0748X0.0748*%
%ADD21OC8,0.0560*%
%ADD22R,0.0591X0.0197*%
%ADD23C,0.0100*%
%ADD24C,0.0120*%
%ADD25C,0.0357*%
%ADD26C,0.0396*%
%ADD27C,0.0160*%
%ADD28C,0.0278*%
%ADD29C,0.0436*%
D10*
X009211Y006539D03*
X009211Y007209D03*
X017932Y013567D03*
X018601Y013567D03*
X018601Y014748D03*
X017932Y014748D03*
X017932Y015929D03*
X018601Y015929D03*
X016649Y019845D03*
X015980Y019845D03*
X015963Y021047D03*
X016633Y021047D03*
X016633Y022228D03*
X015963Y022228D03*
X013424Y025996D03*
X012754Y025996D03*
X010886Y024531D03*
X010886Y023862D03*
X008424Y027012D03*
X008424Y027681D03*
X007320Y027099D03*
X007320Y026430D03*
X006062Y026500D03*
X006062Y025831D03*
X015511Y027405D03*
X015511Y028075D03*
D11*
X016692Y027681D03*
X016692Y027012D03*
X017840Y026887D03*
X017840Y026217D03*
X019054Y026106D03*
X019054Y025437D03*
X012117Y024531D03*
X012117Y023862D03*
X009605Y022169D03*
X009605Y021500D03*
X009605Y027405D03*
X009605Y028075D03*
X013148Y013114D03*
X013148Y012445D03*
X014330Y012445D03*
X014330Y013114D03*
X016045Y008857D03*
X016045Y008188D03*
X010393Y007996D03*
X010393Y007327D03*
X023385Y016776D03*
X023385Y017445D03*
D12*
X021280Y022977D02*
X021676Y023373D01*
X020969Y024080D02*
X020573Y023684D01*
X019865Y024391D02*
X020261Y024787D01*
X013361Y027460D02*
X013361Y028020D01*
X012361Y028020D02*
X012361Y027460D01*
X011361Y027460D02*
X011361Y028020D01*
D13*
X016505Y018240D03*
X016505Y017492D03*
X017411Y017492D03*
X017408Y017866D03*
X017411Y018240D03*
D14*
X016566Y024751D03*
X016566Y025071D03*
X013376Y024979D03*
X013376Y024659D03*
X013066Y024659D03*
X012756Y024659D03*
X012756Y024979D03*
X013066Y024979D03*
X009131Y024979D03*
X008811Y024979D03*
X008811Y024659D03*
X009131Y024659D03*
D15*
G36*
X006171Y011470D02*
X005949Y011692D01*
X006365Y012108D01*
X006587Y011886D01*
X006171Y011470D01*
G37*
G36*
X006588Y011276D02*
X006366Y011498D01*
X006782Y011914D01*
X007004Y011692D01*
X006588Y011276D01*
G37*
G36*
X006783Y010858D02*
X006561Y011080D01*
X006977Y011496D01*
X007199Y011274D01*
X006783Y010858D01*
G37*
G36*
X007034Y010496D02*
X006812Y010718D01*
X007228Y011134D01*
X007450Y010912D01*
X007034Y010496D01*
G37*
G36*
X007395Y010246D02*
X007173Y010468D01*
X007589Y010884D01*
X007811Y010662D01*
X007395Y010246D01*
G37*
G36*
X007646Y009884D02*
X007424Y010106D01*
X007840Y010522D01*
X008062Y010300D01*
X007646Y009884D01*
G37*
G36*
X008008Y009633D02*
X007786Y009855D01*
X008202Y010271D01*
X008424Y010049D01*
X008008Y009633D01*
G37*
G36*
X008314Y009327D02*
X008092Y009549D01*
X008508Y009965D01*
X008730Y009743D01*
X008314Y009327D01*
G37*
D16*
G36*
X011108Y012295D02*
X010609Y012794D01*
X010998Y013183D01*
X011497Y012684D01*
X011108Y012295D01*
G37*
G36*
X009521Y013882D02*
X009022Y014381D01*
X009411Y014770D01*
X009910Y014271D01*
X009521Y013882D01*
G37*
D17*
G36*
X007768Y008175D02*
X007380Y008563D01*
X007908Y009091D01*
X008296Y008703D01*
X007768Y008175D01*
G37*
G36*
X003828Y011557D02*
X003440Y011945D01*
X003968Y012473D01*
X004356Y012085D01*
X003828Y011557D01*
G37*
D18*
X002774Y016598D03*
X002774Y016854D03*
X002774Y017110D03*
X002774Y017366D03*
X002774Y017622D03*
D19*
X001731Y018685D03*
X001731Y015535D03*
D20*
X001731Y016610D03*
X001731Y017610D03*
D21*
X020916Y017110D03*
X020916Y016110D03*
X020916Y015110D03*
X020916Y014110D03*
X021916Y014110D03*
X021916Y015110D03*
X021916Y016110D03*
X021916Y017110D03*
X021916Y018110D03*
X021916Y019110D03*
X021916Y020110D03*
X020916Y020110D03*
X020916Y019110D03*
X020916Y018110D03*
D22*
X015159Y022905D03*
X014254Y022905D03*
D23*
X005706Y008105D02*
X007356Y006455D01*
X008206Y006455D01*
X008856Y005805D01*
X009206Y005805D01*
X009356Y005655D01*
X015206Y005655D01*
X016056Y006505D01*
X015506Y006505D02*
X014806Y005855D01*
X009456Y005855D01*
X009306Y006005D01*
X008956Y006005D01*
X008306Y006655D01*
X007506Y006655D01*
X005956Y008205D01*
X005956Y009005D01*
X007492Y010542D01*
X007492Y010565D01*
X007743Y010203D02*
X007356Y009816D01*
X007356Y009105D01*
X007829Y008633D01*
X007838Y008633D01*
X006833Y008633D01*
X006456Y008255D01*
X005706Y008105D02*
X005706Y010505D01*
X006056Y010855D01*
X006556Y010855D01*
X006878Y011177D01*
X006880Y011177D01*
X007131Y010815D02*
X006771Y010455D01*
X006456Y010455D01*
X005656Y011155D02*
X006268Y011767D01*
X006268Y011789D01*
X006685Y011595D02*
X006696Y011595D01*
X007206Y012105D01*
X007706Y012105D01*
X009756Y010055D01*
X010056Y010055D01*
X010256Y010255D01*
X010606Y009855D02*
X009656Y009855D01*
X007856Y011655D01*
X007306Y011655D01*
X008105Y009952D02*
X007806Y009654D01*
X007806Y009455D01*
X008156Y009105D01*
X009706Y009105D01*
X010106Y009505D02*
X008552Y009505D01*
X008411Y009646D01*
X009606Y008505D02*
X010056Y008505D01*
X011056Y009505D01*
X011056Y010555D01*
X010306Y011305D01*
X009906Y011705D02*
X010206Y012005D01*
X010206Y013255D01*
X009906Y013555D01*
X009906Y013805D01*
X010156Y014055D01*
X010156Y014305D01*
X009356Y015105D01*
X009356Y017605D01*
X009606Y018005D02*
X010706Y016905D01*
X013056Y016905D01*
X013856Y016105D01*
X013856Y013705D01*
X014330Y012445D02*
X015106Y012445D01*
X015106Y012455D01*
X015106Y011555D02*
X015106Y008055D01*
X014456Y007405D01*
X013956Y007705D02*
X013956Y006855D01*
X013956Y007705D02*
X014656Y008405D01*
X014656Y010905D01*
X014156Y011405D01*
X013156Y012405D02*
X013148Y012413D01*
X013148Y012445D01*
X011306Y010655D02*
X011306Y007605D01*
X011956Y006955D01*
X012406Y006955D01*
X013056Y006305D01*
X014706Y006305D01*
X015456Y007055D01*
X015906Y007055D01*
X016045Y008188D02*
X016739Y008188D01*
X016756Y008205D01*
X016045Y008857D02*
X016006Y008896D01*
X016006Y009405D01*
X014106Y009305D02*
X013256Y008455D01*
X013256Y006705D01*
X012606Y006205D02*
X009545Y006205D01*
X009211Y006539D01*
X009211Y007209D02*
X009556Y007553D01*
X009556Y007905D01*
X009330Y007327D02*
X009211Y007209D01*
X009330Y007327D02*
X010393Y007327D01*
X010393Y007996D02*
X010516Y007996D01*
X011956Y006555D01*
X011306Y010655D02*
X011053Y010909D01*
X011053Y012739D01*
X009856Y013305D02*
X009856Y012155D01*
X009856Y013305D02*
X007256Y015905D01*
X006306Y015905D01*
X007006Y016755D02*
X006856Y016905D01*
X007006Y016755D02*
X009006Y016755D01*
X008406Y017205D02*
X007206Y017205D01*
X006856Y017555D01*
X008056Y018505D02*
X008306Y018255D01*
X009656Y018255D01*
X010806Y017105D01*
X014756Y017105D01*
X014556Y017505D02*
X014356Y017305D01*
X010906Y017305D01*
X009756Y018455D01*
X008406Y018455D01*
X008256Y018605D01*
X008256Y019905D01*
X008456Y020105D01*
X008456Y020605D01*
X008256Y020805D01*
X007556Y020805D01*
X008056Y020355D02*
X008056Y018505D01*
X008600Y018812D02*
X010250Y018812D01*
X010556Y018505D01*
X010556Y017955D01*
X011006Y017505D01*
X014256Y017505D01*
X014656Y017905D01*
X014756Y017905D01*
X014556Y017505D02*
X015206Y017505D01*
X015506Y017205D01*
X015506Y016605D01*
X016056Y016627D02*
X017736Y016627D01*
X017736Y016725D02*
X016056Y016725D01*
X016056Y016824D02*
X017736Y016824D01*
X017736Y016922D02*
X016056Y016922D01*
X016056Y017021D02*
X017811Y017021D01*
X017865Y017075D02*
X017736Y016947D01*
X017736Y016296D01*
X017645Y016296D01*
X017551Y016202D01*
X017426Y016254D01*
X017287Y016254D01*
X017159Y016201D01*
X017061Y016103D01*
X017008Y015975D01*
X017008Y015836D01*
X017061Y015708D01*
X017159Y015610D01*
X017287Y015557D01*
X017426Y015557D01*
X017554Y015610D01*
X017575Y015632D01*
X017645Y015562D01*
X018219Y015562D01*
X018281Y015624D01*
X018293Y015612D01*
X018327Y015592D01*
X018365Y015582D01*
X018553Y015582D01*
X018553Y015881D01*
X018318Y015881D01*
X018318Y015977D01*
X018553Y015977D01*
X018553Y015881D01*
X018650Y015881D01*
X018650Y015977D01*
X018968Y015977D01*
X018968Y016146D01*
X018958Y016184D01*
X018938Y016218D01*
X018910Y016246D01*
X018876Y016266D01*
X018838Y016276D01*
X018650Y016276D01*
X018650Y015978D01*
X018553Y015978D01*
X018553Y016276D01*
X018365Y016276D01*
X018327Y016266D01*
X018293Y016246D01*
X018281Y016234D01*
X018219Y016296D01*
X018176Y016296D01*
X018176Y016764D01*
X018269Y016857D01*
X018376Y016857D01*
X018504Y016910D01*
X018602Y017008D01*
X018655Y017136D01*
X018655Y017275D01*
X018602Y017403D01*
X018504Y017501D01*
X018376Y017554D01*
X018237Y017554D01*
X018109Y017501D01*
X018011Y017403D01*
X017958Y017275D01*
X017958Y017168D01*
X017865Y017075D01*
X017909Y017119D02*
X016056Y017119D01*
X016056Y017157D02*
X016126Y017157D01*
X016254Y017210D01*
X016272Y017228D01*
X016277Y017223D01*
X016733Y017223D01*
X016833Y017323D01*
X016833Y017661D01*
X016733Y017760D01*
X016294Y017760D01*
X016254Y017801D01*
X016126Y017854D01*
X016056Y017854D01*
X016056Y017857D01*
X016126Y017857D01*
X016254Y017910D01*
X016315Y017971D01*
X016733Y017971D01*
X016833Y018071D01*
X016833Y018409D01*
X016733Y018508D01*
X016277Y018508D01*
X016262Y018493D01*
X016254Y018501D01*
X016126Y018554D01*
X016056Y018554D01*
X016056Y019205D01*
X020106Y019205D01*
X020106Y012255D01*
X016056Y012255D01*
X016056Y017157D01*
X016262Y017218D02*
X017958Y017218D01*
X017975Y017316D02*
X017697Y017316D01*
X017688Y017301D02*
X017708Y017335D01*
X017718Y017373D01*
X017718Y017492D01*
X017718Y017610D01*
X017709Y017646D01*
X018308Y017646D01*
X018969Y018307D01*
X019076Y018307D01*
X019204Y018360D01*
X019302Y018458D01*
X019355Y018586D01*
X019355Y018725D01*
X019302Y018853D01*
X019204Y018951D01*
X019076Y019004D01*
X018937Y019004D01*
X018809Y018951D01*
X018711Y018853D01*
X018681Y018781D01*
X018652Y018853D01*
X018554Y018951D01*
X018426Y019004D01*
X018287Y019004D01*
X018159Y018951D01*
X018084Y018875D01*
X017735Y018875D01*
X017606Y018747D01*
X017368Y018508D01*
X017183Y018508D01*
X017083Y018409D01*
X017083Y018071D01*
X017100Y018054D01*
X017080Y018035D01*
X017080Y017697D01*
X017119Y017658D01*
X017113Y017648D01*
X017103Y017610D01*
X017103Y017492D01*
X017411Y017492D01*
X017718Y017492D01*
X017411Y017492D01*
X017411Y017492D01*
X017411Y017492D01*
X017411Y017597D01*
X017411Y017597D01*
X017411Y017492D01*
X017411Y017492D01*
X017411Y017243D01*
X017588Y017243D01*
X017626Y017253D01*
X017660Y017273D01*
X017688Y017301D01*
X017718Y017415D02*
X018023Y017415D01*
X018140Y017513D02*
X017718Y017513D01*
X017718Y017612D02*
X020106Y017612D01*
X020106Y017710D02*
X018373Y017710D01*
X018471Y017809D02*
X020106Y017809D01*
X020106Y017907D02*
X018570Y017907D01*
X018668Y018006D02*
X020106Y018006D01*
X020106Y018104D02*
X018767Y018104D01*
X018865Y018203D02*
X020106Y018203D01*
X020106Y018301D02*
X018964Y018301D01*
X019006Y018655D02*
X018217Y017866D01*
X017408Y017866D01*
X017080Y017907D02*
X016247Y017907D01*
X016234Y017809D02*
X017080Y017809D01*
X017080Y017710D02*
X016783Y017710D01*
X016833Y017612D02*
X017104Y017612D01*
X017103Y017513D02*
X016833Y017513D01*
X016833Y017415D02*
X017103Y017415D01*
X017103Y017373D02*
X017113Y017335D01*
X017133Y017301D01*
X017161Y017273D01*
X017195Y017253D01*
X017233Y017243D01*
X017411Y017243D01*
X017411Y017492D01*
X017411Y017492D01*
X017103Y017492D01*
X017103Y017373D01*
X017124Y017316D02*
X016826Y017316D01*
X016505Y017492D02*
X016070Y017492D01*
X016056Y017505D01*
X016056Y018205D02*
X016471Y018205D01*
X016505Y018240D01*
X016833Y018203D02*
X017083Y018203D01*
X017083Y018301D02*
X016833Y018301D01*
X016833Y018400D02*
X017083Y018400D01*
X017173Y018498D02*
X016743Y018498D01*
X016833Y018104D02*
X017083Y018104D01*
X017080Y018006D02*
X016768Y018006D01*
X017411Y018240D02*
X017826Y018655D01*
X018356Y018655D01*
X018347Y018307D02*
X018125Y018086D01*
X017738Y018086D01*
X017738Y018256D01*
X017918Y018435D01*
X018084Y018435D01*
X018159Y018360D01*
X018287Y018307D01*
X018347Y018307D01*
X018341Y018301D02*
X017784Y018301D01*
X017738Y018203D02*
X018243Y018203D01*
X018144Y018104D02*
X017738Y018104D01*
X017882Y018400D02*
X018119Y018400D01*
X018101Y018892D02*
X016056Y018892D01*
X016056Y018794D02*
X017654Y018794D01*
X017555Y018695D02*
X016056Y018695D01*
X016056Y018597D02*
X017457Y018597D01*
X018256Y018991D02*
X016056Y018991D01*
X016056Y019089D02*
X020106Y019089D01*
X020106Y018991D02*
X019107Y018991D01*
X019262Y018892D02*
X020106Y018892D01*
X020106Y018794D02*
X019326Y018794D01*
X019355Y018695D02*
X020106Y018695D01*
X020106Y018597D02*
X019355Y018597D01*
X019318Y018498D02*
X020106Y018498D01*
X020106Y018400D02*
X019244Y018400D01*
X018906Y018991D02*
X018457Y018991D01*
X018612Y018892D02*
X018751Y018892D01*
X018687Y018794D02*
X018676Y018794D01*
X017796Y019845D02*
X016649Y019845D01*
X016739Y019755D01*
X015980Y019845D02*
X014896Y019845D01*
X013956Y018905D01*
X013456Y018905D02*
X013456Y020055D01*
X013406Y021105D02*
X012556Y021105D01*
X014306Y021555D02*
X014306Y022905D01*
X014254Y022905D01*
X014954Y022205D01*
X015956Y022205D01*
X015956Y022221D01*
X015963Y022228D01*
X016633Y022228D02*
X016634Y022228D01*
X016656Y022205D01*
X017857Y022205D01*
X016633Y022228D02*
X015956Y022905D01*
X015159Y022905D01*
X014759Y023305D01*
X013356Y023305D01*
X012800Y023862D01*
X012117Y023862D01*
X012117Y024531D02*
X011963Y024585D01*
X011476Y024585D01*
X011476Y025475D01*
X011606Y025605D01*
X012356Y026005D02*
X012361Y026001D01*
X012754Y025996D01*
X011476Y024585D02*
X011422Y024531D01*
X010886Y024531D01*
X010886Y023862D02*
X011450Y023862D01*
X011456Y023855D01*
X010106Y024305D02*
X008056Y024305D01*
X007556Y023805D01*
X007556Y023055D01*
X005006Y020455D01*
X003806Y020455D01*
X003206Y021055D01*
X002256Y020255D02*
X002456Y020055D01*
X005206Y020055D01*
X008256Y023105D01*
X008456Y023205D01*
X008556Y021955D02*
X008106Y021505D01*
X007256Y021505D01*
X005406Y019655D01*
X003656Y019655D01*
X003106Y019105D01*
X002456Y019455D02*
X002856Y019855D01*
X005306Y019855D01*
X007406Y021955D01*
X007856Y021955D01*
X009356Y021255D02*
X009356Y020805D01*
X009356Y021255D02*
X009601Y021500D01*
X009605Y021500D01*
X009601Y021500D02*
X009606Y021505D01*
X009605Y022169D02*
X009605Y022854D01*
X009606Y022855D01*
X009456Y020305D02*
X008856Y020305D01*
X009456Y020305D02*
X011206Y018555D01*
X011206Y018155D01*
X010806Y018055D02*
X010806Y018605D01*
X010006Y019405D01*
X008656Y019405D01*
X008483Y018005D02*
X008295Y017817D01*
X008483Y018005D02*
X009606Y018005D01*
X010806Y018055D02*
X011156Y017705D01*
X013856Y017705D01*
X014056Y017905D01*
X016056Y019188D02*
X020106Y019188D01*
X020916Y018110D02*
X021421Y017605D01*
X022606Y017605D01*
X022767Y017445D01*
X023385Y017445D01*
X020106Y017415D02*
X018590Y017415D01*
X018637Y017316D02*
X020106Y017316D01*
X020106Y017218D02*
X018655Y017218D01*
X018648Y017119D02*
X020106Y017119D01*
X020106Y017021D02*
X018607Y017021D01*
X018516Y016922D02*
X020106Y016922D01*
X020106Y016824D02*
X018236Y016824D01*
X018176Y016725D02*
X020106Y016725D01*
X020106Y016627D02*
X018176Y016627D01*
X018176Y016528D02*
X020106Y016528D01*
X020106Y016430D02*
X018176Y016430D01*
X018176Y016331D02*
X020106Y016331D01*
X020106Y016233D02*
X018923Y016233D01*
X018968Y016134D02*
X020106Y016134D01*
X020106Y016036D02*
X018968Y016036D01*
X018968Y015881D02*
X018650Y015881D01*
X018650Y015582D01*
X018838Y015582D01*
X018876Y015592D01*
X018910Y015612D01*
X018938Y015640D01*
X018958Y015674D01*
X018968Y015712D01*
X018968Y015881D01*
X018968Y015839D02*
X020106Y015839D01*
X020106Y015937D02*
X018650Y015937D01*
X018553Y015937D02*
X018318Y015937D01*
X018553Y015839D02*
X018650Y015839D01*
X018650Y015740D02*
X018553Y015740D01*
X018553Y015642D02*
X018650Y015642D01*
X018939Y015642D02*
X020106Y015642D01*
X020106Y015740D02*
X018968Y015740D01*
X018650Y016036D02*
X018553Y016036D01*
X018553Y016134D02*
X018650Y016134D01*
X018650Y016233D02*
X018553Y016233D01*
X017956Y015905D02*
X017956Y016855D01*
X018306Y017205D01*
X018473Y017513D02*
X020106Y017513D01*
X020106Y015543D02*
X016056Y015543D01*
X016056Y015445D02*
X020106Y015445D01*
X020106Y015346D02*
X016056Y015346D01*
X016056Y015248D02*
X020106Y015248D01*
X020106Y015149D02*
X016056Y015149D01*
X016056Y015051D02*
X017159Y015051D01*
X017061Y014953D01*
X017008Y014825D01*
X017008Y014686D01*
X017061Y014558D01*
X017159Y014460D01*
X017170Y014455D01*
X017159Y014451D01*
X017061Y014353D01*
X017008Y014225D01*
X017008Y014086D01*
X017061Y013958D01*
X017159Y013860D01*
X017287Y013807D01*
X017394Y013807D01*
X017545Y013655D01*
X017545Y013300D01*
X017645Y013200D01*
X018219Y013200D01*
X018281Y013262D01*
X018293Y013250D01*
X018327Y013230D01*
X018365Y013220D01*
X018553Y013220D01*
X018553Y013518D01*
X018650Y013518D01*
X018650Y013615D01*
X018968Y013615D01*
X018968Y013783D01*
X018958Y013822D01*
X018938Y013856D01*
X018910Y013884D01*
X018876Y013903D01*
X018838Y013914D01*
X018650Y013914D01*
X018650Y013615D01*
X018553Y013615D01*
X018318Y013615D01*
X018318Y013518D01*
X018553Y013518D01*
X018553Y013615D01*
X018553Y013914D01*
X018365Y013914D01*
X018327Y013903D01*
X018293Y013884D01*
X018281Y013872D01*
X018219Y013934D01*
X017889Y013934D01*
X017705Y014118D01*
X017705Y014225D01*
X017652Y014353D01*
X017554Y014451D01*
X017543Y014455D01*
X017554Y014460D01*
X017560Y014466D01*
X017645Y014381D01*
X018219Y014381D01*
X018281Y014443D01*
X018293Y014431D01*
X018327Y014411D01*
X018365Y014401D01*
X018553Y014401D01*
X018553Y014700D01*
X018318Y014700D01*
X018318Y014796D01*
X018553Y014796D01*
X018553Y014700D01*
X018650Y014700D01*
X018650Y014796D01*
X018968Y014796D01*
X018968Y014965D01*
X018958Y015003D01*
X018938Y015037D01*
X018910Y015065D01*
X018876Y015085D01*
X018838Y015095D01*
X018650Y015095D01*
X018650Y014796D01*
X018553Y014796D01*
X018553Y015095D01*
X018365Y015095D01*
X018327Y015085D01*
X018293Y015065D01*
X018281Y015053D01*
X018219Y015115D01*
X017645Y015115D01*
X017567Y015037D01*
X017554Y015051D01*
X017426Y015104D01*
X017287Y015104D01*
X017159Y015051D01*
X017061Y014952D02*
X016056Y014952D01*
X016056Y014854D02*
X017020Y014854D01*
X017008Y014755D02*
X016056Y014755D01*
X016056Y014657D02*
X017020Y014657D01*
X017061Y014558D02*
X016056Y014558D01*
X016056Y014460D02*
X017159Y014460D01*
X017070Y014361D02*
X016056Y014361D01*
X016056Y014263D02*
X017024Y014263D01*
X017008Y014164D02*
X016056Y014164D01*
X016056Y014066D02*
X017016Y014066D01*
X017057Y013967D02*
X016056Y013967D01*
X016056Y013869D02*
X017150Y013869D01*
X017430Y013770D02*
X016056Y013770D01*
X016056Y013672D02*
X017529Y013672D01*
X017545Y013573D02*
X016056Y013573D01*
X016056Y013475D02*
X017545Y013475D01*
X017545Y013376D02*
X016056Y013376D01*
X016056Y013278D02*
X017567Y013278D01*
X017921Y013555D02*
X017932Y013567D01*
X017932Y013580D01*
X017356Y014155D01*
X017689Y014263D02*
X020106Y014263D01*
X020106Y014361D02*
X017643Y014361D01*
X017566Y014460D02*
X017553Y014460D01*
X017705Y014164D02*
X020106Y014164D01*
X020106Y014066D02*
X017757Y014066D01*
X017855Y013967D02*
X020106Y013967D01*
X020106Y013869D02*
X018925Y013869D01*
X018968Y013770D02*
X020106Y013770D01*
X020106Y013672D02*
X018968Y013672D01*
X018968Y013518D02*
X018650Y013518D01*
X018650Y013220D01*
X018838Y013220D01*
X018876Y013230D01*
X018910Y013250D01*
X018938Y013278D01*
X020106Y013278D01*
X020106Y013376D02*
X018968Y013376D01*
X018968Y013350D02*
X018968Y013518D01*
X018968Y013475D02*
X020106Y013475D01*
X020106Y013573D02*
X018650Y013573D01*
X018553Y013573D02*
X018318Y013573D01*
X018553Y013475D02*
X018650Y013475D01*
X018650Y013376D02*
X018553Y013376D01*
X018553Y013278D02*
X018650Y013278D01*
X018938Y013278D02*
X018958Y013312D01*
X018968Y013350D01*
X018650Y013672D02*
X018553Y013672D01*
X018553Y013770D02*
X018650Y013770D01*
X018650Y013869D02*
X018553Y013869D01*
X018650Y014401D02*
X018838Y014401D01*
X018876Y014411D01*
X018910Y014431D01*
X018938Y014459D01*
X018958Y014493D01*
X018968Y014531D01*
X018968Y014700D01*
X018650Y014700D01*
X018650Y014401D01*
X018650Y014460D02*
X018553Y014460D01*
X018553Y014558D02*
X018650Y014558D01*
X018650Y014657D02*
X018553Y014657D01*
X018553Y014755D02*
X018318Y014755D01*
X018553Y014854D02*
X018650Y014854D01*
X018650Y014952D02*
X018553Y014952D01*
X018553Y015051D02*
X018650Y015051D01*
X018924Y015051D02*
X020106Y015051D01*
X020106Y014952D02*
X018968Y014952D01*
X018968Y014854D02*
X020106Y014854D01*
X020106Y014755D02*
X018650Y014755D01*
X018968Y014657D02*
X020106Y014657D01*
X020106Y014558D02*
X018968Y014558D01*
X018938Y014460D02*
X020106Y014460D01*
X020106Y013179D02*
X016056Y013179D01*
X016056Y013081D02*
X020106Y013081D01*
X020106Y012982D02*
X016056Y012982D01*
X016056Y012884D02*
X020106Y012884D01*
X020106Y012785D02*
X016056Y012785D01*
X016056Y012687D02*
X020106Y012687D01*
X020106Y012588D02*
X016056Y012588D01*
X016056Y012490D02*
X020106Y012490D01*
X020106Y012391D02*
X016056Y012391D01*
X016056Y012293D02*
X020106Y012293D01*
X017932Y014748D02*
X017924Y014755D01*
X017356Y014755D01*
X017553Y015051D02*
X017581Y015051D01*
X017127Y015642D02*
X016056Y015642D01*
X016056Y015740D02*
X017048Y015740D01*
X017008Y015839D02*
X016056Y015839D01*
X016056Y015937D02*
X017008Y015937D01*
X017033Y016036D02*
X016056Y016036D01*
X016056Y016134D02*
X017093Y016134D01*
X017237Y016233D02*
X016056Y016233D01*
X016056Y016331D02*
X017736Y016331D01*
X017736Y016430D02*
X016056Y016430D01*
X016056Y016528D02*
X017736Y016528D01*
X017582Y016233D02*
X017476Y016233D01*
X017356Y015905D02*
X017908Y015905D01*
X017932Y015929D01*
X017933Y015929D01*
X017956Y015905D01*
X017411Y017316D02*
X017411Y017316D01*
X017411Y017415D02*
X017411Y017415D01*
X017411Y017513D02*
X017411Y017513D01*
X016268Y018498D02*
X016256Y018498D01*
X016041Y020455D02*
X015356Y020455D01*
X015365Y021047D02*
X015356Y021055D01*
X015365Y021047D02*
X015963Y021047D01*
X016041Y020455D02*
X016633Y021047D01*
X017796Y019845D02*
X017906Y019955D01*
X019456Y022755D02*
X018456Y023755D01*
X018256Y023755D01*
X018356Y025355D02*
X018972Y025355D01*
X019054Y025437D01*
X017806Y025355D02*
X017806Y026155D01*
X017856Y026205D01*
X017845Y026217D01*
X017840Y026217D01*
X017840Y026887D02*
X017825Y026887D01*
X017806Y026905D01*
X016706Y027005D02*
X016700Y027012D01*
X016692Y027012D01*
X014937Y028075D02*
X014906Y028044D01*
X014906Y025505D01*
X014756Y025355D01*
X014756Y024255D01*
X010206Y026005D02*
X007744Y026005D01*
X007320Y026430D01*
X007320Y027099D02*
X007902Y027681D01*
X008424Y027681D01*
X008818Y028075D01*
X009605Y028075D01*
X009605Y027405D02*
X009605Y026904D01*
X009456Y026755D01*
X009066Y026369D02*
X008424Y027012D01*
X009066Y026369D02*
X009066Y026355D01*
X007320Y027099D02*
X007313Y027105D01*
X006667Y027105D01*
X006062Y026500D01*
X006062Y025831D02*
X006831Y025831D01*
X006856Y025805D01*
X003956Y017105D02*
X002806Y017105D01*
X002802Y017110D01*
X002774Y017110D01*
X002774Y016854D02*
X003258Y016854D01*
X003506Y016605D01*
D24*
X002774Y017622D02*
X002774Y017642D01*
X001731Y018685D01*
X001731Y019531D01*
X001656Y019605D01*
X001731Y015535D02*
X001731Y014780D01*
X001656Y014705D01*
X007320Y027099D02*
X007306Y027113D01*
X007306Y027655D01*
X013424Y025996D02*
X014147Y025996D01*
X014256Y026105D01*
X015511Y027405D02*
X016056Y027405D01*
X016332Y027681D01*
X016692Y027681D01*
X017045Y027681D01*
X017840Y026887D01*
X018274Y026887D01*
X019054Y026106D01*
X017806Y026905D02*
X016906Y026005D01*
X015956Y022228D02*
X015956Y022205D01*
X021916Y015110D02*
X023385Y016579D01*
X023385Y016776D01*
X013156Y012405D02*
X013156Y011605D01*
D25*
X014156Y011405D03*
X015106Y011555D03*
X015106Y012455D03*
X015106Y013105D03*
X017356Y014155D03*
X017356Y014755D03*
X017356Y015355D03*
X017356Y015905D03*
X018306Y017205D03*
X018356Y018655D03*
X019006Y018655D03*
X017906Y019955D03*
X016956Y018855D03*
X016056Y018205D03*
X016056Y017505D03*
X014756Y017905D03*
X014056Y017905D03*
X013956Y018905D03*
X013456Y018905D03*
X013456Y020055D03*
X013006Y020755D03*
X013406Y021105D03*
X014306Y021555D03*
X015356Y021055D03*
X015356Y020455D03*
X012556Y021105D03*
X011956Y021655D03*
X011456Y023855D03*
X011476Y024585D03*
X011606Y025605D03*
X010206Y026005D03*
X009456Y026755D03*
X009066Y026355D03*
X007306Y027655D03*
X006856Y025805D03*
X007556Y023805D03*
X008456Y023205D03*
X008556Y021955D03*
X007856Y021955D03*
X009356Y020805D03*
X008856Y020305D03*
X008656Y019405D03*
X008600Y018812D03*
X008295Y017817D03*
X008406Y017205D03*
X009006Y016755D03*
X009906Y016755D03*
X009906Y016255D03*
X009356Y017605D03*
X011206Y018155D03*
X010356Y013655D03*
X009856Y012155D03*
X009906Y011705D03*
X010306Y011305D03*
X010306Y010755D03*
X010256Y010255D03*
X010606Y009855D03*
X010106Y009505D03*
X009706Y009105D03*
X009606Y008505D03*
X011956Y006555D03*
X012606Y006205D03*
X013256Y006705D03*
X013956Y006855D03*
X014456Y007405D03*
X015506Y006505D03*
X016056Y006505D03*
X015906Y007055D03*
X016756Y008205D03*
X016006Y009405D03*
X014106Y009305D03*
X013606Y009955D03*
X011856Y011605D03*
X012106Y012105D03*
X011406Y011255D03*
X007306Y011655D03*
X006456Y010455D03*
X006456Y008255D03*
X006306Y015905D03*
X006856Y016905D03*
X006856Y017555D03*
X003956Y017105D03*
X003506Y016605D03*
X003106Y019105D03*
X002456Y019455D03*
X002256Y020255D03*
X003206Y021055D03*
X010106Y024305D03*
X014306Y025555D03*
X014756Y024255D03*
X017806Y025355D03*
X018356Y025355D03*
X018956Y015305D03*
D26*
X015506Y016605D03*
X014756Y017105D03*
X013856Y013705D03*
X013156Y011605D03*
X009556Y007905D03*
X005656Y011155D03*
X003356Y012555D03*
X001656Y014705D03*
X003206Y016005D03*
X001656Y019605D03*
X002906Y020455D03*
X004006Y020855D03*
X007556Y020805D03*
X008056Y020355D03*
X009606Y022855D03*
X011056Y025105D03*
X014256Y026105D03*
X015906Y026555D03*
X016906Y026005D03*
X018256Y023755D03*
X017206Y023305D03*
X017857Y022205D03*
X017206Y021755D03*
X019456Y022755D03*
X011156Y019405D03*
X009906Y017205D03*
X007656Y024805D03*
D27*
X008306Y025455D01*
X010706Y025455D01*
X010731Y025430D01*
X011056Y025105D01*
X010731Y025430D02*
X011297Y025996D01*
X012754Y025996D01*
X013361Y026602D01*
X013361Y027740D01*
X014356Y028655D02*
X014937Y028075D01*
X015511Y028075D01*
X016356Y027005D02*
X016706Y027005D01*
X016356Y027005D02*
X015906Y026555D01*
X014356Y028655D02*
X011856Y028655D01*
X011356Y028155D01*
X011356Y027745D01*
X011361Y027740D01*
X018506Y024655D02*
X019054Y025203D01*
X019054Y025437D01*
X011006Y013655D02*
X010356Y013655D01*
X011006Y013655D02*
X011548Y013114D01*
X013148Y013114D01*
X014330Y013114D01*
X013217Y012445D02*
X013706Y011955D01*
X015756Y011955D01*
X016906Y013105D01*
X018456Y013105D01*
X018606Y013255D01*
X018606Y013562D01*
X018601Y013567D01*
X013217Y012445D02*
X013148Y012445D01*
X003898Y012015D02*
X003897Y012015D01*
X003356Y012555D01*
X003206Y016005D02*
X003206Y016166D01*
X002774Y016598D01*
D28*
X010589Y020457D03*
X010786Y020653D03*
X010983Y020457D03*
X010983Y020850D03*
X010589Y020850D03*
X012361Y015929D03*
X012164Y015732D03*
X011967Y015535D03*
X012164Y015339D03*
X012361Y015535D03*
X012558Y015339D03*
X012755Y015535D03*
X012558Y015732D03*
X012361Y015142D03*
X012164Y008646D03*
X012361Y008449D03*
X012558Y008646D03*
X012558Y008252D03*
X012164Y008252D03*
D29*
X018506Y024655D03*
M02*
